<mxfile host="app.diagrams.net" agent="Mozilla/5.0 (Windows NT 10.0; Win64; x64) AppleWebKit/537.36 (KHTML, like Gecko) Chrome/131.0.0.0 Safari/537.36" version="25.0.3">
  <diagram name="Seite-1" id="jBQDy_dt-C0UIOfMRIb3">
    <mxGraphModel dx="1912" dy="1048" grid="1" gridSize="4" guides="1" tooltips="1" connect="1" arrows="1" fold="1" page="1" pageScale="1" pageWidth="1169" pageHeight="827" math="0" shadow="0">
      <root>
        <mxCell id="0" />
        <mxCell id="1" parent="0" />
        <mxCell id="540hR07JQp46lMpWSilx-63" value="" style="rounded=1;whiteSpace=wrap;html=1;arcSize=8;strokeColor=default;fillColor=none;dashed=1;strokeWidth=0.5;" parent="1" vertex="1">
          <mxGeometry x="156" y="108" width="696" height="172" as="geometry" />
        </mxCell>
        <mxCell id="_Ql84keAu2V8BWw_rLA1-2" value="&lt;font style=&quot;font-size: 10px;&quot;&gt;System&lt;/font&gt;" style="rounded=1;whiteSpace=wrap;html=1;fillColor=#E1d5e7;strokeColor=#FFFFFF;align=center;" parent="1" vertex="1">
          <mxGeometry x="192" y="132" width="60" height="24" as="geometry" />
        </mxCell>
        <mxCell id="540hR07JQp46lMpWSilx-54" style="edgeStyle=orthogonalEdgeStyle;rounded=0;orthogonalLoop=1;jettySize=auto;html=1;strokeColor=default;strokeWidth=0.25;align=center;verticalAlign=middle;fontFamily=Helvetica;fontSize=11;fontColor=default;labelBackgroundColor=default;endArrow=classic;" parent="1" source="_Ql84keAu2V8BWw_rLA1-6" edge="1">
          <mxGeometry relative="1" as="geometry">
            <mxPoint x="629.28" y="144" as="targetPoint" />
          </mxGeometry>
        </mxCell>
        <mxCell id="540hR07JQp46lMpWSilx-55" style="edgeStyle=orthogonalEdgeStyle;rounded=0;orthogonalLoop=1;jettySize=auto;html=1;strokeColor=default;strokeWidth=0.25;align=center;verticalAlign=middle;fontFamily=Helvetica;fontSize=11;fontColor=default;labelBackgroundColor=default;endArrow=classic;" parent="1" source="_Ql84keAu2V8BWw_rLA1-6" edge="1">
          <mxGeometry relative="1" as="geometry">
            <mxPoint x="628" y="184" as="targetPoint" />
            <Array as="points">
              <mxPoint x="596" y="144" />
              <mxPoint x="596" y="184" />
            </Array>
          </mxGeometry>
        </mxCell>
        <mxCell id="540hR07JQp46lMpWSilx-60" style="edgeStyle=orthogonalEdgeStyle;rounded=0;orthogonalLoop=1;jettySize=auto;html=1;strokeColor=default;strokeWidth=0.25;align=center;verticalAlign=middle;fontFamily=Helvetica;fontSize=11;fontColor=default;labelBackgroundColor=default;endArrow=classic;" parent="1" source="_Ql84keAu2V8BWw_rLA1-6" edge="1">
          <mxGeometry relative="1" as="geometry">
            <mxPoint x="376" y="180" as="targetPoint" />
            <Array as="points">
              <mxPoint x="344" y="144" />
              <mxPoint x="344" y="180" />
            </Array>
          </mxGeometry>
        </mxCell>
        <mxCell id="_Ql84keAu2V8BWw_rLA1-6" value="" style="shape=cylinder3;whiteSpace=wrap;html=1;boundedLbl=1;backgroundOutline=1;size=5.599999999999994;fillColor=#E1d5e7;strokeColor=#FFFFFF;" parent="1" vertex="1">
          <mxGeometry x="276" y="128.5" width="20" height="31" as="geometry" />
        </mxCell>
        <mxCell id="_Ql84keAu2V8BWw_rLA1-9" value="" style="shape=hexagon;perimeter=ellipsePerimeter;whiteSpace=wrap;html=1;fixedSize=1;size=6.563862928348897;autosize=0;fixedWidth=0;rounded=0;fillColor=#f8cecc;strokeColor=none;" parent="1" vertex="1">
          <mxGeometry x="504" y="168" width="28" height="24.5" as="geometry" />
        </mxCell>
        <mxCell id="_Ql84keAu2V8BWw_rLA1-12" value="" style="endArrow=none;dashed=1;html=1;rounded=0;strokeWidth=0.5;" parent="1" edge="1">
          <mxGeometry width="50" height="50" relative="1" as="geometry">
            <mxPoint x="324" y="420" as="sourcePoint" />
            <mxPoint x="324" y="60" as="targetPoint" />
          </mxGeometry>
        </mxCell>
        <mxCell id="TWipIhk7hS3ImqUsRo4q-1" value="&lt;font color=&quot;#9673a6&quot;&gt;Source Layer&lt;/font&gt;" style="rounded=0;whiteSpace=wrap;html=1;fillColor=#E1D5E7;strokeColor=#9673a6;dashed=1;dashPattern=1 1;fontStyle=1;labelPosition=right;verticalLabelPosition=middle;align=left;verticalAlign=middle;spacingRight=0;spacingLeft=0;strokeWidth=2;fillOpacity=30;" parent="1" vertex="1">
          <mxGeometry x="954" y="1490" width="400" height="40" as="geometry" />
        </mxCell>
        <mxCell id="TWipIhk7hS3ImqUsRo4q-2" value="Integration Layer" style="rounded=0;whiteSpace=wrap;html=1;fillColor=#D5E8D4;strokeColor=#82b366;dashed=1;dashPattern=1 1;fontStyle=1;labelPosition=right;verticalLabelPosition=middle;align=left;verticalAlign=middle;spacingRight=0;spacingLeft=0;fontColor=#82B366;strokeWidth=2;fillOpacity=30;" parent="1" vertex="1">
          <mxGeometry x="954" y="1430" width="400" height="40" as="geometry" />
        </mxCell>
        <mxCell id="TWipIhk7hS3ImqUsRo4q-3" value="Core Layer" style="rounded=0;whiteSpace=wrap;html=1;fillColor=#F8CECC;strokeColor=#b85450;dashed=1;dashPattern=1 1;fontStyle=1;labelPosition=right;verticalLabelPosition=top;align=left;verticalAlign=bottom;spacingRight=0;spacingLeft=0;fontColor=#B85450;strokeWidth=2;fillOpacity=30;" parent="1" vertex="1">
          <mxGeometry x="954" y="1370" width="400" height="40" as="geometry" />
        </mxCell>
        <mxCell id="TWipIhk7hS3ImqUsRo4q-4" value="Analytics Layer" style="rounded=0;whiteSpace=wrap;html=1;fillColor=#FFF2CC;strokeColor=#d6b656;dashed=1;dashPattern=1 1;fontStyle=1;labelPosition=right;verticalLabelPosition=middle;align=left;verticalAlign=middle;spacingRight=0;spacingLeft=0;fontColor=#D6B656;fillOpacity=30;strokeWidth=2;" parent="1" vertex="1">
          <mxGeometry x="954" y="1310" width="400" height="40" as="geometry" />
        </mxCell>
        <mxCell id="TWipIhk7hS3ImqUsRo4q-5" value="Presentation Layer" style="rounded=0;whiteSpace=wrap;html=1;fillColor=#DAE8FC;strokeColor=#6c8ebf;dashed=1;dashPattern=1 1;fontStyle=1;labelPosition=right;verticalLabelPosition=middle;align=left;verticalAlign=middle;spacingRight=0;spacingLeft=0;fontColor=#6C8EBF;fillOpacity=30;strokeWidth=2;" parent="1" vertex="1">
          <mxGeometry x="954" y="1250" width="400" height="40" as="geometry" />
        </mxCell>
        <mxCell id="TWipIhk7hS3ImqUsRo4q-6" value="" style="rounded=0;whiteSpace=wrap;html=1;fillColor=#e1d5e7;strokeColor=#9673a6;strokeOpacity=100;fillOpacity=60;" parent="1" vertex="1">
          <mxGeometry x="944" y="1372.5" width="420" height="35" as="geometry" />
        </mxCell>
        <mxCell id="TWipIhk7hS3ImqUsRo4q-7" value="" style="endArrow=none;html=1;rounded=0;fillColor=#f5f5f5;strokeColor=#666666;strokeWidth=15;strokeOpacity=50;exitX=0.5;exitY=0;exitDx=0;exitDy=0;entryX=0.5;entryY=1;entryDx=0;entryDy=0;fillOpacity=100;" parent="1" source="TWipIhk7hS3ImqUsRo4q-14" target="TWipIhk7hS3ImqUsRo4q-17" edge="1">
          <mxGeometry width="50" height="50" relative="1" as="geometry">
            <mxPoint x="1014" y="1360" as="sourcePoint" />
            <mxPoint x="1014" y="1240" as="targetPoint" />
            <Array as="points" />
          </mxGeometry>
        </mxCell>
        <mxCell id="TWipIhk7hS3ImqUsRo4q-8" value="Domain" style="text;html=1;align=center;verticalAlign=middle;whiteSpace=wrap;rounded=0;fillColor=none;strokeColor=none;fontColor=#666666;fontStyle=1;fontSize=10;" parent="1" vertex="1">
          <mxGeometry x="994" y="1540" width="40" height="20" as="geometry" />
        </mxCell>
        <mxCell id="TWipIhk7hS3ImqUsRo4q-9" value="Domain" style="text;html=1;align=center;verticalAlign=middle;whiteSpace=wrap;rounded=0;fillColor=none;strokeColor=none;fontColor=#666666;fontStyle=1;fontSize=10;" parent="1" vertex="1">
          <mxGeometry x="1074" y="1540" width="40" height="20" as="geometry" />
        </mxCell>
        <mxCell id="TWipIhk7hS3ImqUsRo4q-10" value="Domain" style="text;html=1;align=center;verticalAlign=middle;whiteSpace=wrap;rounded=0;fillColor=none;strokeColor=none;fontColor=#666666;fontStyle=1;fontSize=10;" parent="1" vertex="1">
          <mxGeometry x="1154" y="1540" width="40" height="20" as="geometry" />
        </mxCell>
        <mxCell id="TWipIhk7hS3ImqUsRo4q-11" value="Domain" style="text;html=1;align=center;verticalAlign=middle;whiteSpace=wrap;rounded=0;fillColor=none;strokeColor=none;fontColor=#666666;fontStyle=1;fontSize=10;" parent="1" vertex="1">
          <mxGeometry x="1314" y="1540" width="40" height="20" as="geometry" />
        </mxCell>
        <mxCell id="TWipIhk7hS3ImqUsRo4q-12" style="edgeStyle=none;shape=connector;rounded=0;orthogonalLoop=1;jettySize=auto;html=1;entryX=0.5;entryY=1;entryDx=0;entryDy=0;strokeColor=#666666;strokeWidth=15;align=center;verticalAlign=middle;fontFamily=Helvetica;fontSize=11;fontColor=default;labelBackgroundColor=default;endArrow=none;fillColor=#f5f5f5;strokeOpacity=50;fillOpacity=100;exitX=0.5;exitY=0;exitDx=0;exitDy=0;" parent="1" source="TWipIhk7hS3ImqUsRo4q-30" target="TWipIhk7hS3ImqUsRo4q-16" edge="1">
          <mxGeometry relative="1" as="geometry">
            <mxPoint x="1054" y="1380" as="sourcePoint" />
            <Array as="points">
              <mxPoint x="1054" y="1360" />
              <mxPoint x="1094" y="1360" />
            </Array>
          </mxGeometry>
        </mxCell>
        <mxCell id="TWipIhk7hS3ImqUsRo4q-13" value="" style="endArrow=none;html=1;rounded=0;fillColor=#f5f5f5;strokeColor=#666666;strokeWidth=15;strokeOpacity=50;entryX=0.5;entryY=1;entryDx=0;entryDy=0;fillOpacity=100;align=center;verticalAlign=middle;fontFamily=Helvetica;fontSize=11;fontColor=default;labelBackgroundColor=default;" parent="1" target="TWipIhk7hS3ImqUsRo4q-34" edge="1">
          <mxGeometry width="50" height="50" relative="1" as="geometry">
            <mxPoint x="1334" y="1540" as="sourcePoint" />
            <mxPoint x="1334" y="1400" as="targetPoint" />
            <Array as="points">
              <mxPoint x="1334" y="1470" />
            </Array>
          </mxGeometry>
        </mxCell>
        <mxCell id="TWipIhk7hS3ImqUsRo4q-14" value="" style="shape=image;verticalLabelPosition=middle;labelBackgroundColor=#ece5f0;verticalAlign=middle;aspect=fixed;imageAspect=0;image=data:image/png,iVBORw0KGgoAAAANSUhEUgAAAGAAAABgCAYAAADimHc4AAAAAXNSR0IArs4c6QAAAyxJREFUeF7tnQFuE0EMRd2bwE3gJMBJgJMAJ4GbtDcBDElbUTZj+3tlbfJWilopY8/mvfFss1PN3hnHKIG70d7p3BAwPAgQgIBhAsPdUwEIGCYw3D0VcEABr8zsnZm9Ob2GP8J49w9mdn59Pv0ePqlsBXz8nflTOPvtNXQRX83MRYSOjIDvjPgQU2/0w8zeRlpHBbw3sy+RhLR5JOAzxbISIgJ8zr8HbJqAT0cfTtWwGRwRwLyfZh+vgogAn3p8CuLIE1heCyICfPrxaYgjT8CnodeXwiICfi76jeTIn/pxIiQ+EXhSB8fhWD5TiQ8CytwfAxGgM5QyIEDCpwcjQGcoZUCAhE8PRoDOUMqAAAmfHowAnaGUAQESPj0YATpDKcO4AOnsbyD44t2GyK0IliLro6TldjTrAXUBvkDvq2KbR6QCWJKsC/C1AF8TkAR4MMuSeQk+8r0CLh6RCjgnQMKK5tP7IfjePCOASogJCMOvCPCY1d+9sdO83lapQZ1qfGK2ElDJeSQdrZ+/Aqv1BI5Efo8BiID8CGgdgAhAQJ7AcAQVgIC+L3fDLEvdUwElbH1BCOhjWcqEgBK2viAE9LEsZUJACVtf0NULWH1AFWXly+fzPlfnl8qfarzHvZD/0Fx9QAQsCFSkZkYYAhBwkUBqAKYaMwX9IbCaIlNMU40RgAB1/vf4yqDLXKNS+VONqYDbqICOUb5njqu/BuwJryM3AjooCjkQIMDrCEVAB0UhBwIEeB2hCOigKORAgACvIxQBHRSFHAgQ4HWEIqCDopADAQK8jlAEdFAUciBAgNcRioAOikIOBAjwOkIR0EFRyIEAAV5HKAI6KAo5ECDA6whFQAdFIQcCBHgdoQjooCjkQIAAryN0XAAPdLisMfXPbqnGp37ZQ25bwHKLsn9DKwLYuGlbQOjRVc/DKwLYQ25bgD+8zXdKDB8VAZ6cB7u9RJzaKescXhXg8Wxn+SRhuT/oVkkoAjwn14O/DzddPrJwLwGe168JLsJ/+iNur/04P7rWR/231b6gKxhqBazy8/6CAAKGhwgCEDBMYLh7KgABwwSGu6cCEDBMYLj7X742rWFXFRDSAAAAAElFTkSuQmCC;labelPosition=center;align=center;fontSize=5;fillOpacity=100;labelBorderColor=none;" parent="1" vertex="1">
          <mxGeometry x="999" y="1375" width="30" height="30" as="geometry" />
        </mxCell>
        <mxCell id="TWipIhk7hS3ImqUsRo4q-15" value="" style="endArrow=none;html=1;rounded=0;fillColor=#f5f5f5;strokeColor=#666666;strokeWidth=15;strokeOpacity=50;entryX=0.5;entryY=1;entryDx=0;entryDy=0;fillOpacity=100;align=center;verticalAlign=middle;fontFamily=Helvetica;fontSize=11;fontColor=default;labelBackgroundColor=default;" parent="1" target="TWipIhk7hS3ImqUsRo4q-18" edge="1">
          <mxGeometry width="50" height="50" relative="1" as="geometry">
            <mxPoint x="1021.5" y="1300" as="sourcePoint" />
            <mxPoint x="1053.83" y="1240" as="targetPoint" />
            <Array as="points">
              <mxPoint x="1053.83" y="1300" />
            </Array>
          </mxGeometry>
        </mxCell>
        <mxCell id="TWipIhk7hS3ImqUsRo4q-16" value="" style="shape=image;verticalLabelPosition=top;labelBackgroundColor=default;verticalAlign=bottom;aspect=fixed;imageAspect=0;image=data:image/png,iVBORw0KGgoAAAANSUhEUgAAAGAAAABgCAYAAADimHc4AAAAAXNSR0IArs4c6QAABYhJREFUeF7tXIux1DAMzKsEqASoBKgEqASoBKgEqARY5sT4crnsSrajvHnKzJuDOXtl7Vq2/Mk9LPWkMvCQar2MLyVAcicoAUqAZAaSzVcElADJDCSbrwgoAZIZSDZfEVACJDOQbL4ioARIZiDZfEVACZDMQLL5ioAnLMDzZVnw93JZlleXf+P/Py+c4BN/3/9+9znAE7DerLABMwo/0KTbKhkRYMR8cHgA0r4ty/KxIZBVh50frFAjthdfhN4vdrQA7/82x0P8uvUQAtEAIZTn7bIsn5SCjRAefAf0dtGjBEBvBBEYakY8EOK1GA2wCyE8jwffg3tT9ggBQP7Xyxjf1dhVZZUkz1DUmlDxu3yaLcAs8s1plaRIFMCGih8WYbYA6Pmjhp17ToKkF4SBaBSYCAz/lAL0TrgepzBxviMVolEAWAXf097/ZWdFgKfHWWaDfB+poK0P8AkR8ckeZahAJCIiI4+CH8Gddi1F7W1ISfdSSs+agfVST6fYIpPhn0qA30JrkEaixyuP0nuVuaBnTlLwFV+uyswYgpTFT6Q3KXMKE1XB2COR4Z9CADb8RHuSsphjwiqRtEciwz+FACzM2bi/5wTrwRjS0EvvPb0CMPxTCIANsL3MBeliZHcTzjECWXT1TsQM/xQCsAkYixrbEvY2mBHICGL1WXsYPqt/8/2MSXimAHCA4TOfWH1GIsNn9adnQWwI6skkWIbFeuiTiICahB0xMDScLnZnpaGAZ+KyNJFFEKOO4bP6h8wBLFNBIyKOMGGByzKsXgEY/ikEUMdZjzOKqHCeRTSLIEYgw2f1D4kAGFF6K8opizK2+DKnlKjqyYAU/NMIoEYBGozMxW47tNvRuK6CIUPZjgYOW1/0Dj8M302+ErIh0Esltef22LC6SiSpUbnVHgU/5MfwMa1phbJ5Fmr0qpKyP+OJyHWbFPywHzMFQKOOOJRXzmujvZ8t7MLEW8XZAswUAeQgk1IOdSKTrwc/LMQRApgIIy9meYaFSOrpwQ+TP3sSXjfMc76755RnQoxkPh78LvKPFsAaGxXCS4x34vXid5OfJUArBFa4yPfbqyjt9XEMBb+CBzjAnIn/6AUY4sBjBzlqEn7sPE1rfwkwjVoNuATQeJpW6kgBbKLFpGtrA9toW3+2EzHK2v9xf9ReV5pBCiZtZWE3zPZMASwDweeMK+r2El/Pi3xrIm3dMAN7U7SRAlh+j0/vK0EjepRFRvStyjY93nqjx/C/jIySXgGM9Fm9vEcYu/auvtDX2mKLxR7sK5+iArAG9hA3um605yrb6SYEoiJ02cwrgL00kTHEjBAGx4qeIUTdzoiKTA+x2bg4gpQMDM8bL+qFAPPDtY2tRMCRR4tHiuEZx70cyNhMgOhJ0j0iLb2zTbZ7+f7W+uDZZdPOfldilFjKbQd1KFq3iUbangDe0NsixHqCvYA3irR2UTciA1O2oqOdcVeEewL0kI/ebT98MYpwhmNbz/brKKz8Vk9lx5vRKLCV/OZPK9wTwKu2POZ5mQmUtxTZc6cIZpRjyMjxprmwOdTdE0A9xLZLVdE3XgL8ylW8UaFkL97JuG3sJv6WAErvp5OLTNMxBdXrMWwu6Bma4ekNfkQAJVSPodVnRVnZMt96BbjB3xKAveHiudXso2h+aUYgu4jVMxHbZHx1kWxLADb+T7mkOp/7fxYYgUwAYDB+mCtXnEcEYIs31oDs7xmBzD9Wn/lXAhCGSgDWhTq/Zz349AJ0+n/66iVAskQlQAmQzECy+YqAEiCZgWTzFQElQDIDyebTIyDZ/6dlnqn9tNhI8LYESCC9NVkClADJDCSbrwgoAZIZSDZfEVACJDOQbL4ioARIZiDZfEVACZDMQLL5ioASIJmBZPMVAckC/AELVlVwx5VYugAAAABJRU5ErkJggg==;imageBorder=none;labelPosition=center;align=center;" parent="1" vertex="1">
          <mxGeometry x="1074" y="1200" width="40" height="40" as="geometry" />
        </mxCell>
        <mxCell id="TWipIhk7hS3ImqUsRo4q-17" value="" style="shape=image;verticalLabelPosition=top;labelBackgroundColor=default;verticalAlign=bottom;aspect=fixed;imageAspect=0;image=data:image/png,iVBORw0KGgoAAAANSUhEUgAAAGAAAABgCAYAAADimHc4AAAAAXNSR0IArs4c6QAABYhJREFUeF7tXIux1DAMzKsEqASoBKgEqASoBKgEqARY5sT4crnsSrajvHnKzJuDOXtl7Vq2/Mk9LPWkMvCQar2MLyVAcicoAUqAZAaSzVcElADJDCSbrwgoAZIZSDZfEVACJDOQbL4ioARIZiDZfEVACZDMQLL5ioAnLMDzZVnw93JZlleXf+P/Py+c4BN/3/9+9znAE7DerLABMwo/0KTbKhkRYMR8cHgA0r4ty/KxIZBVh50frFAjthdfhN4vdrQA7/82x0P8uvUQAtEAIZTn7bIsn5SCjRAefAf0dtGjBEBvBBEYakY8EOK1GA2wCyE8jwffg3tT9ggBQP7Xyxjf1dhVZZUkz1DUmlDxu3yaLcAs8s1plaRIFMCGih8WYbYA6Pmjhp17ToKkF4SBaBSYCAz/lAL0TrgepzBxviMVolEAWAXf097/ZWdFgKfHWWaDfB+poK0P8AkR8ckeZahAJCIiI4+CH8Gddi1F7W1ISfdSSs+agfVST6fYIpPhn0qA30JrkEaixyuP0nuVuaBnTlLwFV+uyswYgpTFT6Q3KXMKE1XB2COR4Z9CADb8RHuSsphjwiqRtEciwz+FACzM2bi/5wTrwRjS0EvvPb0CMPxTCIANsL3MBeliZHcTzjECWXT1TsQM/xQCsAkYixrbEvY2mBHICGL1WXsYPqt/8/2MSXimAHCA4TOfWH1GIsNn9adnQWwI6skkWIbFeuiTiICahB0xMDScLnZnpaGAZ+KyNJFFEKOO4bP6h8wBLFNBIyKOMGGByzKsXgEY/ikEUMdZjzOKqHCeRTSLIEYgw2f1D4kAGFF6K8opizK2+DKnlKjqyYAU/NMIoEYBGozMxW47tNvRuK6CIUPZjgYOW1/0Dj8M302+ErIh0Esltef22LC6SiSpUbnVHgU/5MfwMa1phbJ5Fmr0qpKyP+OJyHWbFPywHzMFQKOOOJRXzmujvZ8t7MLEW8XZAswUAeQgk1IOdSKTrwc/LMQRApgIIy9meYaFSOrpwQ+TP3sSXjfMc76755RnQoxkPh78LvKPFsAaGxXCS4x34vXid5OfJUArBFa4yPfbqyjt9XEMBb+CBzjAnIn/6AUY4sBjBzlqEn7sPE1rfwkwjVoNuATQeJpW6kgBbKLFpGtrA9toW3+2EzHK2v9xf9ReV5pBCiZtZWE3zPZMASwDweeMK+r2El/Pi3xrIm3dMAN7U7SRAlh+j0/vK0EjepRFRvStyjY93nqjx/C/jIySXgGM9Fm9vEcYu/auvtDX2mKLxR7sK5+iArAG9hA3um605yrb6SYEoiJ02cwrgL00kTHEjBAGx4qeIUTdzoiKTA+x2bg4gpQMDM8bL+qFAPPDtY2tRMCRR4tHiuEZx70cyNhMgOhJ0j0iLb2zTbZ7+f7W+uDZZdPOfldilFjKbQd1KFq3iUbangDe0NsixHqCvYA3irR2UTciA1O2oqOdcVeEewL0kI/ebT98MYpwhmNbz/brKKz8Vk9lx5vRKLCV/OZPK9wTwKu2POZ5mQmUtxTZc6cIZpRjyMjxprmwOdTdE0A9xLZLVdE3XgL8ylW8UaFkL97JuG3sJv6WAErvp5OLTNMxBdXrMWwu6Bma4ekNfkQAJVSPodVnRVnZMt96BbjB3xKAveHiudXso2h+aUYgu4jVMxHbZHx1kWxLADb+T7mkOp/7fxYYgUwAYDB+mCtXnEcEYIs31oDs7xmBzD9Wn/lXAhCGSgDWhTq/Zz349AJ0+n/66iVAskQlQAmQzECy+YqAEiCZgWTzFQElQDIDyebTIyDZ/6dlnqn9tNhI8LYESCC9NVkClADJDCSbrwgoAZIZSDZfEVACJDOQbL4ioARIZiDZfEVACZDMQLL5ioASIJmBZPMVAckC/AELVlVwx5VYugAAAABJRU5ErkJggg==;imageBorder=none;labelPosition=center;align=center;" parent="1" vertex="1">
          <mxGeometry x="994" y="1200" width="40" height="40" as="geometry" />
        </mxCell>
        <mxCell id="TWipIhk7hS3ImqUsRo4q-18" value="" style="shape=image;verticalLabelPosition=top;labelBackgroundColor=default;verticalAlign=bottom;aspect=fixed;imageAspect=0;image=data:image/png,iVBORw0KGgoAAAANSUhEUgAAAGAAAABgCAYAAADimHc4AAAAAXNSR0IArs4c6QAABJNJREFUeF7tnI2NFDEMhXOVAJUAlQCVAJUAlQCVAJXAPjSWRqu9sR2/jD2SRzoN6PL7PjtxMsk9jX5SFXhKrb0rHw0g2QgaQANIViC5+vaABpCsQHL17QENIFmB5OrbAxpAsgLJ1bcHNIBkBZKrbw9oAMkKJFffHtAAzAq8HGPg5/UY4832b/z/91YC3vj5efvdV3OpyQmv4AEQ+d1Np08OrQDixxjj8w6QI/t5SasD+OgU/l45gIA3AETJpyoAWP2XbahhCAcQbyt6Q0UAEP/7NsYzxJcySkKoBmCV+GUhVAMAy0eEs/KBJ7xaWYGn7EoAohOup9+YmD94MqxKWwUAhp5fxk5KZIN4H6GmrA/wBkS8tafMfFAFACKe95pqW0h6FFJ61gwlvKAKgL8G8RFGwuItD+YRzCdHT4m5oAIAWD484OiZsVbLnOKBagHvTlMBgDb8zFqqZTE3A9Yt8lGGCgC00BN7QLNbCZoXYEiDF6Q9FQAg+jmKXBAuzu5uanPBrHfRgFUAoE3AWDTJlrO341p42wBusftKAACmlZ9qhKmVb+asDUGRSEWLsNoDtnj9aP+nJ2HvwOtMvyoMRTO0CKvD0G33U1u1zgilgQWgSITltLPHySvMAVqkIi33iKWFn1Jmev/TG7ApYbFWJLXMB9riS8Sf8SqK1e8LqQLA6gVoOyIXOe2w347GcRVEPZbtaJQTWV/QQFQBgA5ZLZfReYsnMepRy6gEwLJ5pnbIkCB9/6fiECRtOuOjfJnvweh0JQ9YDQFzByIp60cdgzPFk1QEgF6xh6NSw07lIWjfNs/33SNTLDPhPmpkVQ9ggCgtfJmVoGMUhUdghYt4f38UZX88HUPNn8AHHEdzOEmv4AGcnhYtpQEkg2kADSBZgeTqK3vA/k6YrA1ko+3+vZ+IZcMOb5wfletKyVI/rr4SAIlw8F5xRF0u8ZW6yJcJQBZaeFsO5rItWDwj9Vbl2QBE9FVWHoGUcqHvLACsbYWIwNa84hnfzti4Ww1ALk1kDDFWwY/S4bPlUhCrAKze12eI6ylj2Y2aFQDO/LToETGadskcwQZgPd1gFUNCR9lkey7ef7Q+eLFt2snflbDWqaWjnqZgArCexTnq4P0FPE0M6+/3izpGBEbb6mYBiIgP65Y/rGEVNJpOtrbxR0BmFn20z5ssAN6hZ8l4OklFQmTPmSJURfnMyQKgncEXbeRQ1eyNl0mNTdm8XkHxAgYAi/UvC+NM0voTWcPo8FxwBgCKq/o1DOewnMwI940BQLvh4jnVHFaNXIAWXIRv2DAAaON/iUOwk2C0Q8OXAMCAPKkfJZtmYKH+hTJv3VvaQIqEsUKW9q8B6HAuD0Dv4rVThIw4lNk4BF1bXr31IQ1DmRvAfwVCGoYyN4AGoA8Q61OEjDiUuT2gPWC9fes1hIw4lLk9oIYH6DbSKZ5VgOEBLW9AgQYQEI+RtQEwVAyU0QAC4jGyNgCGioEyGkBAPEbWBsBQMVBGAwiIx8jaABgqBspoAAHxGFkbAEPFQBkNICAeI2sDYKgYKKMBBMRjZG0ADBUDZfwDcOHOYb3HQm8AAAAASUVORK5CYII=;imageBorder=none;labelPosition=center;align=center;" parent="1" vertex="1">
          <mxGeometry x="1034" y="1200" width="40" height="40" as="geometry" />
        </mxCell>
        <mxCell id="TWipIhk7hS3ImqUsRo4q-19" value="" style="shape=image;verticalLabelPosition=top;labelBackgroundColor=default;verticalAlign=bottom;aspect=fixed;imageAspect=0;image=data:image/png,iVBORw0KGgoAAAANSUhEUgAAAGAAAABgCAYAAADimHc4AAAAAXNSR0IArs4c6QAABJNJREFUeF7tnI2NFDEMhXOVAJUAlQCVAJUAlQCVAJXAPjSWRqu9sR2/jD2SRzoN6PL7PjtxMsk9jX5SFXhKrb0rHw0g2QgaQANIViC5+vaABpCsQHL17QENIFmB5OrbAxpAsgLJ1bcHNIBkBZKrbw9oAMkKJFffHtAAzAq8HGPg5/UY4832b/z/91YC3vj5efvdV3OpyQmv4AEQ+d1Np08OrQDixxjj8w6QI/t5SasD+OgU/l45gIA3AETJpyoAWP2XbahhCAcQbyt6Q0UAEP/7NsYzxJcySkKoBmCV+GUhVAMAy0eEs/KBJ7xaWYGn7EoAohOup9+YmD94MqxKWwUAhp5fxk5KZIN4H6GmrA/wBkS8tafMfFAFACKe95pqW0h6FFJ61gwlvKAKgL8G8RFGwuItD+YRzCdHT4m5oAIAWD484OiZsVbLnOKBagHvTlMBgDb8zFqqZTE3A9Yt8lGGCgC00BN7QLNbCZoXYEiDF6Q9FQAg+jmKXBAuzu5uanPBrHfRgFUAoE3AWDTJlrO341p42wBusftKAACmlZ9qhKmVb+asDUGRSEWLsNoDtnj9aP+nJ2HvwOtMvyoMRTO0CKvD0G33U1u1zgilgQWgSITltLPHySvMAVqkIi33iKWFn1Jmev/TG7ApYbFWJLXMB9riS8Sf8SqK1e8LqQLA6gVoOyIXOe2w347GcRVEPZbtaJQTWV/QQFQBgA5ZLZfReYsnMepRy6gEwLJ5pnbIkCB9/6fiECRtOuOjfJnvweh0JQ9YDQFzByIp60cdgzPFk1QEgF6xh6NSw07lIWjfNs/33SNTLDPhPmpkVQ9ggCgtfJmVoGMUhUdghYt4f38UZX88HUPNn8AHHEdzOEmv4AGcnhYtpQEkg2kADSBZgeTqK3vA/k6YrA1ko+3+vZ+IZcMOb5wfletKyVI/rr4SAIlw8F5xRF0u8ZW6yJcJQBZaeFsO5rItWDwj9Vbl2QBE9FVWHoGUcqHvLACsbYWIwNa84hnfzti4Ww1ALk1kDDFWwY/S4bPlUhCrAKze12eI6ylj2Y2aFQDO/LToETGadskcwQZgPd1gFUNCR9lkey7ef7Q+eLFt2snflbDWqaWjnqZgArCexTnq4P0FPE0M6+/3izpGBEbb6mYBiIgP65Y/rGEVNJpOtrbxR0BmFn20z5ssAN6hZ8l4OklFQmTPmSJURfnMyQKgncEXbeRQ1eyNl0mNTdm8XkHxAgYAi/UvC+NM0voTWcPo8FxwBgCKq/o1DOewnMwI940BQLvh4jnVHFaNXIAWXIRv2DAAaON/iUOwk2C0Q8OXAMCAPKkfJZtmYKH+hTJv3VvaQIqEsUKW9q8B6HAuD0Dv4rVThIw4lNk4BF1bXr31IQ1DmRvAfwVCGoYyN4AGoA8Q61OEjDiUuT2gPWC9fes1hIw4lLk9oIYH6DbSKZ5VgOEBLW9AgQYQEI+RtQEwVAyU0QAC4jGyNgCGioEyGkBAPEbWBsBQMVBGAwiIx8jaABgqBspoAAHxGFkbAEPFQBkNICAeI2sDYKgYKKMBBMRjZG0ADBUDZfwDcOHOYb3HQm8AAAAASUVORK5CYII=;imageBorder=none;labelPosition=center;align=center;" parent="1" vertex="1">
          <mxGeometry x="1194" y="1200" width="40" height="40" as="geometry" />
        </mxCell>
        <mxCell id="TWipIhk7hS3ImqUsRo4q-20" value="&lt;span style=&quot;font-family: Helvetica; font-size: 8px; font-style: normal; font-variant-ligatures: normal; font-variant-caps: normal; font-weight: 700; letter-spacing: normal; orphans: 2; text-indent: 0px; text-transform: none; widows: 2; word-spacing: 0px; -webkit-text-stroke-width: 0px; white-space: normal; background-color: rgb(251, 251, 251); text-decoration-thickness: initial; text-decoration-style: initial; text-decoration-color: initial; float: none; display: inline !important;&quot;&gt;Mesh of interconnected data products&lt;/span&gt;" style="text;whiteSpace=wrap;html=1;fontColor=#9673A6;fontSize=8;verticalAlign=middle;align=center;" parent="1" vertex="1">
          <mxGeometry x="1364" y="1380" width="170" height="20" as="geometry" />
        </mxCell>
        <mxCell id="TWipIhk7hS3ImqUsRo4q-21" value="" style="shape=image;verticalLabelPosition=top;labelBackgroundColor=default;verticalAlign=bottom;aspect=fixed;imageAspect=0;image=data:image/png,iVBORw0KGgoAAAANSUhEUgAAAGAAAABgCAYAAADimHc4AAAAAXNSR0IArs4c6QAABYhJREFUeF7tXIux1DAMzKsEqASoBKgEqASoBKgEqARY5sT4crnsSrajvHnKzJuDOXtl7Vq2/Mk9LPWkMvCQar2MLyVAcicoAUqAZAaSzVcElADJDCSbrwgoAZIZSDZfEVACJDOQbL4ioARIZiDZfEVACZDMQLL5ioAnLMDzZVnw93JZlleXf+P/Py+c4BN/3/9+9znAE7DerLABMwo/0KTbKhkRYMR8cHgA0r4ty/KxIZBVh50frFAjthdfhN4vdrQA7/82x0P8uvUQAtEAIZTn7bIsn5SCjRAefAf0dtGjBEBvBBEYakY8EOK1GA2wCyE8jwffg3tT9ggBQP7Xyxjf1dhVZZUkz1DUmlDxu3yaLcAs8s1plaRIFMCGih8WYbYA6Pmjhp17ToKkF4SBaBSYCAz/lAL0TrgepzBxviMVolEAWAXf097/ZWdFgKfHWWaDfB+poK0P8AkR8ckeZahAJCIiI4+CH8Gddi1F7W1ISfdSSs+agfVST6fYIpPhn0qA30JrkEaixyuP0nuVuaBnTlLwFV+uyswYgpTFT6Q3KXMKE1XB2COR4Z9CADb8RHuSsphjwiqRtEciwz+FACzM2bi/5wTrwRjS0EvvPb0CMPxTCIANsL3MBeliZHcTzjECWXT1TsQM/xQCsAkYixrbEvY2mBHICGL1WXsYPqt/8/2MSXimAHCA4TOfWH1GIsNn9adnQWwI6skkWIbFeuiTiICahB0xMDScLnZnpaGAZ+KyNJFFEKOO4bP6h8wBLFNBIyKOMGGByzKsXgEY/ikEUMdZjzOKqHCeRTSLIEYgw2f1D4kAGFF6K8opizK2+DKnlKjqyYAU/NMIoEYBGozMxW47tNvRuK6CIUPZjgYOW1/0Dj8M302+ErIh0Esltef22LC6SiSpUbnVHgU/5MfwMa1phbJ5Fmr0qpKyP+OJyHWbFPywHzMFQKOOOJRXzmujvZ8t7MLEW8XZAswUAeQgk1IOdSKTrwc/LMQRApgIIy9meYaFSOrpwQ+TP3sSXjfMc76755RnQoxkPh78LvKPFsAaGxXCS4x34vXid5OfJUArBFa4yPfbqyjt9XEMBb+CBzjAnIn/6AUY4sBjBzlqEn7sPE1rfwkwjVoNuATQeJpW6kgBbKLFpGtrA9toW3+2EzHK2v9xf9ReV5pBCiZtZWE3zPZMASwDweeMK+r2El/Pi3xrIm3dMAN7U7SRAlh+j0/vK0EjepRFRvStyjY93nqjx/C/jIySXgGM9Fm9vEcYu/auvtDX2mKLxR7sK5+iArAG9hA3um605yrb6SYEoiJ02cwrgL00kTHEjBAGx4qeIUTdzoiKTA+x2bg4gpQMDM8bL+qFAPPDtY2tRMCRR4tHiuEZx70cyNhMgOhJ0j0iLb2zTbZ7+f7W+uDZZdPOfldilFjKbQd1KFq3iUbangDe0NsixHqCvYA3irR2UTciA1O2oqOdcVeEewL0kI/ebT98MYpwhmNbz/brKKz8Vk9lx5vRKLCV/OZPK9wTwKu2POZ5mQmUtxTZc6cIZpRjyMjxprmwOdTdE0A9xLZLVdE3XgL8ylW8UaFkL97JuG3sJv6WAErvp5OLTNMxBdXrMWwu6Bma4ekNfkQAJVSPodVnRVnZMt96BbjB3xKAveHiudXso2h+aUYgu4jVMxHbZHx1kWxLADb+T7mkOp/7fxYYgUwAYDB+mCtXnEcEYIs31oDs7xmBzD9Wn/lXAhCGSgDWhTq/Zz349AJ0+n/66iVAskQlQAmQzECy+YqAEiCZgWTzFQElQDIDyebTIyDZ/6dlnqn9tNhI8LYESCC9NVkClADJDCSbrwgoAZIZSDZfEVACJDOQbL4ioARIZiDZfEVACZDMQLL5ioASIJmBZPMVAckC/AELVlVwx5VYugAAAABJRU5ErkJggg==;imageBorder=none;labelPosition=center;align=center;" parent="1" vertex="1">
          <mxGeometry x="1154" y="1200" width="40" height="40" as="geometry" />
        </mxCell>
        <mxCell id="TWipIhk7hS3ImqUsRo4q-22" value="" style="shape=image;verticalLabelPosition=top;labelBackgroundColor=default;verticalAlign=bottom;aspect=fixed;imageAspect=0;image=data:image/png,iVBORw0KGgoAAAANSUhEUgAAAGAAAABgCAYAAADimHc4AAAAAXNSR0IArs4c6QAABYhJREFUeF7tXIux1DAMzKsEqASoBKgEqASoBKgEqARY5sT4crnsSrajvHnKzJuDOXtl7Vq2/Mk9LPWkMvCQar2MLyVAcicoAUqAZAaSzVcElADJDCSbrwgoAZIZSDZfEVACJDOQbL4ioARIZiDZfEVACZDMQLL5ioAnLMDzZVnw93JZlleXf+P/Py+c4BN/3/9+9znAE7DerLABMwo/0KTbKhkRYMR8cHgA0r4ty/KxIZBVh50frFAjthdfhN4vdrQA7/82x0P8uvUQAtEAIZTn7bIsn5SCjRAefAf0dtGjBEBvBBEYakY8EOK1GA2wCyE8jwffg3tT9ggBQP7Xyxjf1dhVZZUkz1DUmlDxu3yaLcAs8s1plaRIFMCGih8WYbYA6Pmjhp17ToKkF4SBaBSYCAz/lAL0TrgepzBxviMVolEAWAXf097/ZWdFgKfHWWaDfB+poK0P8AkR8ckeZahAJCIiI4+CH8Gddi1F7W1ISfdSSs+agfVST6fYIpPhn0qA30JrkEaixyuP0nuVuaBnTlLwFV+uyswYgpTFT6Q3KXMKE1XB2COR4Z9CADb8RHuSsphjwiqRtEciwz+FACzM2bi/5wTrwRjS0EvvPb0CMPxTCIANsL3MBeliZHcTzjECWXT1TsQM/xQCsAkYixrbEvY2mBHICGL1WXsYPqt/8/2MSXimAHCA4TOfWH1GIsNn9adnQWwI6skkWIbFeuiTiICahB0xMDScLnZnpaGAZ+KyNJFFEKOO4bP6h8wBLFNBIyKOMGGByzKsXgEY/ikEUMdZjzOKqHCeRTSLIEYgw2f1D4kAGFF6K8opizK2+DKnlKjqyYAU/NMIoEYBGozMxW47tNvRuK6CIUPZjgYOW1/0Dj8M302+ErIh0Esltef22LC6SiSpUbnVHgU/5MfwMa1phbJ5Fmr0qpKyP+OJyHWbFPywHzMFQKOOOJRXzmujvZ8t7MLEW8XZAswUAeQgk1IOdSKTrwc/LMQRApgIIy9meYaFSOrpwQ+TP3sSXjfMc76755RnQoxkPh78LvKPFsAaGxXCS4x34vXid5OfJUArBFa4yPfbqyjt9XEMBb+CBzjAnIn/6AUY4sBjBzlqEn7sPE1rfwkwjVoNuATQeJpW6kgBbKLFpGtrA9toW3+2EzHK2v9xf9ReV5pBCiZtZWE3zPZMASwDweeMK+r2El/Pi3xrIm3dMAN7U7SRAlh+j0/vK0EjepRFRvStyjY93nqjx/C/jIySXgGM9Fm9vEcYu/auvtDX2mKLxR7sK5+iArAG9hA3um605yrb6SYEoiJ02cwrgL00kTHEjBAGx4qeIUTdzoiKTA+x2bg4gpQMDM8bL+qFAPPDtY2tRMCRR4tHiuEZx70cyNhMgOhJ0j0iLb2zTbZ7+f7W+uDZZdPOfldilFjKbQd1KFq3iUbangDe0NsixHqCvYA3irR2UTciA1O2oqOdcVeEewL0kI/ebT98MYpwhmNbz/brKKz8Vk9lx5vRKLCV/OZPK9wTwKu2POZ5mQmUtxTZc6cIZpRjyMjxprmwOdTdE0A9xLZLVdE3XgL8ylW8UaFkL97JuG3sJv6WAErvp5OLTNMxBdXrMWwu6Bma4ekNfkQAJVSPodVnRVnZMt96BbjB3xKAveHiudXso2h+aUYgu4jVMxHbZHx1kWxLADb+T7mkOp/7fxYYgUwAYDB+mCtXnEcEYIs31oDs7xmBzD9Wn/lXAhCGSgDWhTq/Zz349AJ0+n/66iVAskQlQAmQzECy+YqAEiCZgWTzFQElQDIDyebTIyDZ/6dlnqn9tNhI8LYESCC9NVkClADJDCSbrwgoAZIZSDZfEVACJDOQbL4ioARIZiDZfEVACZDMQLL5ioASIJmBZPMVAckC/AELVlVwx5VYugAAAABJRU5ErkJggg==;imageBorder=none;labelPosition=center;align=center;" parent="1" vertex="1">
          <mxGeometry x="1274" y="1200" width="40" height="40" as="geometry" />
        </mxCell>
        <mxCell id="TWipIhk7hS3ImqUsRo4q-23" style="edgeStyle=none;shape=connector;rounded=0;orthogonalLoop=1;jettySize=auto;html=1;entryX=0.5;entryY=1;entryDx=0;entryDy=0;strokeColor=#666666;strokeWidth=15;align=center;verticalAlign=middle;fontFamily=Helvetica;fontSize=11;fontColor=default;labelBackgroundColor=default;endArrow=none;fillColor=#f5f5f5;strokeOpacity=50;exitX=0.5;exitY=0;exitDx=0;exitDy=0;fillOpacity=100;" parent="1" source="TWipIhk7hS3ImqUsRo4q-31" target="TWipIhk7hS3ImqUsRo4q-21" edge="1">
          <mxGeometry relative="1" as="geometry">
            <mxPoint x="1134" y="1380" as="sourcePoint" />
            <mxPoint x="1104" y="1250" as="targetPoint" />
            <Array as="points">
              <mxPoint x="1134" y="1300" />
              <mxPoint x="1174" y="1300" />
            </Array>
          </mxGeometry>
        </mxCell>
        <mxCell id="TWipIhk7hS3ImqUsRo4q-24" value="" style="endArrow=none;html=1;rounded=0;fillColor=#f5f5f5;strokeColor=#666666;strokeWidth=15;strokeOpacity=50;entryX=0.5;entryY=1;entryDx=0;entryDy=0;exitX=0.5;exitY=0;exitDx=0;exitDy=0;fillOpacity=100;align=center;verticalAlign=middle;fontFamily=Helvetica;fontSize=11;fontColor=default;labelBackgroundColor=default;" parent="1" source="TWipIhk7hS3ImqUsRo4q-9" target="TWipIhk7hS3ImqUsRo4q-31" edge="1">
          <mxGeometry width="50" height="50" relative="1" as="geometry">
            <mxPoint x="1034" y="1490" as="sourcePoint" />
            <mxPoint x="1134" y="1400" as="targetPoint" />
            <Array as="points">
              <mxPoint x="1094" y="1480" />
              <mxPoint x="1134" y="1480" />
            </Array>
          </mxGeometry>
        </mxCell>
        <mxCell id="TWipIhk7hS3ImqUsRo4q-25" value="" style="endArrow=none;html=1;rounded=0;fillColor=#f5f5f5;strokeColor=#666666;strokeWidth=15;strokeOpacity=50;entryX=0.5;entryY=1;entryDx=0;entryDy=0;exitX=0.5;exitY=0;exitDx=0;exitDy=0;fillOpacity=100;align=center;verticalAlign=middle;fontFamily=Helvetica;fontSize=11;fontColor=default;labelBackgroundColor=default;" parent="1" source="TWipIhk7hS3ImqUsRo4q-10" target="TWipIhk7hS3ImqUsRo4q-32" edge="1">
          <mxGeometry width="50" height="50" relative="1" as="geometry">
            <mxPoint x="1154" y="1555" as="sourcePoint" />
            <mxPoint x="1214" y="1400" as="targetPoint" />
            <Array as="points">
              <mxPoint x="1174" y="1480" />
              <mxPoint x="1214" y="1480" />
            </Array>
          </mxGeometry>
        </mxCell>
        <mxCell id="TWipIhk7hS3ImqUsRo4q-26" style="edgeStyle=none;shape=connector;rounded=0;orthogonalLoop=1;jettySize=auto;html=1;entryX=0.5;entryY=1;entryDx=0;entryDy=0;strokeColor=#666666;strokeWidth=15;align=center;verticalAlign=middle;fontFamily=Helvetica;fontSize=11;fontColor=default;labelBackgroundColor=default;endArrow=none;fillColor=#f5f5f5;strokeOpacity=50;exitX=0.5;exitY=0;exitDx=0;exitDy=0;fillOpacity=100;" parent="1" source="TWipIhk7hS3ImqUsRo4q-32" target="TWipIhk7hS3ImqUsRo4q-19" edge="1">
          <mxGeometry relative="1" as="geometry">
            <mxPoint x="1214" y="1380" as="sourcePoint" />
            <mxPoint x="1184" y="1250" as="targetPoint" />
            <Array as="points">
              <mxPoint x="1214" y="1360" />
              <mxPoint x="1214" y="1300" />
            </Array>
          </mxGeometry>
        </mxCell>
        <mxCell id="TWipIhk7hS3ImqUsRo4q-27" value="" style="endArrow=none;html=1;rounded=0;fillColor=#f5f5f5;strokeColor=#666666;strokeWidth=15;strokeOpacity=50;entryX=0.5;entryY=1;entryDx=0;entryDy=0;fillOpacity=100;align=center;verticalAlign=middle;fontFamily=Helvetica;fontSize=11;fontColor=default;labelBackgroundColor=default;" parent="1" target="TWipIhk7hS3ImqUsRo4q-33" edge="1">
          <mxGeometry width="50" height="50" relative="1" as="geometry">
            <mxPoint x="1221.5" y="1480" as="sourcePoint" />
            <mxPoint x="1254" y="1400" as="targetPoint" />
            <Array as="points">
              <mxPoint x="1254" y="1480" />
            </Array>
          </mxGeometry>
        </mxCell>
        <mxCell id="TWipIhk7hS3ImqUsRo4q-28" style="edgeStyle=none;shape=connector;rounded=0;orthogonalLoop=1;jettySize=auto;html=1;entryX=0.5;entryY=1;entryDx=0;entryDy=0;strokeColor=#666666;strokeWidth=15;align=center;verticalAlign=middle;fontFamily=Helvetica;fontSize=11;fontColor=default;labelBackgroundColor=default;endArrow=none;fillColor=#f5f5f5;strokeOpacity=50;exitX=0.5;exitY=0;exitDx=0;exitDy=0;fillOpacity=100;" parent="1" source="TWipIhk7hS3ImqUsRo4q-33" target="TWipIhk7hS3ImqUsRo4q-22" edge="1">
          <mxGeometry relative="1" as="geometry">
            <mxPoint x="1254" y="1380" as="sourcePoint" />
            <mxPoint x="1273.67" y="1260" as="targetPoint" />
            <Array as="points">
              <mxPoint x="1254" y="1340" />
              <mxPoint x="1254" y="1300" />
              <mxPoint x="1294" y="1300" />
            </Array>
          </mxGeometry>
        </mxCell>
        <mxCell id="TWipIhk7hS3ImqUsRo4q-29" style="edgeStyle=none;shape=connector;rounded=0;orthogonalLoop=1;jettySize=auto;html=1;strokeColor=#666666;strokeWidth=15;align=center;verticalAlign=middle;fontFamily=Helvetica;fontSize=11;fontColor=default;labelBackgroundColor=default;endArrow=none;fillColor=#f5f5f5;strokeOpacity=50;exitX=0.5;exitY=0;exitDx=0;exitDy=0;fillOpacity=100;" parent="1" source="TWipIhk7hS3ImqUsRo4q-34" edge="1">
          <mxGeometry relative="1" as="geometry">
            <mxPoint x="1334" y="1380" as="sourcePoint" />
            <mxPoint x="1301.5" y="1300" as="targetPoint" />
            <Array as="points">
              <mxPoint x="1334" y="1350" />
              <mxPoint x="1334" y="1300" />
            </Array>
          </mxGeometry>
        </mxCell>
        <mxCell id="TWipIhk7hS3ImqUsRo4q-30" value="" style="shape=image;verticalLabelPosition=middle;labelBackgroundColor=#ece5f0;verticalAlign=middle;aspect=fixed;imageAspect=0;image=data:image/png,iVBORw0KGgoAAAANSUhEUgAAAGAAAABgCAYAAADimHc4AAAAAXNSR0IArs4c6QAAAyxJREFUeF7tnQFuE0EMRd2bwE3gJMBJgJMAJ4GbtDcBDElbUTZj+3tlbfJWilopY8/mvfFss1PN3hnHKIG70d7p3BAwPAgQgIBhAsPdUwEIGCYw3D0VcEABr8zsnZm9Ob2GP8J49w9mdn59Pv0ePqlsBXz8nflTOPvtNXQRX83MRYSOjIDvjPgQU2/0w8zeRlpHBbw3sy+RhLR5JOAzxbISIgJ8zr8HbJqAT0cfTtWwGRwRwLyfZh+vgogAn3p8CuLIE1heCyICfPrxaYgjT8CnodeXwiICfi76jeTIn/pxIiQ+EXhSB8fhWD5TiQ8CytwfAxGgM5QyIEDCpwcjQGcoZUCAhE8PRoDOUMqAAAmfHowAnaGUAQESPj0YATpDKcO4AOnsbyD44t2GyK0IliLro6TldjTrAXUBvkDvq2KbR6QCWJKsC/C1AF8TkAR4MMuSeQk+8r0CLh6RCjgnQMKK5tP7IfjePCOASogJCMOvCPCY1d+9sdO83lapQZ1qfGK2ElDJeSQdrZ+/Aqv1BI5Efo8BiID8CGgdgAhAQJ7AcAQVgIC+L3fDLEvdUwElbH1BCOhjWcqEgBK2viAE9LEsZUJACVtf0NULWH1AFWXly+fzPlfnl8qfarzHvZD/0Fx9QAQsCFSkZkYYAhBwkUBqAKYaMwX9IbCaIlNMU40RgAB1/vf4yqDLXKNS+VONqYDbqICOUb5njqu/BuwJryM3AjooCjkQIMDrCEVAB0UhBwIEeB2hCOigKORAgACvIxQBHRSFHAgQ4HWEIqCDopADAQK8jlAEdFAUciBAgNcRioAOikIOBAjwOkIR0EFRyIEAAV5HKAI6KAo5ECDA6whFQAdFIQcCBHgdoQjooCjkQIAAryN0XAAPdLisMfXPbqnGp37ZQ25bwHKLsn9DKwLYuGlbQOjRVc/DKwLYQ25bgD+8zXdKDB8VAZ6cB7u9RJzaKescXhXg8Wxn+SRhuT/oVkkoAjwn14O/DzddPrJwLwGe168JLsJ/+iNur/04P7rWR/231b6gKxhqBazy8/6CAAKGhwgCEDBMYLh7KgABwwSGu6cCEDBMYLj7X742rWFXFRDSAAAAAElFTkSuQmCC;labelPosition=center;align=center;fontSize=5;fillOpacity=100;labelBorderColor=none;" parent="1" vertex="1">
          <mxGeometry x="1039" y="1375" width="30" height="30" as="geometry" />
        </mxCell>
        <mxCell id="TWipIhk7hS3ImqUsRo4q-31" value="" style="shape=image;verticalLabelPosition=middle;labelBackgroundColor=#ece5f0;verticalAlign=middle;aspect=fixed;imageAspect=0;image=data:image/png,iVBORw0KGgoAAAANSUhEUgAAAGAAAABgCAYAAADimHc4AAAAAXNSR0IArs4c6QAAAyxJREFUeF7tnQFuE0EMRd2bwE3gJMBJgJMAJ4GbtDcBDElbUTZj+3tlbfJWilopY8/mvfFss1PN3hnHKIG70d7p3BAwPAgQgIBhAsPdUwEIGCYw3D0VcEABr8zsnZm9Ob2GP8J49w9mdn59Pv0ePqlsBXz8nflTOPvtNXQRX83MRYSOjIDvjPgQU2/0w8zeRlpHBbw3sy+RhLR5JOAzxbISIgJ8zr8HbJqAT0cfTtWwGRwRwLyfZh+vgogAn3p8CuLIE1heCyICfPrxaYgjT8CnodeXwiICfi76jeTIn/pxIiQ+EXhSB8fhWD5TiQ8CytwfAxGgM5QyIEDCpwcjQGcoZUCAhE8PRoDOUMqAAAmfHowAnaGUAQESPj0YATpDKcO4AOnsbyD44t2GyK0IliLro6TldjTrAXUBvkDvq2KbR6QCWJKsC/C1AF8TkAR4MMuSeQk+8r0CLh6RCjgnQMKK5tP7IfjePCOASogJCMOvCPCY1d+9sdO83lapQZ1qfGK2ElDJeSQdrZ+/Aqv1BI5Efo8BiID8CGgdgAhAQJ7AcAQVgIC+L3fDLEvdUwElbH1BCOhjWcqEgBK2viAE9LEsZUJACVtf0NULWH1AFWXly+fzPlfnl8qfarzHvZD/0Fx9QAQsCFSkZkYYAhBwkUBqAKYaMwX9IbCaIlNMU40RgAB1/vf4yqDLXKNS+VONqYDbqICOUb5njqu/BuwJryM3AjooCjkQIMDrCEVAB0UhBwIEeB2hCOigKORAgACvIxQBHRSFHAgQ4HWEIqCDopADAQK8jlAEdFAUciBAgNcRioAOikIOBAjwOkIR0EFRyIEAAV5HKAI6KAo5ECDA6whFQAdFIQcCBHgdoQjooCjkQIAAryN0XAAPdLisMfXPbqnGp37ZQ25bwHKLsn9DKwLYuGlbQOjRVc/DKwLYQ25bgD+8zXdKDB8VAZ6cB7u9RJzaKescXhXg8Wxn+SRhuT/oVkkoAjwn14O/DzddPrJwLwGe168JLsJ/+iNur/04P7rWR/231b6gKxhqBazy8/6CAAKGhwgCEDBMYLh7KgABwwSGu6cCEDBMYLj7X742rWFXFRDSAAAAAElFTkSuQmCC;labelPosition=center;align=center;fontSize=5;fillOpacity=100;labelBorderColor=none;" parent="1" vertex="1">
          <mxGeometry x="1119" y="1375" width="30" height="30" as="geometry" />
        </mxCell>
        <mxCell id="TWipIhk7hS3ImqUsRo4q-32" value="" style="shape=image;verticalLabelPosition=middle;labelBackgroundColor=#ece5f0;verticalAlign=middle;aspect=fixed;imageAspect=0;image=data:image/png,iVBORw0KGgoAAAANSUhEUgAAAGAAAABgCAYAAADimHc4AAAAAXNSR0IArs4c6QAAAyxJREFUeF7tnQFuE0EMRd2bwE3gJMBJgJMAJ4GbtDcBDElbUTZj+3tlbfJWilopY8/mvfFss1PN3hnHKIG70d7p3BAwPAgQgIBhAsPdUwEIGCYw3D0VcEABr8zsnZm9Ob2GP8J49w9mdn59Pv0ePqlsBXz8nflTOPvtNXQRX83MRYSOjIDvjPgQU2/0w8zeRlpHBbw3sy+RhLR5JOAzxbISIgJ8zr8HbJqAT0cfTtWwGRwRwLyfZh+vgogAn3p8CuLIE1heCyICfPrxaYgjT8CnodeXwiICfi76jeTIn/pxIiQ+EXhSB8fhWD5TiQ8CytwfAxGgM5QyIEDCpwcjQGcoZUCAhE8PRoDOUMqAAAmfHowAnaGUAQESPj0YATpDKcO4AOnsbyD44t2GyK0IliLro6TldjTrAXUBvkDvq2KbR6QCWJKsC/C1AF8TkAR4MMuSeQk+8r0CLh6RCjgnQMKK5tP7IfjePCOASogJCMOvCPCY1d+9sdO83lapQZ1qfGK2ElDJeSQdrZ+/Aqv1BI5Efo8BiID8CGgdgAhAQJ7AcAQVgIC+L3fDLEvdUwElbH1BCOhjWcqEgBK2viAE9LEsZUJACVtf0NULWH1AFWXly+fzPlfnl8qfarzHvZD/0Fx9QAQsCFSkZkYYAhBwkUBqAKYaMwX9IbCaIlNMU40RgAB1/vf4yqDLXKNS+VONqYDbqICOUb5njqu/BuwJryM3AjooCjkQIMDrCEVAB0UhBwIEeB2hCOigKORAgACvIxQBHRSFHAgQ4HWEIqCDopADAQK8jlAEdFAUciBAgNcRioAOikIOBAjwOkIR0EFRyIEAAV5HKAI6KAo5ECDA6whFQAdFIQcCBHgdoQjooCjkQIAAryN0XAAPdLisMfXPbqnGp37ZQ25bwHKLsn9DKwLYuGlbQOjRVc/DKwLYQ25bgD+8zXdKDB8VAZ6cB7u9RJzaKescXhXg8Wxn+SRhuT/oVkkoAjwn14O/DzddPrJwLwGe168JLsJ/+iNur/04P7rWR/231b6gKxhqBazy8/6CAAKGhwgCEDBMYLh7KgABwwSGu6cCEDBMYLj7X742rWFXFRDSAAAAAElFTkSuQmCC;labelPosition=center;align=center;fontSize=5;fillOpacity=100;labelBorderColor=none;" parent="1" vertex="1">
          <mxGeometry x="1199" y="1375" width="30" height="30" as="geometry" />
        </mxCell>
        <mxCell id="TWipIhk7hS3ImqUsRo4q-33" value="" style="shape=image;verticalLabelPosition=middle;labelBackgroundColor=#ece5f0;verticalAlign=middle;aspect=fixed;imageAspect=0;image=data:image/png,iVBORw0KGgoAAAANSUhEUgAAAGAAAABgCAYAAADimHc4AAAAAXNSR0IArs4c6QAAAyxJREFUeF7tnQFuE0EMRd2bwE3gJMBJgJMAJ4GbtDcBDElbUTZj+3tlbfJWilopY8/mvfFss1PN3hnHKIG70d7p3BAwPAgQgIBhAsPdUwEIGCYw3D0VcEABr8zsnZm9Ob2GP8J49w9mdn59Pv0ePqlsBXz8nflTOPvtNXQRX83MRYSOjIDvjPgQU2/0w8zeRlpHBbw3sy+RhLR5JOAzxbISIgJ8zr8HbJqAT0cfTtWwGRwRwLyfZh+vgogAn3p8CuLIE1heCyICfPrxaYgjT8CnodeXwiICfi76jeTIn/pxIiQ+EXhSB8fhWD5TiQ8CytwfAxGgM5QyIEDCpwcjQGcoZUCAhE8PRoDOUMqAAAmfHowAnaGUAQESPj0YATpDKcO4AOnsbyD44t2GyK0IliLro6TldjTrAXUBvkDvq2KbR6QCWJKsC/C1AF8TkAR4MMuSeQk+8r0CLh6RCjgnQMKK5tP7IfjePCOASogJCMOvCPCY1d+9sdO83lapQZ1qfGK2ElDJeSQdrZ+/Aqv1BI5Efo8BiID8CGgdgAhAQJ7AcAQVgIC+L3fDLEvdUwElbH1BCOhjWcqEgBK2viAE9LEsZUJACVtf0NULWH1AFWXly+fzPlfnl8qfarzHvZD/0Fx9QAQsCFSkZkYYAhBwkUBqAKYaMwX9IbCaIlNMU40RgAB1/vf4yqDLXKNS+VONqYDbqICOUb5njqu/BuwJryM3AjooCjkQIMDrCEVAB0UhBwIEeB2hCOigKORAgACvIxQBHRSFHAgQ4HWEIqCDopADAQK8jlAEdFAUciBAgNcRioAOikIOBAjwOkIR0EFRyIEAAV5HKAI6KAo5ECDA6whFQAdFIQcCBHgdoQjooCjkQIAAryN0XAAPdLisMfXPbqnGp37ZQ25bwHKLsn9DKwLYuGlbQOjRVc/DKwLYQ25bgD+8zXdKDB8VAZ6cB7u9RJzaKescXhXg8Wxn+SRhuT/oVkkoAjwn14O/DzddPrJwLwGe168JLsJ/+iNur/04P7rWR/231b6gKxhqBazy8/6CAAKGhwgCEDBMYLh7KgABwwSGu6cCEDBMYLj7X742rWFXFRDSAAAAAElFTkSuQmCC;labelPosition=center;align=center;fontSize=5;fillOpacity=100;labelBorderColor=none;" parent="1" vertex="1">
          <mxGeometry x="1239" y="1375" width="30" height="30" as="geometry" />
        </mxCell>
        <mxCell id="TWipIhk7hS3ImqUsRo4q-34" value="" style="shape=image;verticalLabelPosition=middle;labelBackgroundColor=#ece5f0;verticalAlign=middle;aspect=fixed;imageAspect=0;image=data:image/png,iVBORw0KGgoAAAANSUhEUgAAAGAAAABgCAYAAADimHc4AAAAAXNSR0IArs4c6QAAAyxJREFUeF7tnQFuE0EMRd2bwE3gJMBJgJMAJ4GbtDcBDElbUTZj+3tlbfJWilopY8/mvfFss1PN3hnHKIG70d7p3BAwPAgQgIBhAsPdUwEIGCYw3D0VcEABr8zsnZm9Ob2GP8J49w9mdn59Pv0ePqlsBXz8nflTOPvtNXQRX83MRYSOjIDvjPgQU2/0w8zeRlpHBbw3sy+RhLR5JOAzxbISIgJ8zr8HbJqAT0cfTtWwGRwRwLyfZh+vgogAn3p8CuLIE1heCyICfPrxaYgjT8CnodeXwiICfi76jeTIn/pxIiQ+EXhSB8fhWD5TiQ8CytwfAxGgM5QyIEDCpwcjQGcoZUCAhE8PRoDOUMqAAAmfHowAnaGUAQESPj0YATpDKcO4AOnsbyD44t2GyK0IliLro6TldjTrAXUBvkDvq2KbR6QCWJKsC/C1AF8TkAR4MMuSeQk+8r0CLh6RCjgnQMKK5tP7IfjePCOASogJCMOvCPCY1d+9sdO83lapQZ1qfGK2ElDJeSQdrZ+/Aqv1BI5Efo8BiID8CGgdgAhAQJ7AcAQVgIC+L3fDLEvdUwElbH1BCOhjWcqEgBK2viAE9LEsZUJACVtf0NULWH1AFWXly+fzPlfnl8qfarzHvZD/0Fx9QAQsCFSkZkYYAhBwkUBqAKYaMwX9IbCaIlNMU40RgAB1/vf4yqDLXKNS+VONqYDbqICOUb5njqu/BuwJryM3AjooCjkQIMDrCEVAB0UhBwIEeB2hCOigKORAgACvIxQBHRSFHAgQ4HWEIqCDopADAQK8jlAEdFAUciBAgNcRioAOikIOBAjwOkIR0EFRyIEAAV5HKAI6KAo5ECDA6whFQAdFIQcCBHgdoQjooCjkQIAAryN0XAAPdLisMfXPbqnGp37ZQ25bwHKLsn9DKwLYuGlbQOjRVc/DKwLYQ25bgD+8zXdKDB8VAZ6cB7u9RJzaKescXhXg8Wxn+SRhuT/oVkkoAjwn14O/DzddPrJwLwGe168JLsJ/+iNur/04P7rWR/231b6gKxhqBazy8/6CAAKGhwgCEDBMYLh7KgABwwSGu6cCEDBMYLj7X742rWFXFRDSAAAAAElFTkSuQmCC;labelPosition=center;align=center;fontSize=5;fillOpacity=100;labelBorderColor=none;" parent="1" vertex="1">
          <mxGeometry x="1319" y="1375" width="30" height="30" as="geometry" />
        </mxCell>
        <mxCell id="TWipIhk7hS3ImqUsRo4q-35" value="" style="endArrow=none;html=1;rounded=0;fillColor=#f5f5f5;strokeColor=#666666;strokeWidth=15;strokeOpacity=50;exitX=0.5;exitY=0;exitDx=0;exitDy=0;entryX=0.5;entryY=1;entryDx=0;entryDy=0;fillOpacity=100;align=center;verticalAlign=middle;fontFamily=Helvetica;fontSize=11;fontColor=default;labelBackgroundColor=default;" parent="1" source="TWipIhk7hS3ImqUsRo4q-8" target="TWipIhk7hS3ImqUsRo4q-14" edge="1">
          <mxGeometry width="50" height="50" relative="1" as="geometry">
            <mxPoint x="1013.7999999999993" y="1540" as="sourcePoint" />
            <mxPoint x="1014" y="1410" as="targetPoint" />
            <Array as="points" />
          </mxGeometry>
        </mxCell>
        <mxCell id="TWipIhk7hS3ImqUsRo4q-36" value="" style="endArrow=none;html=1;rounded=0;fillColor=#f5f5f5;strokeColor=#666666;strokeWidth=15;strokeOpacity=50;fillOpacity=100;entryX=0.5;entryY=1;entryDx=0;entryDy=0;align=center;verticalAlign=middle;fontFamily=Helvetica;fontSize=11;fontColor=default;labelBackgroundColor=default;" parent="1" target="TWipIhk7hS3ImqUsRo4q-30" edge="1">
          <mxGeometry width="50" height="50" relative="1" as="geometry">
            <mxPoint x="1021.5" y="1480" as="sourcePoint" />
            <mxPoint x="1054" y="1410" as="targetPoint" />
            <Array as="points">
              <mxPoint x="1053.83" y="1480" />
            </Array>
          </mxGeometry>
        </mxCell>
        <mxCell id="IzHltFca7TBaYK6Krc_k-1" value="" style="html=1;verticalLabelPosition=bottom;align=center;labelBackgroundColor=#ffffff;verticalAlign=top;strokeWidth=1;strokeColor=none;shadow=0;dashed=0;shape=mxgraph.ios7.icons.settings;fillColor=#fff2cc;" parent="1" vertex="1">
          <mxGeometry x="631" y="129" width="30" height="30" as="geometry" />
        </mxCell>
        <mxCell id="IzHltFca7TBaYK6Krc_k-18" value="" style="sketch=0;pointerEvents=1;shadow=0;dashed=0;html=1;strokeColor=none;labelPosition=center;verticalLabelPosition=bottom;verticalAlign=top;align=center;fillColor=#dae8fc;shape=mxgraph.mscae.oms.dashboard" parent="1" vertex="1">
          <mxGeometry x="760.93" y="130" width="34.15" height="28" as="geometry" />
        </mxCell>
        <mxCell id="IzHltFca7TBaYK6Krc_k-20" value="Source" style="text;html=1;align=center;verticalAlign=middle;whiteSpace=wrap;rounded=0;fontStyle=1" parent="1" vertex="1">
          <mxGeometry x="216" y="68" width="60" height="30" as="geometry" />
        </mxCell>
        <mxCell id="540hR07JQp46lMpWSilx-37" style="edgeStyle=orthogonalEdgeStyle;rounded=0;orthogonalLoop=1;jettySize=auto;html=1;exitX=1;exitY=0.5;exitDx=0;exitDy=0;exitPerimeter=0;entryX=0;entryY=0.5;entryDx=0;entryDy=0;strokeColor=default;strokeWidth=0.25;align=center;verticalAlign=middle;fontFamily=Helvetica;fontSize=11;fontColor=default;labelBackgroundColor=default;endArrow=classic;" parent="1" source="540hR07JQp46lMpWSilx-2" target="_Ql84keAu2V8BWw_rLA1-9" edge="1">
          <mxGeometry relative="1" as="geometry" />
        </mxCell>
        <mxCell id="540hR07JQp46lMpWSilx-2" value="" style="shape=cylinder3;whiteSpace=wrap;html=1;boundedLbl=1;backgroundOutline=1;size=5.599999999999994;fillColor=#d5e8d4;strokeColor=#FFFFFF;" parent="1" vertex="1">
          <mxGeometry x="380" y="164.75" width="20" height="31" as="geometry" />
        </mxCell>
        <mxCell id="540hR07JQp46lMpWSilx-3" value="Integration" style="text;html=1;align=center;verticalAlign=middle;whiteSpace=wrap;rounded=0;fontStyle=1" parent="1" vertex="1">
          <mxGeometry x="360" y="68" width="60" height="30" as="geometry" />
        </mxCell>
        <mxCell id="540hR07JQp46lMpWSilx-5" value="Business logic" style="text;html=1;align=center;verticalAlign=middle;whiteSpace=wrap;rounded=0;fontStyle=1" parent="1" vertex="1">
          <mxGeometry x="616" y="68" width="60" height="30" as="geometry" />
        </mxCell>
        <mxCell id="540hR07JQp46lMpWSilx-8" value="Presentation" style="text;html=1;align=center;verticalAlign=middle;whiteSpace=wrap;rounded=0;fontStyle=1" parent="1" vertex="1">
          <mxGeometry x="748" y="68" width="60" height="30" as="geometry" />
        </mxCell>
        <mxCell id="540hR07JQp46lMpWSilx-9" value="" style="endArrow=none;dashed=1;html=1;rounded=0;strokeWidth=0.5;" parent="1" edge="1">
          <mxGeometry width="50" height="50" relative="1" as="geometry">
            <mxPoint x="579" y="420" as="sourcePoint" />
            <mxPoint x="579" y="60" as="targetPoint" />
          </mxGeometry>
        </mxCell>
        <mxCell id="540hR07JQp46lMpWSilx-10" value="" style="endArrow=none;dashed=1;html=1;rounded=0;strokeWidth=0.5;" parent="1" edge="1">
          <mxGeometry width="50" height="50" relative="1" as="geometry">
            <mxPoint x="707" y="420" as="sourcePoint" />
            <mxPoint x="707" y="60" as="targetPoint" />
          </mxGeometry>
        </mxCell>
        <mxCell id="540hR07JQp46lMpWSilx-15" value="Core" style="text;html=1;align=center;verticalAlign=middle;whiteSpace=wrap;rounded=0;fontStyle=1" parent="1" vertex="1">
          <mxGeometry x="488" y="68" width="60" height="30" as="geometry" />
        </mxCell>
        <mxCell id="540hR07JQp46lMpWSilx-17" value="" style="endArrow=none;dashed=1;html=1;rounded=0;strokeWidth=0.5;" parent="1" edge="1">
          <mxGeometry width="50" height="50" relative="1" as="geometry">
            <mxPoint x="452" y="420" as="sourcePoint" />
            <mxPoint x="452" y="60" as="targetPoint" />
          </mxGeometry>
        </mxCell>
        <mxCell id="540hR07JQp46lMpWSilx-21" style="edgeStyle=orthogonalEdgeStyle;rounded=0;orthogonalLoop=1;jettySize=auto;html=1;entryX=0;entryY=0.5;entryDx=0;entryDy=0;entryPerimeter=0;strokeColor=default;strokeWidth=0.25;align=center;verticalAlign=middle;fontFamily=Helvetica;fontSize=11;fontColor=default;labelBackgroundColor=default;endArrow=classic;curved=0;" parent="1" source="IzHltFca7TBaYK6Krc_k-1" target="IzHltFca7TBaYK6Krc_k-18" edge="1">
          <mxGeometry relative="1" as="geometry" />
        </mxCell>
        <mxCell id="540hR07JQp46lMpWSilx-23" value="&lt;font style=&quot;font-size: 10px;&quot;&gt;System&lt;/font&gt;" style="rounded=1;whiteSpace=wrap;html=1;fillColor=#E1d5e7;strokeColor=#FFFFFF;align=center;" parent="1" vertex="1">
          <mxGeometry x="192" y="212" width="60" height="24" as="geometry" />
        </mxCell>
        <mxCell id="540hR07JQp46lMpWSilx-56" style="edgeStyle=orthogonalEdgeStyle;rounded=0;orthogonalLoop=1;jettySize=auto;html=1;strokeColor=default;strokeWidth=0.25;align=center;verticalAlign=middle;fontFamily=Helvetica;fontSize=11;fontColor=default;labelBackgroundColor=default;endArrow=classic;" parent="1" source="540hR07JQp46lMpWSilx-24" edge="1">
          <mxGeometry relative="1" as="geometry">
            <mxPoint x="376" y="180" as="targetPoint" />
            <Array as="points">
              <mxPoint x="344" y="224" />
              <mxPoint x="344" y="180" />
            </Array>
          </mxGeometry>
        </mxCell>
        <mxCell id="540hR07JQp46lMpWSilx-57" style="edgeStyle=orthogonalEdgeStyle;rounded=0;orthogonalLoop=1;jettySize=auto;html=1;strokeColor=default;strokeWidth=0.25;align=center;verticalAlign=middle;fontFamily=Helvetica;fontSize=11;fontColor=default;labelBackgroundColor=default;endArrow=classic;" parent="1" source="540hR07JQp46lMpWSilx-24" edge="1">
          <mxGeometry relative="1" as="geometry">
            <mxPoint x="628" y="224" as="targetPoint" />
          </mxGeometry>
        </mxCell>
        <mxCell id="540hR07JQp46lMpWSilx-58" style="edgeStyle=orthogonalEdgeStyle;rounded=0;orthogonalLoop=1;jettySize=auto;html=1;strokeColor=default;strokeWidth=0.25;align=center;verticalAlign=middle;fontFamily=Helvetica;fontSize=11;fontColor=default;labelBackgroundColor=default;endArrow=classic;" parent="1" source="540hR07JQp46lMpWSilx-24" edge="1">
          <mxGeometry relative="1" as="geometry">
            <mxPoint x="628" y="184" as="targetPoint" />
            <Array as="points">
              <mxPoint x="596" y="224" />
              <mxPoint x="596" y="184" />
            </Array>
          </mxGeometry>
        </mxCell>
        <mxCell id="540hR07JQp46lMpWSilx-61" style="edgeStyle=orthogonalEdgeStyle;rounded=0;orthogonalLoop=1;jettySize=auto;html=1;entryX=0;entryY=0.5;entryDx=0;entryDy=0;strokeColor=default;strokeWidth=0.25;align=center;verticalAlign=middle;fontFamily=Helvetica;fontSize=11;fontColor=default;labelBackgroundColor=default;endArrow=classic;" parent="1" source="540hR07JQp46lMpWSilx-24" target="540hR07JQp46lMpWSilx-32" edge="1">
          <mxGeometry relative="1" as="geometry">
            <Array as="points">
              <mxPoint x="476" y="224" />
              <mxPoint x="476" y="256" />
            </Array>
          </mxGeometry>
        </mxCell>
        <mxCell id="540hR07JQp46lMpWSilx-24" value="" style="shape=cylinder3;whiteSpace=wrap;html=1;boundedLbl=1;backgroundOutline=1;size=5.599999999999994;fillColor=#E1d5e7;strokeColor=#FFFFFF;" parent="1" vertex="1">
          <mxGeometry x="276" y="208.5" width="20" height="31" as="geometry" />
        </mxCell>
        <mxCell id="540hR07JQp46lMpWSilx-25" value="" style="html=1;verticalLabelPosition=bottom;align=center;labelBackgroundColor=#ffffff;verticalAlign=top;strokeWidth=1;strokeColor=none;shadow=0;dashed=0;shape=mxgraph.ios7.icons.settings;fillColor=#fff2cc;" parent="1" vertex="1">
          <mxGeometry x="631" y="208.5" width="30" height="30" as="geometry" />
        </mxCell>
        <mxCell id="540hR07JQp46lMpWSilx-26" value="" style="sketch=0;pointerEvents=1;shadow=0;dashed=0;html=1;strokeColor=none;labelPosition=center;verticalLabelPosition=bottom;verticalAlign=top;align=center;fillColor=#dae8fc;shape=mxgraph.mscae.oms.dashboard" parent="1" vertex="1">
          <mxGeometry x="760.93" y="209.5" width="34.15" height="28" as="geometry" />
        </mxCell>
        <mxCell id="540hR07JQp46lMpWSilx-29" style="edgeStyle=orthogonalEdgeStyle;rounded=0;orthogonalLoop=1;jettySize=auto;html=1;entryX=0;entryY=0.5;entryDx=0;entryDy=0;entryPerimeter=0;strokeColor=default;strokeWidth=0.25;align=center;verticalAlign=middle;fontFamily=Helvetica;fontSize=11;fontColor=default;labelBackgroundColor=default;endArrow=classic;curved=0;" parent="1" source="540hR07JQp46lMpWSilx-25" target="540hR07JQp46lMpWSilx-26" edge="1">
          <mxGeometry relative="1" as="geometry" />
        </mxCell>
        <mxCell id="540hR07JQp46lMpWSilx-30" value="" style="html=1;verticalLabelPosition=bottom;align=center;labelBackgroundColor=#ffffff;verticalAlign=top;strokeWidth=1;strokeColor=none;shadow=0;dashed=0;shape=mxgraph.ios7.icons.settings;fillColor=#fff2cc;" parent="1" vertex="1">
          <mxGeometry x="631" y="168" width="30" height="30" as="geometry" />
        </mxCell>
        <mxCell id="540hR07JQp46lMpWSilx-31" value="" style="sketch=0;pointerEvents=1;shadow=0;dashed=0;html=1;strokeColor=none;labelPosition=center;verticalLabelPosition=bottom;verticalAlign=top;align=center;fillColor=#dae8fc;shape=mxgraph.mscae.oms.dashboard" parent="1" vertex="1">
          <mxGeometry x="760.93" y="169" width="34.15" height="28" as="geometry" />
        </mxCell>
        <mxCell id="540hR07JQp46lMpWSilx-32" value="" style="shape=hexagon;perimeter=ellipsePerimeter;whiteSpace=wrap;html=1;fixedSize=1;size=6.563862928348897;autosize=0;fixedWidth=0;rounded=0;fillColor=#f8cecc;strokeColor=none;" parent="1" vertex="1">
          <mxGeometry x="504" y="244" width="28" height="24.5" as="geometry" />
        </mxCell>
        <mxCell id="540hR07JQp46lMpWSilx-47" style="edgeStyle=orthogonalEdgeStyle;rounded=0;orthogonalLoop=1;jettySize=auto;html=1;entryX=0;entryY=0.5;entryDx=0;entryDy=0;entryPerimeter=0;strokeColor=default;strokeWidth=0.25;align=center;verticalAlign=middle;fontFamily=Helvetica;fontSize=11;fontColor=default;labelBackgroundColor=default;endArrow=classic;" parent="1" source="_Ql84keAu2V8BWw_rLA1-2" target="_Ql84keAu2V8BWw_rLA1-6" edge="1">
          <mxGeometry relative="1" as="geometry" />
        </mxCell>
        <mxCell id="540hR07JQp46lMpWSilx-59" style="edgeStyle=orthogonalEdgeStyle;rounded=0;orthogonalLoop=1;jettySize=auto;html=1;entryX=0;entryY=0.5;entryDx=0;entryDy=0;entryPerimeter=0;strokeColor=default;strokeWidth=0.25;align=center;verticalAlign=middle;fontFamily=Helvetica;fontSize=11;fontColor=default;labelBackgroundColor=default;endArrow=classic;" parent="1" source="540hR07JQp46lMpWSilx-30" target="540hR07JQp46lMpWSilx-31" edge="1">
          <mxGeometry relative="1" as="geometry" />
        </mxCell>
        <mxCell id="L1AszbLgewjzpD16x1e3-1" value="\" style="rounded=0;whiteSpace=wrap;html=1;align=right;fillColor=#f5f5f5;fontColor=#333333;strokeColor=#666666;dashed=1;dashPattern=1 1;fontSize=9;fontStyle=1;labelPosition=left;verticalLabelPosition=middle;verticalAlign=middle;textDirection=vertical-rl;" vertex="1" parent="1">
          <mxGeometry x="1320" y="803" width="920" height="90" as="geometry" />
        </mxCell>
        <mxCell id="L1AszbLgewjzpD16x1e3-2" value="" style="rounded=0;whiteSpace=wrap;html=1;align=right;fillColor=#f5f5f5;fontColor=#333333;strokeColor=#666666;dashed=1;dashPattern=1 1;fontSize=9;fontStyle=1;labelPosition=left;verticalLabelPosition=middle;verticalAlign=middle;textDirection=vertical-rl;" vertex="1" parent="1">
          <mxGeometry x="1320" y="703" width="920" height="90" as="geometry" />
        </mxCell>
        <mxCell id="L1AszbLgewjzpD16x1e3-3" value="" style="rounded=0;whiteSpace=wrap;html=1;align=right;fillColor=#f5f5f5;fontColor=#333333;strokeColor=#666666;dashed=1;dashPattern=1 1;fontSize=9;fontStyle=1;labelPosition=left;verticalLabelPosition=middle;verticalAlign=middle;textDirection=vertical-rl;" vertex="1" parent="1">
          <mxGeometry x="1320" y="643" width="920" height="50" as="geometry" />
        </mxCell>
        <mxCell id="L1AszbLgewjzpD16x1e3-4" value="" style="rounded=0;whiteSpace=wrap;html=1;align=right;fillColor=#f5f5f5;fontColor=#333333;strokeColor=#666666;dashed=1;dashPattern=1 1;fontSize=9;fontStyle=1;labelPosition=left;verticalLabelPosition=middle;verticalAlign=middle;textDirection=vertical-rl;" vertex="1" parent="1">
          <mxGeometry x="1320" y="518" width="920" height="100" as="geometry" />
        </mxCell>
        <mxCell id="L1AszbLgewjzpD16x1e3-5" value="Source Layer" style="rounded=1;whiteSpace=wrap;html=1;dashed=1;dashPattern=1 1;strokeColor=#9673a6;strokeWidth=2;align=center;verticalAlign=bottom;spacingLeft=0;spacingRight=0;fontFamily=Helvetica;fontSize=12;fontColor=#9673A6;fontStyle=1;fillColor=#E1D5E7;fillOpacity=30;labelPosition=center;verticalLabelPosition=top;" vertex="1" parent="1">
          <mxGeometry x="1340" y="508" width="160" height="400" as="geometry" />
        </mxCell>
        <mxCell id="L1AszbLgewjzpD16x1e3-6" value="Integration Layer" style="rounded=1;whiteSpace=wrap;html=1;dashed=1;dashPattern=1 1;strokeColor=#82b366;strokeWidth=2;align=center;verticalAlign=bottom;spacingLeft=0;spacingRight=0;fontFamily=Helvetica;fontSize=12;fontColor=#82B366;fontStyle=1;fillColor=#D5E8D4;fillOpacity=30;labelPosition=center;verticalLabelPosition=top;" vertex="1" parent="1">
          <mxGeometry x="1520" y="508" width="160" height="400" as="geometry" />
        </mxCell>
        <mxCell id="L1AszbLgewjzpD16x1e3-7" value="Core Layer" style="rounded=1;whiteSpace=wrap;html=1;dashed=1;dashPattern=1 1;strokeColor=#b85450;strokeWidth=2;align=center;verticalAlign=bottom;spacingLeft=0;spacingRight=0;fontFamily=Helvetica;fontSize=12;fontColor=#B85450;fontStyle=1;fillColor=#F8CECC;fillOpacity=30;labelPosition=center;verticalLabelPosition=top;" vertex="1" parent="1">
          <mxGeometry x="1700" y="508" width="160" height="400" as="geometry" />
        </mxCell>
        <mxCell id="L1AszbLgewjzpD16x1e3-8" value="Business Logic Layer" style="rounded=1;whiteSpace=wrap;html=1;dashed=1;dashPattern=1 1;strokeColor=#d6b656;strokeWidth=2;align=center;verticalAlign=bottom;spacingLeft=0;spacingRight=0;fontFamily=Helvetica;fontSize=12;fontColor=#D6B656;fontStyle=1;fillColor=#FFF2CC;fillOpacity=30;labelPosition=center;verticalLabelPosition=top;" vertex="1" parent="1">
          <mxGeometry x="1880" y="508" width="160" height="400" as="geometry" />
        </mxCell>
        <mxCell id="L1AszbLgewjzpD16x1e3-9" value="Presentation Layer" style="rounded=1;whiteSpace=wrap;html=1;dashed=1;dashPattern=1 1;strokeColor=#6c8ebf;strokeWidth=2;align=center;verticalAlign=bottom;spacingLeft=0;spacingRight=0;fontFamily=Helvetica;fontSize=12;fontColor=#6C8EBF;fontStyle=1;fillColor=#DAE8FC;fillOpacity=30;labelPosition=center;verticalLabelPosition=top;" vertex="1" parent="1">
          <mxGeometry x="2060" y="508" width="160" height="400" as="geometry" />
        </mxCell>
        <mxCell id="L1AszbLgewjzpD16x1e3-10" style="edgeStyle=orthogonalEdgeStyle;rounded=0;orthogonalLoop=1;jettySize=auto;html=1;entryX=0;entryY=0.5;entryDx=0;entryDy=0;" edge="1" parent="1" source="L1AszbLgewjzpD16x1e3-11" target="L1AszbLgewjzpD16x1e3-14">
          <mxGeometry relative="1" as="geometry" />
        </mxCell>
        <mxCell id="L1AszbLgewjzpD16x1e3-11" value="System" style="rounded=1;whiteSpace=wrap;html=1;fillColor=#f5f5f5;fontColor=#333333;strokeColor=#666666;fontStyle=1" vertex="1" parent="1">
          <mxGeometry x="1350" y="538" width="50" height="20" as="geometry" />
        </mxCell>
        <mxCell id="L1AszbLgewjzpD16x1e3-12" style="edgeStyle=orthogonalEdgeStyle;rounded=0;orthogonalLoop=1;jettySize=auto;html=1;entryX=0;entryY=0.25;entryDx=0;entryDy=0;exitX=1;exitY=0.75;exitDx=0;exitDy=0;" edge="1" parent="1" source="L1AszbLgewjzpD16x1e3-14" target="L1AszbLgewjzpD16x1e3-24">
          <mxGeometry relative="1" as="geometry">
            <Array as="points">
              <mxPoint x="1530" y="558" />
              <mxPoint x="1530" y="578" />
            </Array>
          </mxGeometry>
        </mxCell>
        <mxCell id="L1AszbLgewjzpD16x1e3-13" style="edgeStyle=orthogonalEdgeStyle;shape=connector;rounded=0;orthogonalLoop=1;jettySize=auto;html=1;entryX=0;entryY=0.5;entryDx=0;entryDy=0;strokeColor=default;align=center;verticalAlign=middle;fontFamily=Helvetica;fontSize=11;fontColor=default;labelBackgroundColor=default;endArrow=classic;" edge="1" parent="1" source="L1AszbLgewjzpD16x1e3-14" target="L1AszbLgewjzpD16x1e3-80">
          <mxGeometry relative="1" as="geometry" />
        </mxCell>
        <mxCell id="L1AszbLgewjzpD16x1e3-14" value="" style="shape=image;verticalLabelPosition=bottom;labelBackgroundColor=default;verticalAlign=top;aspect=fixed;imageAspect=0;image=data:image/png,iVBORw0KGgoAAAANSUhEUgAAAGAAAABgCAYAAADimHc4AAAAAXNSR0IArs4c6QAAA2RJREFUeF7tm+FNxTAMhPM2gU1gE5gEmAQ2gU1gE8AoFdKDNndWWsd5V+mJP6c4uc9OqNueiq5QB06h0RW8CEBwEgiAAAQ7EBxeFSAAwQ4Eh1cFCECwA8HhVQECEOxAcHhVQFIAV6WUh1LKXfD8Rwj/8e2D/e7rX2pOngow89+pKJchNgi3LAQPgGdl/mpGvVUIcMp5AFj2WxXo+uuAVcE1Y4wHwCcT4AK1lKeUuJopANtZRXlKiQUAqmfKU0osADkAeKBCKxtE1NqCqfVTYrACPGMO4i00DQGAbNpPJAD7eQuNnBqA9Y9u6m/podjd4xO09DFEKQHYnbO1MMz8/y5XHyWIR0oArxvmLz7SfRQB+N+B8/+CbNt5BM2ylu4LqI2SpasApnuaoQrSAWC6p3Q3MaAMpgZgfo5+I5cOAHIAL4ls+7+dAyNf6QDYc2M7B5BLhzDgkicDkCrIcACbPZ71r9rq2W89E2jdiGUxPy2AJQPUijirhaMqANjZ0kg8O0D4FpTGXWCiAgCYtKdEAPZ0Fxh7eADAGqaWUOcqJa62tTJganeBxVGeUmIBAOwne1kCAHlKiShPKXGdBtNepmY+iZjylBJXg5C+ziRe0sugu7keAPpAY52LvZpuD5XgywPABm811+AJTCA0w5dXayjzbe1eABP4NsYSBCCYgwAIQLADweG9FaDvhH/B6Tvh4CRewrveb/VUAPOm2yDeHDYN+tm2B4BaEes86Tf7PADUjt4uKMpTSqx2NLSVUZ5SYgEQAMiBYBGV1JQYrADPmMGeUeFbZyC1fkosAD8OCACVr/3FAtDfU2rE1AD0cu4Z66POgNYTNFcfhcrbfuKUFYA8yKf7KP08pUZKB0DfCW/wPWILYrqnGaogXQUw3VO6m0htHn3EUwMwizxV2cdabJR0AJADeFk6/WYZ5llXVToA+k44+BC28EgVZDiA0/aCWjdiWcxPC2ApQrUigloRXU/B4MHSHcLBfnUPLwDdLeUGFADOr+7q4QF0X3GyAak7eUpcjWhlQDK/uk+X8pQSCwAEi/KUEgvAGACY9jI048lEVFJT4moU0teZzFN4OXQ31wNA3wmv89B3wnCu9hPqO+F+Xh4/kmcLOn6WE0cUgGC4AiAAwQ4Eh1cFCECwA8HhVQHBAL4ApQTAYSMnP4sAAAAASUVORK5CYII=;" vertex="1" parent="1">
          <mxGeometry x="1440" y="528" width="40" height="40" as="geometry" />
        </mxCell>
        <mxCell id="L1AszbLgewjzpD16x1e3-15" style="edgeStyle=orthogonalEdgeStyle;rounded=0;orthogonalLoop=1;jettySize=auto;html=1;" edge="1" parent="1" source="L1AszbLgewjzpD16x1e3-16" target="L1AszbLgewjzpD16x1e3-17">
          <mxGeometry relative="1" as="geometry" />
        </mxCell>
        <mxCell id="L1AszbLgewjzpD16x1e3-16" value="" style="shape=image;verticalLabelPosition=bottom;labelBackgroundColor=default;verticalAlign=top;aspect=fixed;imageAspect=0;image=data:image/png,iVBORw0KGgoAAAANSUhEUgAAAGAAAABgCAYAAADimHc4AAAAAXNSR0IArs4c6QAABztJREFUeF7tXe2RHTUQXGeCIwEiwUQCRAKOBIgEMoHrq6crWbdSd49GbxejV0X5x+ljZno+erTa5cOxf5da4MOlu+/Njw3AxU6wAdgAXGyBi7ffEbABuNgCF2+/I2AD8M4C3xzH8dciu3w8juPvRWuHlr1jBGwAQlDmTfruOI7f85b7YqUfj+P4bdHaoWXvGAE/vWjyc0gbPmkDwG10rAQA3g8QbvO7YwQg/SANrfhtAASrrgTgj+M4vhdkeNqQO0bAP4u1v5XOtxLmhaEoFJTJjB4C6/R+t+oFmDKLndFuwtBEwYCj3/8WgOJ1M50m6wGUHP7rS7f7aYDQLBWFjNBxRs838TIjoBRPGOnzC5PBv66QjIIqLGYVAAD1hwdDUxxByh5ZAEA4KN7+0FABDBUIBgDW+4Vo1pOlTFNArLeAXvD6tq7MRtLrHlkAMOYCj4Hh8O/ZDwrC+Iz/K0ozALA/k6f29h7ecCpQWtW5TtfJAIB5bb3xWXpyeD8U7oFY9mF1pJUHoBYjwvDQZ8Si6vlKRA4DdhYAhTb2BEAqGBXLs3mqvCwi27UjspQ1pmitqlDPiKzgSYXIGKTKy6iosSUdOhUFqkJnUsx4P9XqZIDSA5RpzwQAe4ajYAaAZyvpeFqPuUSAV+aEC3IUAKfwKgqMxrhUti7G3z7qjFpUZ2R1HORtnwgAauoBW2G0clSg/0x8eqXS3J48ii6hKIgAoHh/6RSheOkeVS9UqGbUU12aCXaE/gXGVQiHHQUuAKr3nxUlpjxAqzl51MhsHnRA79FzCBgbRm+fHbN5IVrqAqA0TcwLzqIi7WyFWb/6e+vRMHg5w+ot40S/JIoDgNJhOlQRAkIh5HrW3UrKBAaVrrekGWUJhf0pRyavezkAKBsz71cUvPsYJQrkgqwCoG7KHpbMGrccXaCwlxyOf8v5PCIJEZV2Xt8ROM0ZFQDUwuse8zpgRGgk0kDkmYQil8KIpA5ZAUDx/iJ0NpMB+KWrVQzTjpFTgbG4QkTKcjQlKwAo4VbLn6X0rPFrmeSiOAACUQhnUPuZstTQxgoAKv9tZafoD5RV057huK/XHdnTtBn62c6VsoECQFnYSUWzKckJcweESJcdkUUG2wEAirJu9swYSEmlICrGigCtrFvGqEfHkcKPPSyQXQCwwcqUtCL1RFKj0nSGUk47KQJAWUOlYnU6Yvcy3TUdz6/Hsihw046ccjIBcFMSE/IZ3l/0Z6zIcQQr5WQD4KQkJqhynSTq8WfpYhSNSgpiV1skWWdSULsBu4nAwn518XWcj0Wje+jYBeNOADhhL3kXGTRyCAYAlk6xXcoiD0VZBLC93MI3CwKLyFl9JPmYUaRFNgCOmb4c+0wAmMc9OwWNdP8qU9DXBEDWgWNKIVFPLe9EQxmLUWno9CWC2RSkCFqSHmvEMM49+o4mXyaLSondc6538s4AoArpHEU8iwmxdOjKEb29F0pBaspp0WYpCOOdiFrl/VgXzoXO3Hn4Ip3/O93gmYIRA7lhupINsdxf6xx5AmYXZycFuSkHykQvXK2qBUoUto4XcQhWY972UACIphxZiJNQiz5zGKUldgI6mrssJTEAlIakFdxNOT3FM0GIeH4rVzQlDe9KMQAghBOC0ZQzAmHmWgrWzTB+LZ9jD5oFFABUT1x9Mcu9EkKVj9KoB0tiH5WSCr4CQKFlbMMQDTONgDSAt17qF6frq4lQOvPFjp54CkmQHEAFQO1SpU1No99tuMIGJe+HYg4AyiNDlwcjrZQXIq4wdIkk9Q6pSkrkuuMAkBUFZ58BqF8FehYQ7XGDIoPi/VYWcAFQC3LkFSU3eqJAsb6m97UX1fstm1qDHxo7XgChSxOjGmymYWJ7uEcp9SGbQj8t73drQK2cwgKUVzt7BitXPrJetFC+fjICT9FFLrz1RpEIUGkp80bl71C8pITIZ2EiRwiKXGdj5MKbAYBakKPKnM1zGj0lTWbKFj4BiEYAhHfz6azCjpJKipyVp57PHvB095oBAIsqhSlTUVVedqcnUya78GalIKyj0tJeSjn7FtvIOIqnqXSx3gfpzZUF80OFNxMAtyC3nwFgnLwFQwHASY3t+ZX7AsqU98/Q0NYwLOeyzwCob6MoPYJyZMJuNivyTHt/JgA91qG09zWYrKYoADAG5Hjt6GsvIdrZeq5a1JSiVaKg8PbI/6mCea9CRRmIDgC13nV6chjZ0HaZACCf47+ZD29kAMDu9Mx67m0/XaxECRvDCqjieYyCzgLAdLD+nhkB1saDwcyATObZ+Vl6SOswZaRFkgcxRjWzXQpzmRFgZRHOkmsDkGXJ4DqMxQSXfZ2m1JCZ9e25d0xBKwGIUlDbsOqEOwLAqKiq29m4DYBgvZUA3IqCZh5FCHaVh7BeQF7oZOAGQLQe4/LiMu+G3S7l3k6gqGX/q/M2ABcjtwHYAFxsgYu33xGwAbjYAhdvvyNgA3CxBS7e/l+3ltBwKurxowAAAABJRU5ErkJggg==;" vertex="1" parent="1">
          <mxGeometry x="1940" y="528" width="40" height="40" as="geometry" />
        </mxCell>
        <mxCell id="L1AszbLgewjzpD16x1e3-17" value="" style="shape=image;verticalLabelPosition=bottom;labelBackgroundColor=default;verticalAlign=top;aspect=fixed;imageAspect=0;image=data:image/png,iVBORw0KGgoAAAANSUhEUgAAAGAAAABgCAYAAADimHc4AAAAAXNSR0IArs4c6QAAAw9JREFUeF7tnQFu1DAQRac3gZvASYCTACcBTlJuAjeBjthVxa429p/8ZLrpi7SiErbHec8z8RbkPARXK4GH1ugEDwQ0LwIEIKCZQHN4MgABzQSaw5MBCGgm0ByeDEBAM4Hm8GTAAQS8iYgPEfHu9Gm+pc3D/46I8+fr6edy0LUZ8Pkp8pdy9PvvmCK+R0SKKF1rBDy+khU/A/ZnRLyfaXjZpirgY0R8qwQ8cJ+sBHImVARkzf91YJDVW8ty9OmpKmQ2TF8VAa+97i/BlbOgIiBLT5YgrmsC8rOgIiDLT5YhrmsCWYbeKmAqAv4MAlTGVObc3dZ6/xVY1gl00yzEt94/AnQDCNCZWXsgwIpTHwwBOjNrDwRYceqDIUBnZu2BACtOfTAE6MysPRBgxakPhgCdmbUHAqw49cEQoDOz9kCAFac+GAJ0ZtYeCLDi1AdDgM7M2gMBVpz6YAjQmVl7IMCKUx8MATozaw8EWHHqgyFAZ2bt8eIFWO/2DgeT/qeJ1PgEY7QC7pCZdcoSU6kxAqZESUylxghAwBSB5kbSopYakwFTaiWmUmMEIGCKQHMjaVFLjSczoDLmErPRttcdb+TPOp/K5K0TGN1tROwdbzQl63wQMMJ9/fcIuGBSWUQ69uceCEDA8vpxr0jriluz9LfYhFRg7Q1k73gjR9b5IGCEm4cw29DLNWBNwYkFuHe80ZSs86EEjXBTgihBlKD/CVCC+CLGF7ElAtJzVWq8xTfBiWegNeUn4o2aWOeDgBFudkHsgtgFsQtarBOVMqoXHv494CYzBGy8L7fuOtYs/S12gZXVszeQveONHFnng4AR7he4DeXgVuNvAioZwLH1twXkuwTyAO/pqyKAw7tv493l8G6Or78tIF/isPnx9RmeFzhcS8jSkyVIuiol6ByAY+yfUcvH1p+7rhGQY/A8+PcSI/nVJS4BOU4+E1JE/pmvsjr6dX6FVa76H92vsTo67M3vb20J2nyCRw+AgGbDCEBAM4Hm8GQAApoJNIcnAxDQTKA5PBmAgGYCzeHJgGYBfwFV8qdhmPgpQgAAAABJRU5ErkJggg==;" vertex="1" parent="1">
          <mxGeometry x="2120" y="528" width="40" height="40" as="geometry" />
        </mxCell>
        <mxCell id="L1AszbLgewjzpD16x1e3-18" value="" style="shape=image;verticalLabelPosition=bottom;labelBackgroundColor=default;verticalAlign=top;aspect=fixed;imageAspect=0;image=data:image/png,iVBORw0KGgoAAAANSUhEUgAAAGAAAABgCAYAAADimHc4AAAAAXNSR0IArs4c6QAAAtJJREFUeF7tnOFR3EAMRpdOSCekEqCSkEpCJ9AJdELQ5P6EwZY0n4QG+93MDT8sab3v7a6x726vFq9RAlejrdP4QsDwIEAAAoYJDDfPDEDAMIHh5pkBCBgmMNw8MwABwwSGm2cGIGCYwHDzzAAEDBMYbp4ZcEAB12ut27XWzeU93MUvbz41qFPBga78eo95CMQdOSTFNBXsUHs66Yj/iCXFNBW8I+BurfXnyMM60bcU01TwxknYmv+SOMGjh6aYpoI3yLHu/w8mxTQVvCHAlh5bgnj9I5BimgreIGzLjy1DvIYEvDnkKyQfVm4FHAQIwwMBAryKVARUUBRqIECAV5GKgAqKQg0ECPAqUhFQQVGocRYBdqNoj0y+4o799b0de99f/u7qOYOAqYeFJuGnJ+EMAiafVT1fJGzOgjMImHxWZbPgx94adAYB3qMS4RIaSt1ljIAQQykIARI+PRkBOkOpAgKaP6/wrjEIQIA0g+VkaYQGWpfq819Q8kP0T4QgwBmlEiBmQIAAAvYJVCxzigZmgEKvIBcBBRCVEghQ6BXkIqAAolICAQq9glwEFEBUSiBAoVeQi4ACiEoJBCj0CnIRUABRKYEAhV5BLgIKIColEKDQK8hFQAFEpQQCFHoFuQgogKiUQIBCryAXAQUQlRIIUOgV5CKgAKJSAgEKvYLcby/A60ABI6mE962L6fOXvxs63QHPDgI8Qs3HEdAM2CuPAI9Q83EENAP2yiPAI9R8HAHNgL3yCPAINR/3BEz+UNu6fvr7gMktlR8vm3ZsjkFv9Fjid78Rm9qsw9jZNgW2XcGpBVjnTYJt2mFb6ne/DLht0vHbg++uT91nSn39F4IwFAlErgFiE6Sr1wAINhJgBjTCjZRGQIRSYwwCGuFGSiMgQqkxBgGNcCOlERCh1BiDgEa4kdIIiFBqjEFAI9xIaQREKDXGIKARbqQ0AiKUGmP+ApqEmGHcnOg9AAAAAElFTkSuQmCC;" vertex="1" parent="1">
          <mxGeometry x="2120" y="568" width="40" height="40" as="geometry" />
        </mxCell>
        <mxCell id="L1AszbLgewjzpD16x1e3-19" value="" style="shape=image;verticalLabelPosition=bottom;labelBackgroundColor=default;verticalAlign=top;aspect=fixed;imageAspect=0;image=data:image/png,iVBORw0KGgoAAAANSUhEUgAAAGAAAABgCAYAAADimHc4AAAAAXNSR0IArs4c6QAAArpJREFUeF7tnAEuQ1EQRcdOWAlWgpVgJVgJVsJO6MT/iYS689p3M8X5iVQyr3fac/77v5WYo+BoJXDU2p3mgYDmkwABCGgm0NyeHYCAZgLN7dkBCGgm0NyeHYCAZgLN7dkBv1DAcURcREQ+ni2PzW+jtf1rROTPU0Q8LL+XX9DoDriMiLty+v9ceLU5Ke+rb31EwONyxlez//O6FJAi5FEVcL1JupFpLPhMIHndKiQVAXmtf1FB1L8lcKLuCRUBnP27n13yUlQRwLV/dwH5yej8p6dXBLzt3p9nbu4DPzKeIaCS8ZdNqBMUAWb7CDADVvEIUITMdQSYAat4BChC5joCzIBVPAIUIXMdAWbAKh4BipC5jgAzYBWPAEXIXEeAGbCKR4AiZK4jwAxYxSNAETLXEWAGrOIRoAiZ6wgwA1bxCFCEzHUEmAGreAQoQuY6AsyAVTwCFCFzHQFmwCoeAYqQuY4AM2AVjwBFyFxHgBmwikeAImSuI8AMWMUjQBEy1xFgBqziEaAImesIMANW8QhQhMx1BJgBq3gEKELmOgLMgFU8AhQhc90uIOdE5LwIjnECOUco50VsPSr/ZM2ognHw6zOmjCrIAU05qIljnIAcWVPZAXn5yV3AZWhcwJRxNdmWkTXj8OXZn5GVHbC25l5QlyCv/WvUiIB1J+T9gMvRdhm2oX1ryxxVefppZCUyPqYk5kfO52V8ZXmvjO6AcvDEheqLjmp10O/xoF/cQhYB6hQz1xFgBqziEaAImesIMANW8QhQhMx1BJgBq3gEKEJ71vcFvGf7oT/H7Nvry/MP4XsAAqZrHQtEwBiv6asRMB3pWCACxnhNX42A6UjHAhEwxmv6agRMR0pgmcAhfA8ov9i/uBABzVYRgIBmAs3t2QEIaCbQ3J4dgIBmAs3t2QEIaCbQ3J4d0CzgHXMVhGG+CldlAAAAAElFTkSuQmCC;" vertex="1" parent="1">
          <mxGeometry x="2120" y="648" width="40" height="40" as="geometry" />
        </mxCell>
        <mxCell id="L1AszbLgewjzpD16x1e3-20" style="edgeStyle=orthogonalEdgeStyle;rounded=0;orthogonalLoop=1;jettySize=auto;html=1;entryX=0;entryY=0.5;entryDx=0;entryDy=0;" edge="1" parent="1" source="L1AszbLgewjzpD16x1e3-21" target="L1AszbLgewjzpD16x1e3-18">
          <mxGeometry relative="1" as="geometry" />
        </mxCell>
        <mxCell id="L1AszbLgewjzpD16x1e3-21" value="" style="shape=image;verticalLabelPosition=bottom;labelBackgroundColor=default;verticalAlign=top;aspect=fixed;imageAspect=0;image=data:image/png,iVBORw0KGgoAAAANSUhEUgAAAGAAAABgCAYAAADimHc4AAAAAXNSR0IArs4c6QAABztJREFUeF7tXe2RHTUQXGeCIwEiwUQCRAKOBIgEMoHrq6crWbdSd49GbxejV0X5x+ljZno+erTa5cOxf5da4MOlu+/Njw3AxU6wAdgAXGyBi7ffEbABuNgCF2+/I2AD8M4C3xzH8dciu3w8juPvRWuHlr1jBGwAQlDmTfruOI7f85b7YqUfj+P4bdHaoWXvGAE/vWjyc0gbPmkDwG10rAQA3g8QbvO7YwQg/SANrfhtAASrrgTgj+M4vhdkeNqQO0bAP4u1v5XOtxLmhaEoFJTJjB4C6/R+t+oFmDKLndFuwtBEwYCj3/8WgOJ1M50m6wGUHP7rS7f7aYDQLBWFjNBxRs838TIjoBRPGOnzC5PBv66QjIIqLGYVAAD1hwdDUxxByh5ZAEA4KN7+0FABDBUIBgDW+4Vo1pOlTFNArLeAXvD6tq7MRtLrHlkAMOYCj4Hh8O/ZDwrC+Iz/K0ozALA/k6f29h7ecCpQWtW5TtfJAIB5bb3xWXpyeD8U7oFY9mF1pJUHoBYjwvDQZ8Si6vlKRA4DdhYAhTb2BEAqGBXLs3mqvCwi27UjspQ1pmitqlDPiKzgSYXIGKTKy6iosSUdOhUFqkJnUsx4P9XqZIDSA5RpzwQAe4ajYAaAZyvpeFqPuUSAV+aEC3IUAKfwKgqMxrhUti7G3z7qjFpUZ2R1HORtnwgAauoBW2G0clSg/0x8eqXS3J48ii6hKIgAoHh/6RSheOkeVS9UqGbUU12aCXaE/gXGVQiHHQUuAKr3nxUlpjxAqzl51MhsHnRA79FzCBgbRm+fHbN5IVrqAqA0TcwLzqIi7WyFWb/6e+vRMHg5w+ot40S/JIoDgNJhOlQRAkIh5HrW3UrKBAaVrrekGWUJhf0pRyavezkAKBsz71cUvPsYJQrkgqwCoG7KHpbMGrccXaCwlxyOf8v5PCIJEZV2Xt8ROM0ZFQDUwuse8zpgRGgk0kDkmYQil8KIpA5ZAUDx/iJ0NpMB+KWrVQzTjpFTgbG4QkTKcjQlKwAo4VbLn6X0rPFrmeSiOAACUQhnUPuZstTQxgoAKv9tZafoD5RV057huK/XHdnTtBn62c6VsoECQFnYSUWzKckJcweESJcdkUUG2wEAirJu9swYSEmlICrGigCtrFvGqEfHkcKPPSyQXQCwwcqUtCL1RFKj0nSGUk47KQJAWUOlYnU6Yvcy3TUdz6/Hsihw046ccjIBcFMSE/IZ3l/0Z6zIcQQr5WQD4KQkJqhynSTq8WfpYhSNSgpiV1skWWdSULsBu4nAwn518XWcj0Wje+jYBeNOADhhL3kXGTRyCAYAlk6xXcoiD0VZBLC93MI3CwKLyFl9JPmYUaRFNgCOmb4c+0wAmMc9OwWNdP8qU9DXBEDWgWNKIVFPLe9EQxmLUWno9CWC2RSkCFqSHmvEMM49+o4mXyaLSondc6538s4AoArpHEU8iwmxdOjKEb29F0pBaspp0WYpCOOdiFrl/VgXzoXO3Hn4Ip3/O93gmYIRA7lhupINsdxf6xx5AmYXZycFuSkHykQvXK2qBUoUto4XcQhWY972UACIphxZiJNQiz5zGKUldgI6mrssJTEAlIakFdxNOT3FM0GIeH4rVzQlDe9KMQAghBOC0ZQzAmHmWgrWzTB+LZ9jD5oFFABUT1x9Mcu9EkKVj9KoB0tiH5WSCr4CQKFlbMMQDTONgDSAt17qF6frq4lQOvPFjp54CkmQHEAFQO1SpU1No99tuMIGJe+HYg4AyiNDlwcjrZQXIq4wdIkk9Q6pSkrkuuMAkBUFZ58BqF8FehYQ7XGDIoPi/VYWcAFQC3LkFSU3eqJAsb6m97UX1fstm1qDHxo7XgChSxOjGmymYWJ7uEcp9SGbQj8t73drQK2cwgKUVzt7BitXPrJetFC+fjICT9FFLrz1RpEIUGkp80bl71C8pITIZ2EiRwiKXGdj5MKbAYBakKPKnM1zGj0lTWbKFj4BiEYAhHfz6azCjpJKipyVp57PHvB095oBAIsqhSlTUVVedqcnUya78GalIKyj0tJeSjn7FtvIOIqnqXSx3gfpzZUF80OFNxMAtyC3nwFgnLwFQwHASY3t+ZX7AsqU98/Q0NYwLOeyzwCob6MoPYJyZMJuNivyTHt/JgA91qG09zWYrKYoADAG5Hjt6GsvIdrZeq5a1JSiVaKg8PbI/6mCea9CRRmIDgC13nV6chjZ0HaZACCf47+ZD29kAMDu9Mx67m0/XaxECRvDCqjieYyCzgLAdLD+nhkB1saDwcyATObZ+Vl6SOswZaRFkgcxRjWzXQpzmRFgZRHOkmsDkGXJ4DqMxQSXfZ2m1JCZ9e25d0xBKwGIUlDbsOqEOwLAqKiq29m4DYBgvZUA3IqCZh5FCHaVh7BeQF7oZOAGQLQe4/LiMu+G3S7l3k6gqGX/q/M2ABcjtwHYAFxsgYu33xGwAbjYAhdvvyNgA3CxBS7e/l+3ltBwKurxowAAAABJRU5ErkJggg==;" vertex="1" parent="1">
          <mxGeometry x="1940" y="568" width="40" height="40" as="geometry" />
        </mxCell>
        <mxCell id="L1AszbLgewjzpD16x1e3-22" style="edgeStyle=orthogonalEdgeStyle;rounded=0;orthogonalLoop=1;jettySize=auto;html=1;entryX=0;entryY=0.5;entryDx=0;entryDy=0;exitX=1;exitY=0.5;exitDx=0;exitDy=0;" edge="1" parent="1" source="L1AszbLgewjzpD16x1e3-101" target="L1AszbLgewjzpD16x1e3-19">
          <mxGeometry relative="1" as="geometry">
            <mxPoint x="1980" y="628" as="sourcePoint" />
          </mxGeometry>
        </mxCell>
        <mxCell id="L1AszbLgewjzpD16x1e3-23" style="edgeStyle=orthogonalEdgeStyle;rounded=0;orthogonalLoop=1;jettySize=auto;html=1;entryX=0;entryY=0.5;entryDx=0;entryDy=0;" edge="1" parent="1" source="L1AszbLgewjzpD16x1e3-24" target="L1AszbLgewjzpD16x1e3-29">
          <mxGeometry relative="1" as="geometry" />
        </mxCell>
        <mxCell id="L1AszbLgewjzpD16x1e3-24" value="" style="shape=image;verticalLabelPosition=bottom;labelBackgroundColor=default;verticalAlign=top;aspect=fixed;imageAspect=0;image=data:image/png,iVBORw0KGgoAAAANSUhEUgAAAGAAAABgCAYAAADimHc4AAAAAXNSR0IArs4c6QAAAn5JREFUeF7tmttywkAMQ8P/f3SZdvoAdAatkb1q4PAaX3Z1rGyS4XLwiypwiXan+QGA8BAAAABhBcLtcQAAwgqE2+MAAIQVCLfHAQAIKxBujwM+EMBXeM+q/dah3Nrsd+cAuBkBAPz1w1ZNtjbDAWHaAACAOoC/r2+9K2xthgNwAA5YUUDEqMfYhKtf3tapFrt4CzvVnk61WAC8bLTWRG5BrXLWiwGgrllrBgBa5awXA0Bds9YMALTKWS8GgLpmrRkAaJWzXgwAdc1aMwDQKueHFzvjp4i3QgaAME4AAOBQh+q0RNEhjDZf/LwMgGEFcMCwwKo8AJRCw9cBMCywKg8ApdDwdQAMC6zKA0AptPm6AqIend38rdtVm9m6mMX3ArVmAJjUXAHdfHP5tXQ1TbVqPdGugG5+zy4WqwBgUaipMABMKbtYFwCLQk2FAWBK2cW6HQC6Dz23npv/KF13vbv6ANCTCoAHjdTQdAvWXQ8H6KG/izg9gOJ+ZbjrANmgGKDW87Sclbz47aa4Hxmu1qwmVjYoBqj1AKAoaDUcAA+K4YDqCBXj1cQBoChoNRwA/9zyOKA60sV4HFB0gBKsqP/2cOUoa39W8uJ7QEeP7arfNARAUv3jkP/etgbMSsYBPwpYGlrJAADAjrsTZ8AOlZ/0AAAAniugJiSs33h76xy1khcP4XEFwg0sDa1kAJzjKSg8oOPtrSG2knEADhgf74UG1hBbyTgABywM6HiINcRW8qIDOnqMq8ibcFJi70XTGjArGQec4wzogJz0h/rUYu3PSk6q8i69ARAmCQAAhBUIt8cBAAgrEG6PAwAQViDcHgcAIKxAuD0OAEBYgXD7K2WebGFb6dd2AAAAAElFTkSuQmCC;" vertex="1" parent="1">
          <mxGeometry x="1580" y="568" width="40" height="40" as="geometry" />
        </mxCell>
        <mxCell id="L1AszbLgewjzpD16x1e3-25" value="System" style="rounded=1;whiteSpace=wrap;html=1;fillColor=#f5f5f5;fontColor=#333333;strokeColor=#666666;fontStyle=1" vertex="1" parent="1">
          <mxGeometry x="1350" y="578" width="50" height="20" as="geometry" />
        </mxCell>
        <mxCell id="L1AszbLgewjzpD16x1e3-26" style="edgeStyle=orthogonalEdgeStyle;rounded=0;orthogonalLoop=1;jettySize=auto;html=1;entryX=0;entryY=0.5;entryDx=0;entryDy=0;" edge="1" parent="1" source="L1AszbLgewjzpD16x1e3-25" target="L1AszbLgewjzpD16x1e3-28">
          <mxGeometry relative="1" as="geometry" />
        </mxCell>
        <mxCell id="L1AszbLgewjzpD16x1e3-27" style="edgeStyle=orthogonalEdgeStyle;rounded=0;orthogonalLoop=1;jettySize=auto;html=1;entryX=0;entryY=0.5;entryDx=0;entryDy=0;" edge="1" parent="1" source="L1AszbLgewjzpD16x1e3-28" target="L1AszbLgewjzpD16x1e3-24">
          <mxGeometry relative="1" as="geometry" />
        </mxCell>
        <mxCell id="L1AszbLgewjzpD16x1e3-28" value="" style="shape=image;verticalLabelPosition=bottom;labelBackgroundColor=default;verticalAlign=top;aspect=fixed;imageAspect=0;image=data:image/png,iVBORw0KGgoAAAANSUhEUgAAAGAAAABgCAYAAADimHc4AAAAAXNSR0IArs4c6QAAA2RJREFUeF7tm+FNxTAMhPM2gU1gE5gEmAQ2gU1gE8AoFdKDNndWWsd5V+mJP6c4uc9OqNueiq5QB06h0RW8CEBwEgiAAAQ7EBxeFSAAwQ4Eh1cFCECwA8HhVQECEOxAcHhVQFIAV6WUh1LKXfD8Rwj/8e2D/e7rX2pOngow89+pKJchNgi3LAQPgGdl/mpGvVUIcMp5AFj2WxXo+uuAVcE1Y4wHwCcT4AK1lKeUuJopANtZRXlKiQUAqmfKU0osADkAeKBCKxtE1NqCqfVTYrACPGMO4i00DQGAbNpPJAD7eQuNnBqA9Y9u6m/podjd4xO09DFEKQHYnbO1MMz8/y5XHyWIR0oArxvmLz7SfRQB+N+B8/+CbNt5BM2ylu4LqI2SpasApnuaoQrSAWC6p3Q3MaAMpgZgfo5+I5cOAHIAL4ls+7+dAyNf6QDYc2M7B5BLhzDgkicDkCrIcACbPZ71r9rq2W89E2jdiGUxPy2AJQPUijirhaMqANjZ0kg8O0D4FpTGXWCiAgCYtKdEAPZ0Fxh7eADAGqaWUOcqJa62tTJganeBxVGeUmIBAOwne1kCAHlKiShPKXGdBtNepmY+iZjylBJXg5C+ziRe0sugu7keAPpAY52LvZpuD5XgywPABm811+AJTCA0w5dXayjzbe1eABP4NsYSBCCYgwAIQLADweG9FaDvhH/B6Tvh4CRewrveb/VUAPOm2yDeHDYN+tm2B4BaEes86Tf7PADUjt4uKMpTSqx2NLSVUZ5SYgEQAMiBYBGV1JQYrADPmMGeUeFbZyC1fkosAD8OCACVr/3FAtDfU2rE1AD0cu4Z66POgNYTNFcfhcrbfuKUFYA8yKf7KP08pUZKB0DfCW/wPWILYrqnGaogXQUw3VO6m0htHn3EUwMwizxV2cdabJR0AJADeFk6/WYZ5llXVToA+k44+BC28EgVZDiA0/aCWjdiWcxPC2ApQrUigloRXU/B4MHSHcLBfnUPLwDdLeUGFADOr+7q4QF0X3GyAak7eUpcjWhlQDK/uk+X8pQSCwAEi/KUEgvAGACY9jI048lEVFJT4moU0teZzFN4OXQ31wNA3wmv89B3wnCu9hPqO+F+Xh4/kmcLOn6WE0cUgGC4AiAAwQ4Eh1cFCECwA8HhVQHBAL4ApQTAYSMnP4sAAAAASUVORK5CYII=;" vertex="1" parent="1">
          <mxGeometry x="1440" y="568" width="40" height="40" as="geometry" />
        </mxCell>
        <mxCell id="L1AszbLgewjzpD16x1e3-29" value="" style="shape=image;verticalLabelPosition=bottom;labelBackgroundColor=default;verticalAlign=top;aspect=fixed;imageAspect=0;image=data:image/png,iVBORw0KGgoAAAANSUhEUgAAAGAAAABgCAYAAADimHc4AAAAAXNSR0IArs4c6QAABMdJREFUeF7tnQuO1DAMhrM3gZMAJwFOApwEbgKcBG4C/GIsRdW0/p2ktZ2m0moXTZuHP7/ipMNLWZerBF5ce1+dlwXAWQkWgAXAWQLO3S8LWACcJeDc/bKABaBLAm8fT//oasXx4ewW8Oshu9eOMuzqOjOAT/9m/vkx+2+llI9dknB6OCuAV6UU0X6I7vcDQDpXlBXA91KK+H/RXQj/nZMiN3ebEcCHUsrXnRnDDcEdpbkyAoDrgQt6dsEVpQrI2QBA82EBR1eqgJwJAHw+fL92pQrImQA8C7x7MNK4oiwAjgLvHoQUATkLgD+a33nyOawAaSl+h70yALC4nq2gwwfk6ADYwHuk4bCCsCvk6AB6tF+ghA7IkQHUxbajbAef7S3M5DkU7b5EDARRAWyLbXuyk9qPtj4IG5CjAmBcT118s94fxhgiAmADL2o+kmJaLCZUQI4I4KjYduTTmcVauIAcDQATePfq/rACFOu2+wSh1waRAIxwI0wboYp1kQAwgZRZ2TIl6zC7Z1EAMP4broQZL6wAMLW1QYhiHTOhK1I2JvBaSgoM0BABOQKAs1zGKJd2qgJ6A2Bzfov2i8BSBGRvAIyW9tRxmLTW1RV5AmD89KnmXzXuFpA9AbTscp0FxK1Y5wWAcT1nCXuvXWaNMXxMHgDYwDt8skSDLcGeaHb/Fg8AEbXfbffsagBMVtKlUQMe7sm6zN1fCYDJy80TOOGBSwPylQAiu54tx8uKdVcCOEFZ8ze5ADgzXAAWAGcJOHe/LGABcJaAc/fLAhYAZwk4d78s4P/m/fvqPBH+jR85dYff+Pn5OOY+9IWPOwNAXQqbQtrpia2NAABK10NOW7cA8N5IaRlzLUSUw3EQwCr4ZyAAoevF8JbJZAbAnMCwRoWu6uldALDnRq3Cr/cRml4IvAOAs4XfBeEOAK4sg5uPuMwO4ErhiyWYNvdnBmA9dwTB1fm+rAfw+w3xJSF1/KA392cGwGo/+74Ae+oaIGhXdAaAljZr7dHSXKZ9VvutKaSsmuW76o6yJuq0HTOZbScjBHQ08BHtM8fdrcKvx8yc7qCsYFYAGsTeTXc2tVVjwYwAGPejCoZYkTHHbFQrmxGAVm4wpYkKCC3Qq5Y2IwBNKFRwJCwAt2ix4JYAtAA8EoB20FgNxDNagBaA6684IBV99zYtDiwAT0Q3EgCa14AfKvmMFqC5oBEZkHDVMq5bWoAWhNXU0OCXNAC3DMIaAFUoBgDdKe+MLkjTSrb4pnHQMiA8r2ZcMwLQMhNTtfKAgmZpeFQN+DMCwMQZ4fTEAm0BhjFQrm5WAJobEitoOd/DCJ9yP7jpDACa7+z9nBkzW60UEMyJBkublPbPDABzY4KkKAMCM4SG44fyt2xJYjsSf2v/b0GtWPRag9Em64ZMr4Zrz1vGzLoLrU/L57T2z24BmJ/FbViEvHevSfh3ACAQmK8w6wWglh2edWAxZ3leKz71TkR7vmXMZ1uCWfNlki2TyQhALAHvATAnGjQlqD/v2mG7EwARGrIZBOe0x9Mt2hH1XggfaWr9Zgw7VvcXNNiBZrlPYEi+v/eKEgQ/5K2YWjAtLiiLYFOMcwFwxrQALADOEnDuflnAAuAsAefulwUsAM4ScO7+L8OBGnDs7MxWAAAAAElFTkSuQmCC;" vertex="1" parent="1">
          <mxGeometry x="1760" y="568" width="40" height="40" as="geometry" />
        </mxCell>
        <mxCell id="L1AszbLgewjzpD16x1e3-30" value="Source Layer" style="rounded=1;whiteSpace=wrap;html=1;dashed=1;dashPattern=1 1;strokeColor=#9673a6;strokeWidth=2;align=center;verticalAlign=bottom;spacingLeft=0;spacingRight=0;fontFamily=Helvetica;fontSize=12;fontColor=#9673A6;fontStyle=1;fillColor=#E1D5E7;fillOpacity=30;labelPosition=center;verticalLabelPosition=top;" vertex="1" parent="1">
          <mxGeometry x="1340" y="28" width="160" height="400" as="geometry" />
        </mxCell>
        <mxCell id="L1AszbLgewjzpD16x1e3-31" value="Integration Layer" style="rounded=1;whiteSpace=wrap;html=1;dashed=1;dashPattern=1 1;strokeColor=#82b366;strokeWidth=2;align=center;verticalAlign=bottom;spacingLeft=0;spacingRight=0;fontFamily=Helvetica;fontSize=12;fontColor=#82B366;fontStyle=1;fillColor=#D5E8D4;fillOpacity=30;labelPosition=center;verticalLabelPosition=top;" vertex="1" parent="1">
          <mxGeometry x="1520" y="28" width="160" height="400" as="geometry" />
        </mxCell>
        <mxCell id="L1AszbLgewjzpD16x1e3-32" value="Core Layer" style="rounded=1;whiteSpace=wrap;html=1;dashed=1;dashPattern=1 1;strokeColor=#b85450;strokeWidth=2;align=center;verticalAlign=bottom;spacingLeft=0;spacingRight=0;fontFamily=Helvetica;fontSize=12;fontColor=#B85450;fontStyle=1;fillColor=#F8CECC;fillOpacity=30;labelPosition=center;verticalLabelPosition=top;" vertex="1" parent="1">
          <mxGeometry x="1700" y="28" width="160" height="400" as="geometry" />
        </mxCell>
        <mxCell id="L1AszbLgewjzpD16x1e3-33" value="Business Logic Layer" style="rounded=1;whiteSpace=wrap;html=1;dashed=1;dashPattern=1 1;strokeColor=#d6b656;strokeWidth=2;align=center;verticalAlign=bottom;spacingLeft=0;spacingRight=0;fontFamily=Helvetica;fontSize=12;fontColor=#D6B656;fontStyle=1;fillColor=#FFF2CC;fillOpacity=30;labelPosition=center;verticalLabelPosition=top;" vertex="1" parent="1">
          <mxGeometry x="1880" y="28" width="160" height="400" as="geometry" />
        </mxCell>
        <mxCell id="L1AszbLgewjzpD16x1e3-34" value="Presentation Layer" style="rounded=1;whiteSpace=wrap;html=1;dashed=1;dashPattern=1 1;strokeColor=#6c8ebf;strokeWidth=2;align=center;verticalAlign=bottom;spacingLeft=0;spacingRight=0;fontFamily=Helvetica;fontSize=12;fontColor=#6C8EBF;fontStyle=1;fillColor=#DAE8FC;fillOpacity=30;labelPosition=center;verticalLabelPosition=top;" vertex="1" parent="1">
          <mxGeometry x="2060" y="28" width="160" height="400" as="geometry" />
        </mxCell>
        <mxCell id="L1AszbLgewjzpD16x1e3-35" style="edgeStyle=none;shape=connector;rounded=0;orthogonalLoop=1;jettySize=auto;html=1;entryX=0;entryY=0.5;entryDx=0;entryDy=0;strokeColor=#666666;strokeWidth=20;align=right;verticalAlign=bottom;fontFamily=Helvetica;fontSize=9;fontColor=#333333;fontStyle=1;labelBackgroundColor=default;endArrow=none;fillColor=#666666;fillOpacity=50;strokeOpacity=50;" edge="1" parent="1" source="L1AszbLgewjzpD16x1e3-36" target="L1AszbLgewjzpD16x1e3-39">
          <mxGeometry relative="1" as="geometry" />
        </mxCell>
        <mxCell id="L1AszbLgewjzpD16x1e3-36" value="" style="shape=image;verticalLabelPosition=bottom;labelBackgroundColor=default;verticalAlign=top;aspect=fixed;imageAspect=0;image=data:image/png,iVBORw0KGgoAAAANSUhEUgAAAGAAAABgCAYAAADimHc4AAAAAXNSR0IArs4c6QAABMdJREFUeF7tnQuO1DAMhrM3gZMAJwFOApwEbgKcBG4C/GIsRdW0/p2ktZ2m0moXTZuHP7/ipMNLWZerBF5ce1+dlwXAWQkWgAXAWQLO3S8LWACcJeDc/bKABaBLAm8fT//oasXx4ewW8Oshu9eOMuzqOjOAT/9m/vkx+2+llI9dknB6OCuAV6UU0X6I7vcDQDpXlBXA91KK+H/RXQj/nZMiN3ebEcCHUsrXnRnDDcEdpbkyAoDrgQt6dsEVpQrI2QBA82EBR1eqgJwJAHw+fL92pQrImQA8C7x7MNK4oiwAjgLvHoQUATkLgD+a33nyOawAaSl+h70yALC4nq2gwwfk6ADYwHuk4bCCsCvk6AB6tF+ghA7IkQHUxbajbAef7S3M5DkU7b5EDARRAWyLbXuyk9qPtj4IG5CjAmBcT118s94fxhgiAmADL2o+kmJaLCZUQI4I4KjYduTTmcVauIAcDQATePfq/rACFOu2+wSh1waRAIxwI0wboYp1kQAwgZRZ2TIl6zC7Z1EAMP4broQZL6wAMLW1QYhiHTOhK1I2JvBaSgoM0BABOQKAs1zGKJd2qgJ6A2Bzfov2i8BSBGRvAIyW9tRxmLTW1RV5AmD89KnmXzXuFpA9AbTscp0FxK1Y5wWAcT1nCXuvXWaNMXxMHgDYwDt8skSDLcGeaHb/Fg8AEbXfbffsagBMVtKlUQMe7sm6zN1fCYDJy80TOOGBSwPylQAiu54tx8uKdVcCOEFZ8ze5ADgzXAAWAGcJOHe/LGABcJaAc/fLAhYAZwk4d78s4P/m/fvqPBH+jR85dYff+Pn5OOY+9IWPOwNAXQqbQtrpia2NAABK10NOW7cA8N5IaRlzLUSUw3EQwCr4ZyAAoevF8JbJZAbAnMCwRoWu6uldALDnRq3Cr/cRml4IvAOAs4XfBeEOAK4sg5uPuMwO4ErhiyWYNvdnBmA9dwTB1fm+rAfw+w3xJSF1/KA392cGwGo/+74Ae+oaIGhXdAaAljZr7dHSXKZ9VvutKaSsmuW76o6yJuq0HTOZbScjBHQ08BHtM8fdrcKvx8yc7qCsYFYAGsTeTXc2tVVjwYwAGPejCoZYkTHHbFQrmxGAVm4wpYkKCC3Qq5Y2IwBNKFRwJCwAt2ix4JYAtAA8EoB20FgNxDNagBaA6684IBV99zYtDiwAT0Q3EgCa14AfKvmMFqC5oBEZkHDVMq5bWoAWhNXU0OCXNAC3DMIaAFUoBgDdKe+MLkjTSrb4pnHQMiA8r2ZcMwLQMhNTtfKAgmZpeFQN+DMCwMQZ4fTEAm0BhjFQrm5WAJobEitoOd/DCJ9yP7jpDACa7+z9nBkzW60UEMyJBkublPbPDABzY4KkKAMCM4SG44fyt2xJYjsSf2v/b0GtWPRag9Em64ZMr4Zrz1vGzLoLrU/L57T2z24BmJ/FbViEvHevSfh3ACAQmK8w6wWglh2edWAxZ3leKz71TkR7vmXMZ1uCWfNlki2TyQhALAHvATAnGjQlqD/v2mG7EwARGrIZBOe0x9Mt2hH1XggfaWr9Zgw7VvcXNNiBZrlPYEi+v/eKEgQ/5K2YWjAtLiiLYFOMcwFwxrQALADOEnDuflnAAuAsAefulwUsAM4ScO7+L8OBGnDs7MxWAAAAAElFTkSuQmCC;" vertex="1" parent="1">
          <mxGeometry x="1760" y="48" width="40" height="40" as="geometry" />
        </mxCell>
        <mxCell id="L1AszbLgewjzpD16x1e3-37" value="" style="shape=image;verticalLabelPosition=bottom;labelBackgroundColor=default;verticalAlign=top;aspect=fixed;imageAspect=0;image=data:image/png,iVBORw0KGgoAAAANSUhEUgAAAGAAAABgCAYAAADimHc4AAAAAXNSR0IArs4c6QAABMdJREFUeF7tnQuO1DAMhrM3gZMAJwFOApwEbgKcBG4C/GIsRdW0/p2ktZ2m0moXTZuHP7/ipMNLWZerBF5ce1+dlwXAWQkWgAXAWQLO3S8LWACcJeDc/bKABaBLAm8fT//oasXx4ewW8Oshu9eOMuzqOjOAT/9m/vkx+2+llI9dknB6OCuAV6UU0X6I7vcDQDpXlBXA91KK+H/RXQj/nZMiN3ebEcCHUsrXnRnDDcEdpbkyAoDrgQt6dsEVpQrI2QBA82EBR1eqgJwJAHw+fL92pQrImQA8C7x7MNK4oiwAjgLvHoQUATkLgD+a33nyOawAaSl+h70yALC4nq2gwwfk6ADYwHuk4bCCsCvk6AB6tF+ghA7IkQHUxbajbAef7S3M5DkU7b5EDARRAWyLbXuyk9qPtj4IG5CjAmBcT118s94fxhgiAmADL2o+kmJaLCZUQI4I4KjYduTTmcVauIAcDQATePfq/rACFOu2+wSh1waRAIxwI0wboYp1kQAwgZRZ2TIl6zC7Z1EAMP4broQZL6wAMLW1QYhiHTOhK1I2JvBaSgoM0BABOQKAs1zGKJd2qgJ6A2Bzfov2i8BSBGRvAIyW9tRxmLTW1RV5AmD89KnmXzXuFpA9AbTscp0FxK1Y5wWAcT1nCXuvXWaNMXxMHgDYwDt8skSDLcGeaHb/Fg8AEbXfbffsagBMVtKlUQMe7sm6zN1fCYDJy80TOOGBSwPylQAiu54tx8uKdVcCOEFZ8ze5ADgzXAAWAGcJOHe/LGABcJaAc/fLAhYAZwk4d78s4P/m/fvqPBH+jR85dYff+Pn5OOY+9IWPOwNAXQqbQtrpia2NAABK10NOW7cA8N5IaRlzLUSUw3EQwCr4ZyAAoevF8JbJZAbAnMCwRoWu6uldALDnRq3Cr/cRml4IvAOAs4XfBeEOAK4sg5uPuMwO4ErhiyWYNvdnBmA9dwTB1fm+rAfw+w3xJSF1/KA392cGwGo/+74Ae+oaIGhXdAaAljZr7dHSXKZ9VvutKaSsmuW76o6yJuq0HTOZbScjBHQ08BHtM8fdrcKvx8yc7qCsYFYAGsTeTXc2tVVjwYwAGPejCoZYkTHHbFQrmxGAVm4wpYkKCC3Qq5Y2IwBNKFRwJCwAt2ix4JYAtAA8EoB20FgNxDNagBaA6684IBV99zYtDiwAT0Q3EgCa14AfKvmMFqC5oBEZkHDVMq5bWoAWhNXU0OCXNAC3DMIaAFUoBgDdKe+MLkjTSrb4pnHQMiA8r2ZcMwLQMhNTtfKAgmZpeFQN+DMCwMQZ4fTEAm0BhjFQrm5WAJobEitoOd/DCJ9yP7jpDACa7+z9nBkzW60UEMyJBkublPbPDABzY4KkKAMCM4SG44fyt2xJYjsSf2v/b0GtWPRag9Em64ZMr4Zrz1vGzLoLrU/L57T2z24BmJ/FbViEvHevSfh3ACAQmK8w6wWglh2edWAxZ3leKz71TkR7vmXMZ1uCWfNlki2TyQhALAHvATAnGjQlqD/v2mG7EwARGrIZBOe0x9Mt2hH1XggfaWr9Zgw7VvcXNNiBZrlPYEi+v/eKEgQ/5K2YWjAtLiiLYFOMcwFwxrQALADOEnDuflnAAuAsAefulwUsAM4ScO7+L8OBGnDs7MxWAAAAAElFTkSuQmCC;" vertex="1" parent="1">
          <mxGeometry x="1760" y="88" width="40" height="40" as="geometry" />
        </mxCell>
        <mxCell id="L1AszbLgewjzpD16x1e3-38" value="" style="endArrow=none;html=1;rounded=0;strokeColor=#666666;align=right;verticalAlign=bottom;fontFamily=Helvetica;fontSize=9;fontColor=#333333;fontStyle=1;fillColor=#666666;strokeWidth=20;fillOpacity=50;strokeOpacity=50;entryX=0;entryY=0.5;entryDx=0;entryDy=0;" edge="1" parent="1" target="L1AszbLgewjzpD16x1e3-36">
          <mxGeometry width="50" height="50" relative="1" as="geometry">
            <mxPoint x="1320" y="68" as="sourcePoint" />
            <mxPoint x="1560" y="-92" as="targetPoint" />
          </mxGeometry>
        </mxCell>
        <mxCell id="L1AszbLgewjzpD16x1e3-39" value="" style="shape=image;verticalLabelPosition=bottom;labelBackgroundColor=default;verticalAlign=top;aspect=fixed;imageAspect=0;image=data:image/png,iVBORw0KGgoAAAANSUhEUgAAAGAAAABgCAYAAADimHc4AAAAAXNSR0IArs4c6QAABYhJREFUeF7tXIux1DAMzKsEqASoBKgEqASoBKgEqARY5sT4crnsSrajvHnKzJuDOXtl7Vq2/Mk9LPWkMvCQar2MLyVAcicoAUqAZAaSzVcElADJDCSbrwgoAZIZSDZfEVACJDOQbL4ioARIZiDZfEVACZDMQLL5ioAnLMDzZVnw93JZlleXf+P/Py+c4BN/3/9+9znAE7DerLABMwo/0KTbKhkRYMR8cHgA0r4ty/KxIZBVh50frFAjthdfhN4vdrQA7/82x0P8uvUQAtEAIZTn7bIsn5SCjRAefAf0dtGjBEBvBBEYakY8EOK1GA2wCyE8jwffg3tT9ggBQP7Xyxjf1dhVZZUkz1DUmlDxu3yaLcAs8s1plaRIFMCGih8WYbYA6Pmjhp17ToKkF4SBaBSYCAz/lAL0TrgepzBxviMVolEAWAXf097/ZWdFgKfHWWaDfB+poK0P8AkR8ckeZahAJCIiI4+CH8Gddi1F7W1ISfdSSs+agfVST6fYIpPhn0qA30JrkEaixyuP0nuVuaBnTlLwFV+uyswYgpTFT6Q3KXMKE1XB2COR4Z9CADb8RHuSsphjwiqRtEciwz+FACzM2bi/5wTrwRjS0EvvPb0CMPxTCIANsL3MBeliZHcTzjECWXT1TsQM/xQCsAkYixrbEvY2mBHICGL1WXsYPqt/8/2MSXimAHCA4TOfWH1GIsNn9adnQWwI6skkWIbFeuiTiICahB0xMDScLnZnpaGAZ+KyNJFFEKOO4bP6h8wBLFNBIyKOMGGByzKsXgEY/ikEUMdZjzOKqHCeRTSLIEYgw2f1D4kAGFF6K8opizK2+DKnlKjqyYAU/NMIoEYBGozMxW47tNvRuK6CIUPZjgYOW1/0Dj8M302+ErIh0Esltef22LC6SiSpUbnVHgU/5MfwMa1phbJ5Fmr0qpKyP+OJyHWbFPywHzMFQKOOOJRXzmujvZ8t7MLEW8XZAswUAeQgk1IOdSKTrwc/LMQRApgIIy9meYaFSOrpwQ+TP3sSXjfMc76755RnQoxkPh78LvKPFsAaGxXCS4x34vXid5OfJUArBFa4yPfbqyjt9XEMBb+CBzjAnIn/6AUY4sBjBzlqEn7sPE1rfwkwjVoNuATQeJpW6kgBbKLFpGtrA9toW3+2EzHK2v9xf9ReV5pBCiZtZWE3zPZMASwDweeMK+r2El/Pi3xrIm3dMAN7U7SRAlh+j0/vK0EjepRFRvStyjY93nqjx/C/jIySXgGM9Fm9vEcYu/auvtDX2mKLxR7sK5+iArAG9hA3um605yrb6SYEoiJ02cwrgL00kTHEjBAGx4qeIUTdzoiKTA+x2bg4gpQMDM8bL+qFAPPDtY2tRMCRR4tHiuEZx70cyNhMgOhJ0j0iLb2zTbZ7+f7W+uDZZdPOfldilFjKbQd1KFq3iUbangDe0NsixHqCvYA3irR2UTciA1O2oqOdcVeEewL0kI/ebT98MYpwhmNbz/brKKz8Vk9lx5vRKLCV/OZPK9wTwKu2POZ5mQmUtxTZc6cIZpRjyMjxprmwOdTdE0A9xLZLVdE3XgL8ylW8UaFkL97JuG3sJv6WAErvp5OLTNMxBdXrMWwu6Bma4ekNfkQAJVSPodVnRVnZMt96BbjB3xKAveHiudXso2h+aUYgu4jVMxHbZHx1kWxLADb+T7mkOp/7fxYYgUwAYDB+mCtXnEcEYIs31oDs7xmBzD9Wn/lXAhCGSgDWhTq/Zz349AJ0+n/66iVAskQlQAmQzECy+YqAEiCZgWTzFQElQDIDyebTIyDZ/6dlnqn9tNhI8LYESCC9NVkClADJDCSbrwgoAZIZSDZfEVACJDOQbL4ioARIZiDZfEVACZDMQLL5ioASIJmBZPMVAckC/AELVlVwx5VYugAAAABJRU5ErkJggg==;" vertex="1" parent="1">
          <mxGeometry x="2240" y="48" width="40" height="40" as="geometry" />
        </mxCell>
        <mxCell id="L1AszbLgewjzpD16x1e3-40" value="" style="shape=image;verticalLabelPosition=bottom;labelBackgroundColor=default;verticalAlign=top;aspect=fixed;imageAspect=0;image=data:image/png,iVBORw0KGgoAAAANSUhEUgAAAGAAAABgCAYAAADimHc4AAAAAXNSR0IArs4c6QAABMdJREFUeF7tnQuO1DAMhrM3gZMAJwFOApwEbgKcBG4C/GIsRdW0/p2ktZ2m0moXTZuHP7/ipMNLWZerBF5ce1+dlwXAWQkWgAXAWQLO3S8LWACcJeDc/bKABaBLAm8fT//oasXx4ewW8Oshu9eOMuzqOjOAT/9m/vkx+2+llI9dknB6OCuAV6UU0X6I7vcDQDpXlBXA91KK+H/RXQj/nZMiN3ebEcCHUsrXnRnDDcEdpbkyAoDrgQt6dsEVpQrI2QBA82EBR1eqgJwJAHw+fL92pQrImQA8C7x7MNK4oiwAjgLvHoQUATkLgD+a33nyOawAaSl+h70yALC4nq2gwwfk6ADYwHuk4bCCsCvk6AB6tF+ghA7IkQHUxbajbAef7S3M5DkU7b5EDARRAWyLbXuyk9qPtj4IG5CjAmBcT118s94fxhgiAmADL2o+kmJaLCZUQI4I4KjYduTTmcVauIAcDQATePfq/rACFOu2+wSh1waRAIxwI0wboYp1kQAwgZRZ2TIl6zC7Z1EAMP4broQZL6wAMLW1QYhiHTOhK1I2JvBaSgoM0BABOQKAs1zGKJd2qgJ6A2Bzfov2i8BSBGRvAIyW9tRxmLTW1RV5AmD89KnmXzXuFpA9AbTscp0FxK1Y5wWAcT1nCXuvXWaNMXxMHgDYwDt8skSDLcGeaHb/Fg8AEbXfbffsagBMVtKlUQMe7sm6zN1fCYDJy80TOOGBSwPylQAiu54tx8uKdVcCOEFZ8ze5ADgzXAAWAGcJOHe/LGABcJaAc/fLAhYAZwk4d78s4P/m/fvqPBH+jR85dYff+Pn5OOY+9IWPOwNAXQqbQtrpia2NAABK10NOW7cA8N5IaRlzLUSUw3EQwCr4ZyAAoevF8JbJZAbAnMCwRoWu6uldALDnRq3Cr/cRml4IvAOAs4XfBeEOAK4sg5uPuMwO4ErhiyWYNvdnBmA9dwTB1fm+rAfw+w3xJSF1/KA392cGwGo/+74Ae+oaIGhXdAaAljZr7dHSXKZ9VvutKaSsmuW76o6yJuq0HTOZbScjBHQ08BHtM8fdrcKvx8yc7qCsYFYAGsTeTXc2tVVjwYwAGPejCoZYkTHHbFQrmxGAVm4wpYkKCC3Qq5Y2IwBNKFRwJCwAt2ix4JYAtAA8EoB20FgNxDNagBaA6684IBV99zYtDiwAT0Q3EgCa14AfKvmMFqC5oBEZkHDVMq5bWoAWhNXU0OCXNAC3DMIaAFUoBgDdKe+MLkjTSrb4pnHQMiA8r2ZcMwLQMhNTtfKAgmZpeFQN+DMCwMQZ4fTEAm0BhjFQrm5WAJobEitoOd/DCJ9yP7jpDACa7+z9nBkzW60UEMyJBkublPbPDABzY4KkKAMCM4SG44fyt2xJYjsSf2v/b0GtWPRag9Em64ZMr4Zrz1vGzLoLrU/L57T2z24BmJ/FbViEvHevSfh3ACAQmK8w6wWglh2edWAxZ3leKz71TkR7vmXMZ1uCWfNlki2TyQhALAHvATAnGjQlqD/v2mG7EwARGrIZBOe0x9Mt2hH1XggfaWr9Zgw7VvcXNNiBZrlPYEi+v/eKEgQ/5K2YWjAtLiiLYFOMcwFwxrQALADOEnDuflnAAuAsAefulwUsAM4ScO7+L8OBGnDs7MxWAAAAAElFTkSuQmCC;" vertex="1" parent="1">
          <mxGeometry x="1760" y="168" width="40" height="40" as="geometry" />
        </mxCell>
        <mxCell id="L1AszbLgewjzpD16x1e3-41" value="" style="shape=image;verticalLabelPosition=bottom;labelBackgroundColor=default;verticalAlign=top;aspect=fixed;imageAspect=0;image=data:image/png,iVBORw0KGgoAAAANSUhEUgAAAGAAAABgCAYAAADimHc4AAAAAXNSR0IArs4c6QAABMdJREFUeF7tnQuO1DAMhrM3gZMAJwFOApwEbgKcBG4C/GIsRdW0/p2ktZ2m0moXTZuHP7/ipMNLWZerBF5ce1+dlwXAWQkWgAXAWQLO3S8LWACcJeDc/bKABaBLAm8fT//oasXx4ewW8Oshu9eOMuzqOjOAT/9m/vkx+2+llI9dknB6OCuAV6UU0X6I7vcDQDpXlBXA91KK+H/RXQj/nZMiN3ebEcCHUsrXnRnDDcEdpbkyAoDrgQt6dsEVpQrI2QBA82EBR1eqgJwJAHw+fL92pQrImQA8C7x7MNK4oiwAjgLvHoQUATkLgD+a33nyOawAaSl+h70yALC4nq2gwwfk6ADYwHuk4bCCsCvk6AB6tF+ghA7IkQHUxbajbAef7S3M5DkU7b5EDARRAWyLbXuyk9qPtj4IG5CjAmBcT118s94fxhgiAmADL2o+kmJaLCZUQI4I4KjYduTTmcVauIAcDQATePfq/rACFOu2+wSh1waRAIxwI0wboYp1kQAwgZRZ2TIl6zC7Z1EAMP4broQZL6wAMLW1QYhiHTOhK1I2JvBaSgoM0BABOQKAs1zGKJd2qgJ6A2Bzfov2i8BSBGRvAIyW9tRxmLTW1RV5AmD89KnmXzXuFpA9AbTscp0FxK1Y5wWAcT1nCXuvXWaNMXxMHgDYwDt8skSDLcGeaHb/Fg8AEbXfbffsagBMVtKlUQMe7sm6zN1fCYDJy80TOOGBSwPylQAiu54tx8uKdVcCOEFZ8ze5ADgzXAAWAGcJOHe/LGABcJaAc/fLAhYAZwk4d78s4P/m/fvqPBH+jR85dYff+Pn5OOY+9IWPOwNAXQqbQtrpia2NAABK10NOW7cA8N5IaRlzLUSUw3EQwCr4ZyAAoevF8JbJZAbAnMCwRoWu6uldALDnRq3Cr/cRml4IvAOAs4XfBeEOAK4sg5uPuMwO4ErhiyWYNvdnBmA9dwTB1fm+rAfw+w3xJSF1/KA392cGwGo/+74Ae+oaIGhXdAaAljZr7dHSXKZ9VvutKaSsmuW76o6yJuq0HTOZbScjBHQ08BHtM8fdrcKvx8yc7qCsYFYAGsTeTXc2tVVjwYwAGPejCoZYkTHHbFQrmxGAVm4wpYkKCC3Qq5Y2IwBNKFRwJCwAt2ix4JYAtAA8EoB20FgNxDNagBaA6684IBV99zYtDiwAT0Q3EgCa14AfKvmMFqC5oBEZkHDVMq5bWoAWhNXU0OCXNAC3DMIaAFUoBgDdKe+MLkjTSrb4pnHQMiA8r2ZcMwLQMhNTtfKAgmZpeFQN+DMCwMQZ4fTEAm0BhjFQrm5WAJobEitoOd/DCJ9yP7jpDACa7+z9nBkzW60UEMyJBkublPbPDABzY4KkKAMCM4SG44fyt2xJYjsSf2v/b0GtWPRag9Em64ZMr4Zrz1vGzLoLrU/L57T2z24BmJ/FbViEvHevSfh3ACAQmK8w6wWglh2edWAxZ3leKz71TkR7vmXMZ1uCWfNlki2TyQhALAHvATAnGjQlqD/v2mG7EwARGrIZBOe0x9Mt2hH1XggfaWr9Zgw7VvcXNNiBZrlPYEi+v/eKEgQ/5K2YWjAtLiiLYFOMcwFwxrQALADOEnDuflnAAuAsAefulwUsAM4ScO7+L8OBGnDs7MxWAAAAAElFTkSuQmCC;" vertex="1" parent="1">
          <mxGeometry x="1760" y="228" width="40" height="40" as="geometry" />
        </mxCell>
        <mxCell id="L1AszbLgewjzpD16x1e3-42" value="" style="shape=image;verticalLabelPosition=bottom;labelBackgroundColor=default;verticalAlign=top;aspect=fixed;imageAspect=0;image=data:image/png,iVBORw0KGgoAAAANSUhEUgAAAGAAAABgCAYAAADimHc4AAAAAXNSR0IArs4c6QAABMdJREFUeF7tnQuO1DAMhrM3gZMAJwFOApwEbgKcBG4C/GIsRdW0/p2ktZ2m0moXTZuHP7/ipMNLWZerBF5ce1+dlwXAWQkWgAXAWQLO3S8LWACcJeDc/bKABaBLAm8fT//oasXx4ewW8Oshu9eOMuzqOjOAT/9m/vkx+2+llI9dknB6OCuAV6UU0X6I7vcDQDpXlBXA91KK+H/RXQj/nZMiN3ebEcCHUsrXnRnDDcEdpbkyAoDrgQt6dsEVpQrI2QBA82EBR1eqgJwJAHw+fL92pQrImQA8C7x7MNK4oiwAjgLvHoQUATkLgD+a33nyOawAaSl+h70yALC4nq2gwwfk6ADYwHuk4bCCsCvk6AB6tF+ghA7IkQHUxbajbAef7S3M5DkU7b5EDARRAWyLbXuyk9qPtj4IG5CjAmBcT118s94fxhgiAmADL2o+kmJaLCZUQI4I4KjYduTTmcVauIAcDQATePfq/rACFOu2+wSh1waRAIxwI0wboYp1kQAwgZRZ2TIl6zC7Z1EAMP4broQZL6wAMLW1QYhiHTOhK1I2JvBaSgoM0BABOQKAs1zGKJd2qgJ6A2Bzfov2i8BSBGRvAIyW9tRxmLTW1RV5AmD89KnmXzXuFpA9AbTscp0FxK1Y5wWAcT1nCXuvXWaNMXxMHgDYwDt8skSDLcGeaHb/Fg8AEbXfbffsagBMVtKlUQMe7sm6zN1fCYDJy80TOOGBSwPylQAiu54tx8uKdVcCOEFZ8ze5ADgzXAAWAGcJOHe/LGABcJaAc/fLAhYAZwk4d78s4P/m/fvqPBH+jR85dYff+Pn5OOY+9IWPOwNAXQqbQtrpia2NAABK10NOW7cA8N5IaRlzLUSUw3EQwCr4ZyAAoevF8JbJZAbAnMCwRoWu6uldALDnRq3Cr/cRml4IvAOAs4XfBeEOAK4sg5uPuMwO4ErhiyWYNvdnBmA9dwTB1fm+rAfw+w3xJSF1/KA392cGwGo/+74Ae+oaIGhXdAaAljZr7dHSXKZ9VvutKaSsmuW76o6yJuq0HTOZbScjBHQ08BHtM8fdrcKvx8yc7qCsYFYAGsTeTXc2tVVjwYwAGPejCoZYkTHHbFQrmxGAVm4wpYkKCC3Qq5Y2IwBNKFRwJCwAt2ix4JYAtAA8EoB20FgNxDNagBaA6684IBV99zYtDiwAT0Q3EgCa14AfKvmMFqC5oBEZkHDVMq5bWoAWhNXU0OCXNAC3DMIaAFUoBgDdKe+MLkjTSrb4pnHQMiA8r2ZcMwLQMhNTtfKAgmZpeFQN+DMCwMQZ4fTEAm0BhjFQrm5WAJobEitoOd/DCJ9yP7jpDACa7+z9nBkzW60UEMyJBkublPbPDABzY4KkKAMCM4SG44fyt2xJYjsSf2v/b0GtWPRag9Em64ZMr4Zrz1vGzLoLrU/L57T2z24BmJ/FbViEvHevSfh3ACAQmK8w6wWglh2edWAxZ3leKz71TkR7vmXMZ1uCWfNlki2TyQhALAHvATAnGjQlqD/v2mG7EwARGrIZBOe0x9Mt2hH1XggfaWr9Zgw7VvcXNNiBZrlPYEi+v/eKEgQ/5K2YWjAtLiiLYFOMcwFwxrQALADOEnDuflnAAuAsAefulwUsAM4ScO7+L8OBGnDs7MxWAAAAAElFTkSuQmCC;" vertex="1" parent="1">
          <mxGeometry x="1760" y="268" width="40" height="40" as="geometry" />
        </mxCell>
        <mxCell id="L1AszbLgewjzpD16x1e3-43" value="" style="shape=image;verticalLabelPosition=bottom;labelBackgroundColor=default;verticalAlign=top;aspect=fixed;imageAspect=0;image=data:image/png,iVBORw0KGgoAAAANSUhEUgAAAGAAAABgCAYAAADimHc4AAAAAXNSR0IArs4c6QAABMdJREFUeF7tnQuO1DAMhrM3gZMAJwFOApwEbgKcBG4C/GIsRdW0/p2ktZ2m0moXTZuHP7/ipMNLWZerBF5ce1+dlwXAWQkWgAXAWQLO3S8LWACcJeDc/bKABaBLAm8fT//oasXx4ewW8Oshu9eOMuzqOjOAT/9m/vkx+2+llI9dknB6OCuAV6UU0X6I7vcDQDpXlBXA91KK+H/RXQj/nZMiN3ebEcCHUsrXnRnDDcEdpbkyAoDrgQt6dsEVpQrI2QBA82EBR1eqgJwJAHw+fL92pQrImQA8C7x7MNK4oiwAjgLvHoQUATkLgD+a33nyOawAaSl+h70yALC4nq2gwwfk6ADYwHuk4bCCsCvk6AB6tF+ghA7IkQHUxbajbAef7S3M5DkU7b5EDARRAWyLbXuyk9qPtj4IG5CjAmBcT118s94fxhgiAmADL2o+kmJaLCZUQI4I4KjYduTTmcVauIAcDQATePfq/rACFOu2+wSh1waRAIxwI0wboYp1kQAwgZRZ2TIl6zC7Z1EAMP4broQZL6wAMLW1QYhiHTOhK1I2JvBaSgoM0BABOQKAs1zGKJd2qgJ6A2Bzfov2i8BSBGRvAIyW9tRxmLTW1RV5AmD89KnmXzXuFpA9AbTscp0FxK1Y5wWAcT1nCXuvXWaNMXxMHgDYwDt8skSDLcGeaHb/Fg8AEbXfbffsagBMVtKlUQMe7sm6zN1fCYDJy80TOOGBSwPylQAiu54tx8uKdVcCOEFZ8ze5ADgzXAAWAGcJOHe/LGABcJaAc/fLAhYAZwk4d78s4P/m/fvqPBH+jR85dYff+Pn5OOY+9IWPOwNAXQqbQtrpia2NAABK10NOW7cA8N5IaRlzLUSUw3EQwCr4ZyAAoevF8JbJZAbAnMCwRoWu6uldALDnRq3Cr/cRml4IvAOAs4XfBeEOAK4sg5uPuMwO4ErhiyWYNvdnBmA9dwTB1fm+rAfw+w3xJSF1/KA392cGwGo/+74Ae+oaIGhXdAaAljZr7dHSXKZ9VvutKaSsmuW76o6yJuq0HTOZbScjBHQ08BHtM8fdrcKvx8yc7qCsYFYAGsTeTXc2tVVjwYwAGPejCoZYkTHHbFQrmxGAVm4wpYkKCC3Qq5Y2IwBNKFRwJCwAt2ix4JYAtAA8EoB20FgNxDNagBaA6684IBV99zYtDiwAT0Q3EgCa14AfKvmMFqC5oBEZkHDVMq5bWoAWhNXU0OCXNAC3DMIaAFUoBgDdKe+MLkjTSrb4pnHQMiA8r2ZcMwLQMhNTtfKAgmZpeFQN+DMCwMQZ4fTEAm0BhjFQrm5WAJobEitoOd/DCJ9yP7jpDACa7+z9nBkzW60UEMyJBkublPbPDABzY4KkKAMCM4SG44fyt2xJYjsSf2v/b0GtWPRag9Em64ZMr4Zrz1vGzLoLrU/L57T2z24BmJ/FbViEvHevSfh3ACAQmK8w6wWglh2edWAxZ3leKz71TkR7vmXMZ1uCWfNlki2TyQhALAHvATAnGjQlqD/v2mG7EwARGrIZBOe0x9Mt2hH1XggfaWr9Zgw7VvcXNNiBZrlPYEi+v/eKEgQ/5K2YWjAtLiiLYFOMcwFwxrQALADOEnDuflnAAuAsAefulwUsAM4ScO7+L8OBGnDs7MxWAAAAAElFTkSuQmCC;" vertex="1" parent="1">
          <mxGeometry x="1760" y="348" width="40" height="40" as="geometry" />
        </mxCell>
        <mxCell id="L1AszbLgewjzpD16x1e3-44" value="" style="endArrow=none;html=1;rounded=0;strokeColor=#666666;align=right;verticalAlign=bottom;fontFamily=Helvetica;fontSize=9;fontColor=#333333;fontStyle=1;fillColor=#666666;strokeWidth=20;fillOpacity=50;strokeOpacity=50;edgeStyle=orthogonalEdgeStyle;" edge="1" parent="1">
          <mxGeometry width="50" height="50" relative="1" as="geometry">
            <mxPoint x="1600" y="78" as="sourcePoint" />
            <mxPoint x="1760" y="108" as="targetPoint" />
            <Array as="points">
              <mxPoint x="1600" y="108" />
            </Array>
          </mxGeometry>
        </mxCell>
        <mxCell id="L1AszbLgewjzpD16x1e3-45" value="" style="endArrow=none;html=1;rounded=0;strokeColor=#666666;align=right;verticalAlign=bottom;fontFamily=Helvetica;fontSize=9;fontColor=#333333;fontStyle=1;fillColor=#666666;strokeWidth=20;fillOpacity=50;strokeOpacity=50;edgeStyle=orthogonalEdgeStyle;entryX=0;entryY=0.5;entryDx=0;entryDy=0;" edge="1" parent="1" target="L1AszbLgewjzpD16x1e3-46">
          <mxGeometry width="50" height="50" relative="1" as="geometry">
            <mxPoint x="1960" y="78" as="sourcePoint" />
            <mxPoint x="2120" y="108" as="targetPoint" />
            <Array as="points">
              <mxPoint x="1960" y="108" />
            </Array>
          </mxGeometry>
        </mxCell>
        <mxCell id="L1AszbLgewjzpD16x1e3-46" value="" style="shape=image;verticalLabelPosition=bottom;labelBackgroundColor=default;verticalAlign=top;aspect=fixed;imageAspect=0;image=data:image/png,iVBORw0KGgoAAAANSUhEUgAAAGAAAABgCAYAAADimHc4AAAAAXNSR0IArs4c6QAABJNJREFUeF7tnI2NFDEMhXOVAJUAlQCVAJUAlQCVAJXAPjSWRqu9sR2/jD2SRzoN6PL7PjtxMsk9jX5SFXhKrb0rHw0g2QgaQANIViC5+vaABpCsQHL17QENIFmB5OrbAxpAsgLJ1bcHNIBkBZKrbw9oAMkKJFffHtAAzAq8HGPg5/UY4832b/z/91YC3vj5efvdV3OpyQmv4AEQ+d1Np08OrQDixxjj8w6QI/t5SasD+OgU/l45gIA3AETJpyoAWP2XbahhCAcQbyt6Q0UAEP/7NsYzxJcySkKoBmCV+GUhVAMAy0eEs/KBJ7xaWYGn7EoAohOup9+YmD94MqxKWwUAhp5fxk5KZIN4H6GmrA/wBkS8tafMfFAFACKe95pqW0h6FFJ61gwlvKAKgL8G8RFGwuItD+YRzCdHT4m5oAIAWD484OiZsVbLnOKBagHvTlMBgDb8zFqqZTE3A9Yt8lGGCgC00BN7QLNbCZoXYEiDF6Q9FQAg+jmKXBAuzu5uanPBrHfRgFUAoE3AWDTJlrO341p42wBusftKAACmlZ9qhKmVb+asDUGRSEWLsNoDtnj9aP+nJ2HvwOtMvyoMRTO0CKvD0G33U1u1zgilgQWgSITltLPHySvMAVqkIi33iKWFn1Jmev/TG7ApYbFWJLXMB9riS8Sf8SqK1e8LqQLA6gVoOyIXOe2w347GcRVEPZbtaJQTWV/QQFQBgA5ZLZfReYsnMepRy6gEwLJ5pnbIkCB9/6fiECRtOuOjfJnvweh0JQ9YDQFzByIp60cdgzPFk1QEgF6xh6NSw07lIWjfNs/33SNTLDPhPmpkVQ9ggCgtfJmVoGMUhUdghYt4f38UZX88HUPNn8AHHEdzOEmv4AGcnhYtpQEkg2kADSBZgeTqK3vA/k6YrA1ko+3+vZ+IZcMOb5wfletKyVI/rr4SAIlw8F5xRF0u8ZW6yJcJQBZaeFsO5rItWDwj9Vbl2QBE9FVWHoGUcqHvLACsbYWIwNa84hnfzti4Ww1ALk1kDDFWwY/S4bPlUhCrAKze12eI6ylj2Y2aFQDO/LToETGadskcwQZgPd1gFUNCR9lkey7ef7Q+eLFt2snflbDWqaWjnqZgArCexTnq4P0FPE0M6+/3izpGBEbb6mYBiIgP65Y/rGEVNJpOtrbxR0BmFn20z5ssAN6hZ8l4OklFQmTPmSJURfnMyQKgncEXbeRQ1eyNl0mNTdm8XkHxAgYAi/UvC+NM0voTWcPo8FxwBgCKq/o1DOewnMwI940BQLvh4jnVHFaNXIAWXIRv2DAAaON/iUOwk2C0Q8OXAMCAPKkfJZtmYKH+hTJv3VvaQIqEsUKW9q8B6HAuD0Dv4rVThIw4lNk4BF1bXr31IQ1DmRvAfwVCGoYyN4AGoA8Q61OEjDiUuT2gPWC9fes1hIw4lLk9oIYH6DbSKZ5VgOEBLW9AgQYQEI+RtQEwVAyU0QAC4jGyNgCGioEyGkBAPEbWBsBQMVBGAwiIx8jaABgqBspoAAHxGFkbAEPFQBkNICAeI2sDYKgYKKMBBMRjZG0ADBUDZfwDcOHOYb3HQm8AAAAASUVORK5CYII=;" vertex="1" parent="1">
          <mxGeometry x="2240" y="88" width="40" height="40" as="geometry" />
        </mxCell>
        <mxCell id="L1AszbLgewjzpD16x1e3-47" value="" style="shape=image;verticalLabelPosition=bottom;labelBackgroundColor=default;verticalAlign=top;aspect=fixed;imageAspect=0;image=data:image/png,iVBORw0KGgoAAAANSUhEUgAAAGAAAABgCAYAAADimHc4AAAAAXNSR0IArs4c6QAABYhJREFUeF7tXIux1DAMzKsEqASoBKgEqASoBKgEqARY5sT4crnsSrajvHnKzJuDOXtl7Vq2/Mk9LPWkMvCQar2MLyVAcicoAUqAZAaSzVcElADJDCSbrwgoAZIZSDZfEVACJDOQbL4ioARIZiDZfEVACZDMQLL5ioAnLMDzZVnw93JZlleXf+P/Py+c4BN/3/9+9znAE7DerLABMwo/0KTbKhkRYMR8cHgA0r4ty/KxIZBVh50frFAjthdfhN4vdrQA7/82x0P8uvUQAtEAIZTn7bIsn5SCjRAefAf0dtGjBEBvBBEYakY8EOK1GA2wCyE8jwffg3tT9ggBQP7Xyxjf1dhVZZUkz1DUmlDxu3yaLcAs8s1plaRIFMCGih8WYbYA6Pmjhp17ToKkF4SBaBSYCAz/lAL0TrgepzBxviMVolEAWAXf097/ZWdFgKfHWWaDfB+poK0P8AkR8ckeZahAJCIiI4+CH8Gddi1F7W1ISfdSSs+agfVST6fYIpPhn0qA30JrkEaixyuP0nuVuaBnTlLwFV+uyswYgpTFT6Q3KXMKE1XB2COR4Z9CADb8RHuSsphjwiqRtEciwz+FACzM2bi/5wTrwRjS0EvvPb0CMPxTCIANsL3MBeliZHcTzjECWXT1TsQM/xQCsAkYixrbEvY2mBHICGL1WXsYPqt/8/2MSXimAHCA4TOfWH1GIsNn9adnQWwI6skkWIbFeuiTiICahB0xMDScLnZnpaGAZ+KyNJFFEKOO4bP6h8wBLFNBIyKOMGGByzKsXgEY/ikEUMdZjzOKqHCeRTSLIEYgw2f1D4kAGFF6K8opizK2+DKnlKjqyYAU/NMIoEYBGozMxW47tNvRuK6CIUPZjgYOW1/0Dj8M302+ErIh0Esltef22LC6SiSpUbnVHgU/5MfwMa1phbJ5Fmr0qpKyP+OJyHWbFPywHzMFQKOOOJRXzmujvZ8t7MLEW8XZAswUAeQgk1IOdSKTrwc/LMQRApgIIy9meYaFSOrpwQ+TP3sSXjfMc76755RnQoxkPh78LvKPFsAaGxXCS4x34vXid5OfJUArBFa4yPfbqyjt9XEMBb+CBzjAnIn/6AUY4sBjBzlqEn7sPE1rfwkwjVoNuATQeJpW6kgBbKLFpGtrA9toW3+2EzHK2v9xf9ReV5pBCiZtZWE3zPZMASwDweeMK+r2El/Pi3xrIm3dMAN7U7SRAlh+j0/vK0EjepRFRvStyjY93nqjx/C/jIySXgGM9Fm9vEcYu/auvtDX2mKLxR7sK5+iArAG9hA3um605yrb6SYEoiJ02cwrgL00kTHEjBAGx4qeIUTdzoiKTA+x2bg4gpQMDM8bL+qFAPPDtY2tRMCRR4tHiuEZx70cyNhMgOhJ0j0iLb2zTbZ7+f7W+uDZZdPOfldilFjKbQd1KFq3iUbangDe0NsixHqCvYA3irR2UTciA1O2oqOdcVeEewL0kI/ebT98MYpwhmNbz/brKKz8Vk9lx5vRKLCV/OZPK9wTwKu2POZ5mQmUtxTZc6cIZpRjyMjxprmwOdTdE0A9xLZLVdE3XgL8ylW8UaFkL97JuG3sJv6WAErvp5OLTNMxBdXrMWwu6Bma4ekNfkQAJVSPodVnRVnZMt96BbjB3xKAveHiudXso2h+aUYgu4jVMxHbZHx1kWxLADb+T7mkOp/7fxYYgUwAYDB+mCtXnEcEYIs31oDs7xmBzD9Wn/lXAhCGSgDWhTq/Zz349AJ0+n/66iVAskQlQAmQzECy+YqAEiCZgWTzFQElQDIDyebTIyDZ/6dlnqn9tNhI8LYESCC9NVkClADJDCSbrwgoAZIZSDZfEVACJDOQbL4ioARIZiDZfEVACZDMQLL5ioASIJmBZPMVAckC/AELVlVwx5VYugAAAABJRU5ErkJggg==;" vertex="1" parent="1">
          <mxGeometry x="2240" y="128" width="40" height="40" as="geometry" />
        </mxCell>
        <mxCell id="L1AszbLgewjzpD16x1e3-48" value="" style="endArrow=none;html=1;rounded=0;strokeColor=#666666;align=right;verticalAlign=bottom;fontFamily=Helvetica;fontSize=9;fontColor=#333333;fontStyle=1;fillColor=#666666;strokeWidth=20;fillOpacity=50;strokeOpacity=50;edgeStyle=orthogonalEdgeStyle;entryX=0;entryY=0.5;entryDx=0;entryDy=0;exitX=1;exitY=0.5;exitDx=0;exitDy=0;" edge="1" parent="1" source="L1AszbLgewjzpD16x1e3-37">
          <mxGeometry width="50" height="50" relative="1" as="geometry">
            <mxPoint x="1960" y="118" as="sourcePoint" />
            <mxPoint x="2240" y="148" as="targetPoint" />
            <Array as="points">
              <mxPoint x="1870" y="108" />
              <mxPoint x="1870" y="148" />
            </Array>
          </mxGeometry>
        </mxCell>
        <mxCell id="L1AszbLgewjzpD16x1e3-49" value="" style="shape=image;verticalLabelPosition=bottom;labelBackgroundColor=default;verticalAlign=top;aspect=fixed;imageAspect=0;image=data:image/png,iVBORw0KGgoAAAANSUhEUgAAAGAAAABgCAYAAADimHc4AAAAAXNSR0IArs4c6QAABYhJREFUeF7tXIux1DAMzKsEqASoBKgEqASoBKgEqARY5sT4crnsSrajvHnKzJuDOXtl7Vq2/Mk9LPWkMvCQar2MLyVAcicoAUqAZAaSzVcElADJDCSbrwgoAZIZSDZfEVACJDOQbL4ioARIZiDZfEVACZDMQLL5ioAnLMDzZVnw93JZlleXf+P/Py+c4BN/3/9+9znAE7DerLABMwo/0KTbKhkRYMR8cHgA0r4ty/KxIZBVh50frFAjthdfhN4vdrQA7/82x0P8uvUQAtEAIZTn7bIsn5SCjRAefAf0dtGjBEBvBBEYakY8EOK1GA2wCyE8jwffg3tT9ggBQP7Xyxjf1dhVZZUkz1DUmlDxu3yaLcAs8s1plaRIFMCGih8WYbYA6Pmjhp17ToKkF4SBaBSYCAz/lAL0TrgepzBxviMVolEAWAXf097/ZWdFgKfHWWaDfB+poK0P8AkR8ckeZahAJCIiI4+CH8Gddi1F7W1ISfdSSs+agfVST6fYIpPhn0qA30JrkEaixyuP0nuVuaBnTlLwFV+uyswYgpTFT6Q3KXMKE1XB2COR4Z9CADb8RHuSsphjwiqRtEciwz+FACzM2bi/5wTrwRjS0EvvPb0CMPxTCIANsL3MBeliZHcTzjECWXT1TsQM/xQCsAkYixrbEvY2mBHICGL1WXsYPqt/8/2MSXimAHCA4TOfWH1GIsNn9adnQWwI6skkWIbFeuiTiICahB0xMDScLnZnpaGAZ+KyNJFFEKOO4bP6h8wBLFNBIyKOMGGByzKsXgEY/ikEUMdZjzOKqHCeRTSLIEYgw2f1D4kAGFF6K8opizK2+DKnlKjqyYAU/NMIoEYBGozMxW47tNvRuK6CIUPZjgYOW1/0Dj8M302+ErIh0Esltef22LC6SiSpUbnVHgU/5MfwMa1phbJ5Fmr0qpKyP+OJyHWbFPywHzMFQKOOOJRXzmujvZ8t7MLEW8XZAswUAeQgk1IOdSKTrwc/LMQRApgIIy9meYaFSOrpwQ+TP3sSXjfMc76755RnQoxkPh78LvKPFsAaGxXCS4x34vXid5OfJUArBFa4yPfbqyjt9XEMBb+CBzjAnIn/6AUY4sBjBzlqEn7sPE1rfwkwjVoNuATQeJpW6kgBbKLFpGtrA9toW3+2EzHK2v9xf9ReV5pBCiZtZWE3zPZMASwDweeMK+r2El/Pi3xrIm3dMAN7U7SRAlh+j0/vK0EjepRFRvStyjY93nqjx/C/jIySXgGM9Fm9vEcYu/auvtDX2mKLxR7sK5+iArAG9hA3um605yrb6SYEoiJ02cwrgL00kTHEjBAGx4qeIUTdzoiKTA+x2bg4gpQMDM8bL+qFAPPDtY2tRMCRR4tHiuEZx70cyNhMgOhJ0j0iLb2zTbZ7+f7W+uDZZdPOfldilFjKbQd1KFq3iUbangDe0NsixHqCvYA3irR2UTciA1O2oqOdcVeEewL0kI/ebT98MYpwhmNbz/brKKz8Vk9lx5vRKLCV/OZPK9wTwKu2POZ5mQmUtxTZc6cIZpRjyMjxprmwOdTdE0A9xLZLVdE3XgL8ylW8UaFkL97JuG3sJv6WAErvp5OLTNMxBdXrMWwu6Bma4ekNfkQAJVSPodVnRVnZMt96BbjB3xKAveHiudXso2h+aUYgu4jVMxHbZHx1kWxLADb+T7mkOp/7fxYYgUwAYDB+mCtXnEcEYIs31oDs7xmBzD9Wn/lXAhCGSgDWhTq/Zz349AJ0+n/66iVAskQlQAmQzECy+YqAEiCZgWTzFQElQDIDyebTIyDZ/6dlnqn9tNhI8LYESCC9NVkClADJDCSbrwgoAZIZSDZfEVACJDOQbL4ioARIZiDZfEVACZDMQLL5ioASIJmBZPMVAckC/AELVlVwx5VYugAAAABJRU5ErkJggg==;" vertex="1" parent="1">
          <mxGeometry x="2240" y="168" width="40" height="40" as="geometry" />
        </mxCell>
        <mxCell id="L1AszbLgewjzpD16x1e3-50" value="" style="endArrow=none;html=1;rounded=0;strokeColor=#666666;align=right;verticalAlign=bottom;fontFamily=Helvetica;fontSize=9;fontColor=#333333;fontStyle=1;fillColor=#666666;strokeWidth=20;fillOpacity=50;strokeOpacity=50;entryX=0;entryY=0.5;entryDx=0;entryDy=0;" edge="1" parent="1" target="L1AszbLgewjzpD16x1e3-40">
          <mxGeometry width="50" height="50" relative="1" as="geometry">
            <mxPoint x="1320" y="188" as="sourcePoint" />
            <mxPoint x="1760" y="187.67000000000007" as="targetPoint" />
          </mxGeometry>
        </mxCell>
        <mxCell id="L1AszbLgewjzpD16x1e3-51" value="" style="endArrow=none;html=1;rounded=0;strokeColor=#666666;align=right;verticalAlign=bottom;fontFamily=Helvetica;fontSize=9;fontColor=#333333;fontStyle=1;fillColor=#666666;strokeWidth=20;fillOpacity=50;strokeOpacity=50;entryX=0;entryY=0.5;entryDx=0;entryDy=0;exitX=1;exitY=0.5;exitDx=0;exitDy=0;" edge="1" parent="1" source="L1AszbLgewjzpD16x1e3-40" target="L1AszbLgewjzpD16x1e3-49">
          <mxGeometry width="50" height="50" relative="1" as="geometry">
            <mxPoint x="1800" y="187.67000000000007" as="sourcePoint" />
            <mxPoint x="2240" y="187.67000000000007" as="targetPoint" />
          </mxGeometry>
        </mxCell>
        <mxCell id="L1AszbLgewjzpD16x1e3-52" value="" style="endArrow=none;html=1;rounded=0;strokeColor=#666666;align=right;verticalAlign=bottom;fontFamily=Helvetica;fontSize=9;fontColor=#333333;fontStyle=1;fillColor=#666666;strokeWidth=20;fillOpacity=50;strokeOpacity=50;entryX=0;entryY=0.5;entryDx=0;entryDy=0;" edge="1" parent="1" target="L1AszbLgewjzpD16x1e3-41">
          <mxGeometry width="50" height="50" relative="1" as="geometry">
            <mxPoint x="1320" y="248" as="sourcePoint" />
            <mxPoint x="1760" y="247.60000000000014" as="targetPoint" />
          </mxGeometry>
        </mxCell>
        <mxCell id="L1AszbLgewjzpD16x1e3-53" value="" style="endArrow=none;html=1;rounded=0;strokeColor=#666666;align=right;verticalAlign=bottom;fontFamily=Helvetica;fontSize=9;fontColor=#333333;fontStyle=1;fillColor=#666666;strokeWidth=20;fillOpacity=50;strokeOpacity=50;edgeStyle=orthogonalEdgeStyle;" edge="1" parent="1">
          <mxGeometry width="50" height="50" relative="1" as="geometry">
            <mxPoint x="1600" y="258" as="sourcePoint" />
            <mxPoint x="1760" y="288" as="targetPoint" />
            <Array as="points">
              <mxPoint x="1600" y="288" />
            </Array>
          </mxGeometry>
        </mxCell>
        <mxCell id="L1AszbLgewjzpD16x1e3-54" value="" style="shape=image;verticalLabelPosition=bottom;labelBackgroundColor=default;verticalAlign=top;aspect=fixed;imageAspect=0;image=data:image/png,iVBORw0KGgoAAAANSUhEUgAAAGAAAABgCAYAAADimHc4AAAAAXNSR0IArs4c6QAABJNJREFUeF7tnI2NFDEMhXOVAJUAlQCVAJUAlQCVAJXAPjSWRqu9sR2/jD2SRzoN6PL7PjtxMsk9jX5SFXhKrb0rHw0g2QgaQANIViC5+vaABpCsQHL17QENIFmB5OrbAxpAsgLJ1bcHNIBkBZKrbw9oAMkKJFffHtAAzAq8HGPg5/UY4832b/z/91YC3vj5efvdV3OpyQmv4AEQ+d1Np08OrQDixxjj8w6QI/t5SasD+OgU/l45gIA3AETJpyoAWP2XbahhCAcQbyt6Q0UAEP/7NsYzxJcySkKoBmCV+GUhVAMAy0eEs/KBJ7xaWYGn7EoAohOup9+YmD94MqxKWwUAhp5fxk5KZIN4H6GmrA/wBkS8tafMfFAFACKe95pqW0h6FFJ61gwlvKAKgL8G8RFGwuItD+YRzCdHT4m5oAIAWD484OiZsVbLnOKBagHvTlMBgDb8zFqqZTE3A9Yt8lGGCgC00BN7QLNbCZoXYEiDF6Q9FQAg+jmKXBAuzu5uanPBrHfRgFUAoE3AWDTJlrO341p42wBusftKAACmlZ9qhKmVb+asDUGRSEWLsNoDtnj9aP+nJ2HvwOtMvyoMRTO0CKvD0G33U1u1zgilgQWgSITltLPHySvMAVqkIi33iKWFn1Jmev/TG7ApYbFWJLXMB9riS8Sf8SqK1e8LqQLA6gVoOyIXOe2w347GcRVEPZbtaJQTWV/QQFQBgA5ZLZfReYsnMepRy6gEwLJ5pnbIkCB9/6fiECRtOuOjfJnvweh0JQ9YDQFzByIp60cdgzPFk1QEgF6xh6NSw07lIWjfNs/33SNTLDPhPmpkVQ9ggCgtfJmVoGMUhUdghYt4f38UZX88HUPNn8AHHEdzOEmv4AGcnhYtpQEkg2kADSBZgeTqK3vA/k6YrA1ko+3+vZ+IZcMOb5wfletKyVI/rr4SAIlw8F5xRF0u8ZW6yJcJQBZaeFsO5rItWDwj9Vbl2QBE9FVWHoGUcqHvLACsbYWIwNa84hnfzti4Ww1ALk1kDDFWwY/S4bPlUhCrAKze12eI6ylj2Y2aFQDO/LToETGadskcwQZgPd1gFUNCR9lkey7ef7Q+eLFt2snflbDWqaWjnqZgArCexTnq4P0FPE0M6+/3izpGBEbb6mYBiIgP65Y/rGEVNJpOtrbxR0BmFn20z5ssAN6hZ8l4OklFQmTPmSJURfnMyQKgncEXbeRQ1eyNl0mNTdm8XkHxAgYAi/UvC+NM0voTWcPo8FxwBgCKq/o1DOewnMwI940BQLvh4jnVHFaNXIAWXIRv2DAAaON/iUOwk2C0Q8OXAMCAPKkfJZtmYKH+hTJv3VvaQIqEsUKW9q8B6HAuD0Dv4rVThIw4lNk4BF1bXr31IQ1DmRvAfwVCGoYyN4AGoA8Q61OEjDiUuT2gPWC9fes1hIw4lLk9oIYH6DbSKZ5VgOEBLW9AgQYQEI+RtQEwVAyU0QAC4jGyNgCGioEyGkBAPEbWBsBQMVBGAwiIx8jaABgqBspoAAHxGFkbAEPFQBkNICAeI2sDYKgYKKMBBMRjZG0ADBUDZfwDcOHOYb3HQm8AAAAASUVORK5CYII=;" vertex="1" parent="1">
          <mxGeometry x="2240" y="228" width="40" height="40" as="geometry" />
        </mxCell>
        <mxCell id="L1AszbLgewjzpD16x1e3-55" value="" style="endArrow=none;html=1;rounded=0;strokeColor=#666666;align=right;verticalAlign=bottom;fontFamily=Helvetica;fontSize=9;fontColor=#333333;fontStyle=1;fillColor=#666666;strokeWidth=20;fillOpacity=50;strokeOpacity=50;entryX=0;entryY=0.5;entryDx=0;entryDy=0;exitX=1;exitY=0.5;exitDx=0;exitDy=0;" edge="1" parent="1" source="L1AszbLgewjzpD16x1e3-41" target="L1AszbLgewjzpD16x1e3-54">
          <mxGeometry width="50" height="50" relative="1" as="geometry">
            <mxPoint x="1820" y="274" as="sourcePoint" />
            <mxPoint x="2260" y="274" as="targetPoint" />
          </mxGeometry>
        </mxCell>
        <mxCell id="L1AszbLgewjzpD16x1e3-56" value="" style="shape=image;verticalLabelPosition=bottom;labelBackgroundColor=default;verticalAlign=top;aspect=fixed;imageAspect=0;image=data:image/png,iVBORw0KGgoAAAANSUhEUgAAAGAAAABgCAYAAADimHc4AAAAAXNSR0IArs4c6QAABYhJREFUeF7tXIux1DAMzKsEqASoBKgEqASoBKgEqARY5sT4crnsSrajvHnKzJuDOXtl7Vq2/Mk9LPWkMvCQar2MLyVAcicoAUqAZAaSzVcElADJDCSbrwgoAZIZSDZfEVACJDOQbL4ioARIZiDZfEVACZDMQLL5ioAnLMDzZVnw93JZlleXf+P/Py+c4BN/3/9+9znAE7DerLABMwo/0KTbKhkRYMR8cHgA0r4ty/KxIZBVh50frFAjthdfhN4vdrQA7/82x0P8uvUQAtEAIZTn7bIsn5SCjRAefAf0dtGjBEBvBBEYakY8EOK1GA2wCyE8jwffg3tT9ggBQP7Xyxjf1dhVZZUkz1DUmlDxu3yaLcAs8s1plaRIFMCGih8WYbYA6Pmjhp17ToKkF4SBaBSYCAz/lAL0TrgepzBxviMVolEAWAXf097/ZWdFgKfHWWaDfB+poK0P8AkR8ckeZahAJCIiI4+CH8Gddi1F7W1ISfdSSs+agfVST6fYIpPhn0qA30JrkEaixyuP0nuVuaBnTlLwFV+uyswYgpTFT6Q3KXMKE1XB2COR4Z9CADb8RHuSsphjwiqRtEciwz+FACzM2bi/5wTrwRjS0EvvPb0CMPxTCIANsL3MBeliZHcTzjECWXT1TsQM/xQCsAkYixrbEvY2mBHICGL1WXsYPqt/8/2MSXimAHCA4TOfWH1GIsNn9adnQWwI6skkWIbFeuiTiICahB0xMDScLnZnpaGAZ+KyNJFFEKOO4bP6h8wBLFNBIyKOMGGByzKsXgEY/ikEUMdZjzOKqHCeRTSLIEYgw2f1D4kAGFF6K8opizK2+DKnlKjqyYAU/NMIoEYBGozMxW47tNvRuK6CIUPZjgYOW1/0Dj8M302+ErIh0Esltef22LC6SiSpUbnVHgU/5MfwMa1phbJ5Fmr0qpKyP+OJyHWbFPywHzMFQKOOOJRXzmujvZ8t7MLEW8XZAswUAeQgk1IOdSKTrwc/LMQRApgIIy9meYaFSOrpwQ+TP3sSXjfMc76755RnQoxkPh78LvKPFsAaGxXCS4x34vXid5OfJUArBFa4yPfbqyjt9XEMBb+CBzjAnIn/6AUY4sBjBzlqEn7sPE1rfwkwjVoNuATQeJpW6kgBbKLFpGtrA9toW3+2EzHK2v9xf9ReV5pBCiZtZWE3zPZMASwDweeMK+r2El/Pi3xrIm3dMAN7U7SRAlh+j0/vK0EjepRFRvStyjY93nqjx/C/jIySXgGM9Fm9vEcYu/auvtDX2mKLxR7sK5+iArAG9hA3um605yrb6SYEoiJ02cwrgL00kTHEjBAGx4qeIUTdzoiKTA+x2bg4gpQMDM8bL+qFAPPDtY2tRMCRR4tHiuEZx70cyNhMgOhJ0j0iLb2zTbZ7+f7W+uDZZdPOfldilFjKbQd1KFq3iUbangDe0NsixHqCvYA3irR2UTciA1O2oqOdcVeEewL0kI/ebT98MYpwhmNbz/brKKz8Vk9lx5vRKLCV/OZPK9wTwKu2POZ5mQmUtxTZc6cIZpRjyMjxprmwOdTdE0A9xLZLVdE3XgL8ylW8UaFkL97JuG3sJv6WAErvp5OLTNMxBdXrMWwu6Bma4ekNfkQAJVSPodVnRVnZMt96BbjB3xKAveHiudXso2h+aUYgu4jVMxHbZHx1kWxLADb+T7mkOp/7fxYYgUwAYDB+mCtXnEcEYIs31oDs7xmBzD9Wn/lXAhCGSgDWhTq/Zz349AJ0+n/66iVAskQlQAmQzECy+YqAEiCZgWTzFQElQDIDyebTIyDZ/6dlnqn9tNhI8LYESCC9NVkClADJDCSbrwgoAZIZSDZfEVACJDOQbL4ioARIZiDZfEVACZDMQLL5ioASIJmBZPMVAckC/AELVlVwx5VYugAAAABJRU5ErkJggg==;" vertex="1" parent="1">
          <mxGeometry x="2240" y="308" width="40" height="40" as="geometry" />
        </mxCell>
        <mxCell id="L1AszbLgewjzpD16x1e3-57" value="" style="shape=image;verticalLabelPosition=bottom;labelBackgroundColor=default;verticalAlign=top;aspect=fixed;imageAspect=0;image=data:image/png,iVBORw0KGgoAAAANSUhEUgAAAGAAAABgCAYAAADimHc4AAAAAXNSR0IArs4c6QAABYhJREFUeF7tXIux1DAMzKsEqASoBKgEqASoBKgEqARY5sT4crnsSrajvHnKzJuDOXtl7Vq2/Mk9LPWkMvCQar2MLyVAcicoAUqAZAaSzVcElADJDCSbrwgoAZIZSDZfEVACJDOQbL4ioARIZiDZfEVACZDMQLL5ioAnLMDzZVnw93JZlleXf+P/Py+c4BN/3/9+9znAE7DerLABMwo/0KTbKhkRYMR8cHgA0r4ty/KxIZBVh50frFAjthdfhN4vdrQA7/82x0P8uvUQAtEAIZTn7bIsn5SCjRAefAf0dtGjBEBvBBEYakY8EOK1GA2wCyE8jwffg3tT9ggBQP7Xyxjf1dhVZZUkz1DUmlDxu3yaLcAs8s1plaRIFMCGih8WYbYA6Pmjhp17ToKkF4SBaBSYCAz/lAL0TrgepzBxviMVolEAWAXf097/ZWdFgKfHWWaDfB+poK0P8AkR8ckeZahAJCIiI4+CH8Gddi1F7W1ISfdSSs+agfVST6fYIpPhn0qA30JrkEaixyuP0nuVuaBnTlLwFV+uyswYgpTFT6Q3KXMKE1XB2COR4Z9CADb8RHuSsphjwiqRtEciwz+FACzM2bi/5wTrwRjS0EvvPb0CMPxTCIANsL3MBeliZHcTzjECWXT1TsQM/xQCsAkYixrbEvY2mBHICGL1WXsYPqt/8/2MSXimAHCA4TOfWH1GIsNn9adnQWwI6skkWIbFeuiTiICahB0xMDScLnZnpaGAZ+KyNJFFEKOO4bP6h8wBLFNBIyKOMGGByzKsXgEY/ikEUMdZjzOKqHCeRTSLIEYgw2f1D4kAGFF6K8opizK2+DKnlKjqyYAU/NMIoEYBGozMxW47tNvRuK6CIUPZjgYOW1/0Dj8M302+ErIh0Esltef22LC6SiSpUbnVHgU/5MfwMa1phbJ5Fmr0qpKyP+OJyHWbFPywHzMFQKOOOJRXzmujvZ8t7MLEW8XZAswUAeQgk1IOdSKTrwc/LMQRApgIIy9meYaFSOrpwQ+TP3sSXjfMc76755RnQoxkPh78LvKPFsAaGxXCS4x34vXid5OfJUArBFa4yPfbqyjt9XEMBb+CBzjAnIn/6AUY4sBjBzlqEn7sPE1rfwkwjVoNuATQeJpW6kgBbKLFpGtrA9toW3+2EzHK2v9xf9ReV5pBCiZtZWE3zPZMASwDweeMK+r2El/Pi3xrIm3dMAN7U7SRAlh+j0/vK0EjepRFRvStyjY93nqjx/C/jIySXgGM9Fm9vEcYu/auvtDX2mKLxR7sK5+iArAG9hA3um605yrb6SYEoiJ02cwrgL00kTHEjBAGx4qeIUTdzoiKTA+x2bg4gpQMDM8bL+qFAPPDtY2tRMCRR4tHiuEZx70cyNhMgOhJ0j0iLb2zTbZ7+f7W+uDZZdPOfldilFjKbQd1KFq3iUbangDe0NsixHqCvYA3irR2UTciA1O2oqOdcVeEewL0kI/ebT98MYpwhmNbz/brKKz8Vk9lx5vRKLCV/OZPK9wTwKu2POZ5mQmUtxTZc6cIZpRjyMjxprmwOdTdE0A9xLZLVdE3XgL8ylW8UaFkL97JuG3sJv6WAErvp5OLTNMxBdXrMWwu6Bma4ekNfkQAJVSPodVnRVnZMt96BbjB3xKAveHiudXso2h+aUYgu4jVMxHbZHx1kWxLADb+T7mkOp/7fxYYgUwAYDB+mCtXnEcEYIs31oDs7xmBzD9Wn/lXAhCGSgDWhTq/Zz349AJ0+n/66iVAskQlQAmQzECy+YqAEiCZgWTzFQElQDIDyebTIyDZ/6dlnqn9tNhI8LYESCC9NVkClADJDCSbrwgoAZIZSDZfEVACJDOQbL4ioARIZiDZfEVACZDMQLL5ioASIJmBZPMVAckC/AELVlVwx5VYugAAAABJRU5ErkJggg==;" vertex="1" parent="1">
          <mxGeometry x="2240" y="348" width="40" height="40" as="geometry" />
        </mxCell>
        <mxCell id="L1AszbLgewjzpD16x1e3-58" value="" style="endArrow=none;html=1;rounded=0;strokeColor=#666666;align=right;verticalAlign=bottom;fontFamily=Helvetica;fontSize=9;fontColor=#333333;fontStyle=1;fillColor=#666666;strokeWidth=20;fillOpacity=50;strokeOpacity=50;entryX=0;entryY=0.5;entryDx=0;entryDy=0;exitX=1;exitY=0.5;exitDx=0;exitDy=0;edgeStyle=orthogonalEdgeStyle;" edge="1" parent="1" source="L1AszbLgewjzpD16x1e3-42" target="L1AszbLgewjzpD16x1e3-56">
          <mxGeometry width="50" height="50" relative="1" as="geometry">
            <mxPoint x="1820" y="287.6700000000001" as="sourcePoint" />
            <mxPoint x="2260" y="287.6700000000001" as="targetPoint" />
            <Array as="points">
              <mxPoint x="1960" y="288" />
              <mxPoint x="1960" y="328" />
            </Array>
          </mxGeometry>
        </mxCell>
        <mxCell id="L1AszbLgewjzpD16x1e3-59" value="" style="endArrow=none;html=1;rounded=0;strokeColor=#666666;align=right;verticalAlign=bottom;fontFamily=Helvetica;fontSize=9;fontColor=#333333;fontStyle=1;fillColor=#666666;strokeWidth=20;fillOpacity=50;strokeOpacity=50;entryX=0;entryY=0.5;entryDx=0;entryDy=0;" edge="1" parent="1" target="L1AszbLgewjzpD16x1e3-43">
          <mxGeometry width="50" height="50" relative="1" as="geometry">
            <mxPoint x="1320" y="368" as="sourcePoint" />
            <mxPoint x="1750" y="367.20000000000005" as="targetPoint" />
          </mxGeometry>
        </mxCell>
        <mxCell id="L1AszbLgewjzpD16x1e3-60" value="" style="endArrow=none;html=1;rounded=0;strokeColor=#666666;align=right;verticalAlign=bottom;fontFamily=Helvetica;fontSize=9;fontColor=#333333;fontStyle=1;fillColor=#666666;strokeWidth=20;fillOpacity=50;strokeOpacity=50;exitX=1;exitY=0.5;exitDx=0;exitDy=0;edgeStyle=orthogonalEdgeStyle;" edge="1" parent="1" source="L1AszbLgewjzpD16x1e3-43">
          <mxGeometry width="50" height="50" relative="1" as="geometry">
            <mxPoint x="1850" y="368" as="sourcePoint" />
            <mxPoint x="1960" y="338" as="targetPoint" />
            <Array as="points">
              <mxPoint x="1960" y="368" />
            </Array>
          </mxGeometry>
        </mxCell>
        <mxCell id="L1AszbLgewjzpD16x1e3-61" value="" style="endArrow=none;html=1;rounded=0;strokeColor=#666666;align=right;verticalAlign=bottom;fontFamily=Helvetica;fontSize=9;fontColor=#333333;fontStyle=1;fillColor=#666666;strokeWidth=20;fillOpacity=50;strokeOpacity=50;entryX=0;entryY=0.5;entryDx=0;entryDy=0;edgeStyle=orthogonalEdgeStyle;" edge="1" parent="1" target="L1AszbLgewjzpD16x1e3-57">
          <mxGeometry width="50" height="50" relative="1" as="geometry">
            <mxPoint x="1970" y="368" as="sourcePoint" />
            <mxPoint x="2240" y="367.98" as="targetPoint" />
            <Array as="points">
              <mxPoint x="2000" y="368" />
              <mxPoint x="2000" y="368" />
            </Array>
          </mxGeometry>
        </mxCell>
        <mxCell id="L1AszbLgewjzpD16x1e3-62" value="Domain" style="text;html=1;align=center;verticalAlign=middle;whiteSpace=wrap;rounded=0;fillColor=none;strokeColor=none;fontColor=#666666;fontStyle=1;fontSize=10;" vertex="1" parent="1">
          <mxGeometry x="1260" y="358" width="60" height="20" as="geometry" />
        </mxCell>
        <mxCell id="L1AszbLgewjzpD16x1e3-63" value="Domain" style="text;html=1;align=center;verticalAlign=middle;whiteSpace=wrap;rounded=0;fillColor=none;strokeColor=none;fontColor=#666666;fontStyle=1;fontSize=10;" vertex="1" parent="1">
          <mxGeometry x="1260" y="238" width="60" height="20" as="geometry" />
        </mxCell>
        <mxCell id="L1AszbLgewjzpD16x1e3-64" value="Domain" style="text;html=1;align=center;verticalAlign=middle;whiteSpace=wrap;rounded=0;fillColor=none;strokeColor=none;fontColor=#666666;fontStyle=1;fontSize=10;" vertex="1" parent="1">
          <mxGeometry x="1260" y="178" width="60" height="20" as="geometry" />
        </mxCell>
        <mxCell id="L1AszbLgewjzpD16x1e3-65" value="Domain" style="text;html=1;align=center;verticalAlign=middle;whiteSpace=wrap;rounded=0;fillColor=none;strokeColor=none;fontColor=#666666;fontStyle=1;fontSize=10;" vertex="1" parent="1">
          <mxGeometry x="1260" y="58" width="60" height="20" as="geometry" />
        </mxCell>
        <mxCell id="L1AszbLgewjzpD16x1e3-66" style="edgeStyle=orthogonalEdgeStyle;shape=connector;rounded=0;orthogonalLoop=1;jettySize=auto;html=1;entryX=0;entryY=0.5;entryDx=0;entryDy=0;strokeColor=default;align=center;verticalAlign=middle;fontFamily=Helvetica;fontSize=11;fontColor=default;labelBackgroundColor=default;endArrow=classic;" edge="1" parent="1" source="L1AszbLgewjzpD16x1e3-68" target="L1AszbLgewjzpD16x1e3-92">
          <mxGeometry relative="1" as="geometry">
            <Array as="points">
              <mxPoint x="1890" y="848" />
              <mxPoint x="1890" y="828" />
            </Array>
          </mxGeometry>
        </mxCell>
        <mxCell id="L1AszbLgewjzpD16x1e3-67" style="edgeStyle=orthogonalEdgeStyle;shape=connector;rounded=0;orthogonalLoop=1;jettySize=auto;html=1;entryX=0;entryY=0.5;entryDx=0;entryDy=0;strokeColor=default;align=center;verticalAlign=middle;fontFamily=Helvetica;fontSize=11;fontColor=default;labelBackgroundColor=default;endArrow=classic;" edge="1" parent="1" source="L1AszbLgewjzpD16x1e3-68" target="L1AszbLgewjzpD16x1e3-94">
          <mxGeometry relative="1" as="geometry">
            <Array as="points">
              <mxPoint x="1890" y="848" />
              <mxPoint x="1890" y="868" />
            </Array>
          </mxGeometry>
        </mxCell>
        <mxCell id="L1AszbLgewjzpD16x1e3-68" value="" style="shape=image;verticalLabelPosition=bottom;labelBackgroundColor=default;verticalAlign=top;aspect=fixed;imageAspect=0;image=data:image/png,iVBORw0KGgoAAAANSUhEUgAAAGAAAABgCAYAAADimHc4AAAAAXNSR0IArs4c6QAABMdJREFUeF7tnQuO1DAMhrM3gZMAJwFOApwEbgKcBG4C/GIsRdW0/p2ktZ2m0moXTZuHP7/ipMNLWZerBF5ce1+dlwXAWQkWgAXAWQLO3S8LWACcJeDc/bKABaBLAm8fT//oasXx4ewW8Oshu9eOMuzqOjOAT/9m/vkx+2+llI9dknB6OCuAV6UU0X6I7vcDQDpXlBXA91KK+H/RXQj/nZMiN3ebEcCHUsrXnRnDDcEdpbkyAoDrgQt6dsEVpQrI2QBA82EBR1eqgJwJAHw+fL92pQrImQA8C7x7MNK4oiwAjgLvHoQUATkLgD+a33nyOawAaSl+h70yALC4nq2gwwfk6ADYwHuk4bCCsCvk6AB6tF+ghA7IkQHUxbajbAef7S3M5DkU7b5EDARRAWyLbXuyk9qPtj4IG5CjAmBcT118s94fxhgiAmADL2o+kmJaLCZUQI4I4KjYduTTmcVauIAcDQATePfq/rACFOu2+wSh1waRAIxwI0wboYp1kQAwgZRZ2TIl6zC7Z1EAMP4broQZL6wAMLW1QYhiHTOhK1I2JvBaSgoM0BABOQKAs1zGKJd2qgJ6A2Bzfov2i8BSBGRvAIyW9tRxmLTW1RV5AmD89KnmXzXuFpA9AbTscp0FxK1Y5wWAcT1nCXuvXWaNMXxMHgDYwDt8skSDLcGeaHb/Fg8AEbXfbffsagBMVtKlUQMe7sm6zN1fCYDJy80TOOGBSwPylQAiu54tx8uKdVcCOEFZ8ze5ADgzXAAWAGcJOHe/LGABcJaAc/fLAhYAZwk4d78s4P/m/fvqPBH+jR85dYff+Pn5OOY+9IWPOwNAXQqbQtrpia2NAABK10NOW7cA8N5IaRlzLUSUw3EQwCr4ZyAAoevF8JbJZAbAnMCwRoWu6uldALDnRq3Cr/cRml4IvAOAs4XfBeEOAK4sg5uPuMwO4ErhiyWYNvdnBmA9dwTB1fm+rAfw+w3xJSF1/KA392cGwGo/+74Ae+oaIGhXdAaAljZr7dHSXKZ9VvutKaSsmuW76o6yJuq0HTOZbScjBHQ08BHtM8fdrcKvx8yc7qCsYFYAGsTeTXc2tVVjwYwAGPejCoZYkTHHbFQrmxGAVm4wpYkKCC3Qq5Y2IwBNKFRwJCwAt2ix4JYAtAA8EoB20FgNxDNagBaA6684IBV99zYtDiwAT0Q3EgCa14AfKvmMFqC5oBEZkHDVMq5bWoAWhNXU0OCXNAC3DMIaAFUoBgDdKe+MLkjTSrb4pnHQMiA8r2ZcMwLQMhNTtfKAgmZpeFQN+DMCwMQZ4fTEAm0BhjFQrm5WAJobEitoOd/DCJ9yP7jpDACa7+z9nBkzW60UEMyJBkublPbPDABzY4KkKAMCM4SG44fyt2xJYjsSf2v/b0GtWPRag9Em64ZMr4Zrz1vGzLoLrU/L57T2z24BmJ/FbViEvHevSfh3ACAQmK8w6wWglh2edWAxZ3leKz71TkR7vmXMZ1uCWfNlki2TyQhALAHvATAnGjQlqD/v2mG7EwARGrIZBOe0x9Mt2hH1XggfaWr9Zgw7VvcXNNiBZrlPYEi+v/eKEgQ/5K2YWjAtLiiLYFOMcwFwxrQALADOEnDuflnAAuAsAefulwUsAM4ScO7+L8OBGnDs7MxWAAAAAElFTkSuQmCC;" vertex="1" parent="1">
          <mxGeometry x="1760" y="828" width="40" height="40" as="geometry" />
        </mxCell>
        <mxCell id="L1AszbLgewjzpD16x1e3-69" style="edgeStyle=orthogonalEdgeStyle;shape=connector;rounded=0;orthogonalLoop=1;jettySize=auto;html=1;entryX=0;entryY=0.25;entryDx=0;entryDy=0;strokeColor=default;align=center;verticalAlign=middle;fontFamily=Helvetica;fontSize=11;fontColor=default;labelBackgroundColor=default;endArrow=classic;dashed=1;dashPattern=1 1;" edge="1" parent="1" source="L1AszbLgewjzpD16x1e3-70" target="L1AszbLgewjzpD16x1e3-92">
          <mxGeometry relative="1" as="geometry">
            <Array as="points">
              <mxPoint x="1850" y="768" />
              <mxPoint x="1850" y="818" />
            </Array>
          </mxGeometry>
        </mxCell>
        <mxCell id="L1AszbLgewjzpD16x1e3-70" value="" style="shape=image;verticalLabelPosition=bottom;labelBackgroundColor=default;verticalAlign=top;aspect=fixed;imageAspect=0;image=data:image/png,iVBORw0KGgoAAAANSUhEUgAAAGAAAABgCAYAAADimHc4AAAAAXNSR0IArs4c6QAABMdJREFUeF7tnQuO1DAMhrM3gZMAJwFOApwEbgKcBG4C/GIsRdW0/p2ktZ2m0moXTZuHP7/ipMNLWZerBF5ce1+dlwXAWQkWgAXAWQLO3S8LWACcJeDc/bKABaBLAm8fT//oasXx4ewW8Oshu9eOMuzqOjOAT/9m/vkx+2+llI9dknB6OCuAV6UU0X6I7vcDQDpXlBXA91KK+H/RXQj/nZMiN3ebEcCHUsrXnRnDDcEdpbkyAoDrgQt6dsEVpQrI2QBA82EBR1eqgJwJAHw+fL92pQrImQA8C7x7MNK4oiwAjgLvHoQUATkLgD+a33nyOawAaSl+h70yALC4nq2gwwfk6ADYwHuk4bCCsCvk6AB6tF+ghA7IkQHUxbajbAef7S3M5DkU7b5EDARRAWyLbXuyk9qPtj4IG5CjAmBcT118s94fxhgiAmADL2o+kmJaLCZUQI4I4KjYduTTmcVauIAcDQATePfq/rACFOu2+wSh1waRAIxwI0wboYp1kQAwgZRZ2TIl6zC7Z1EAMP4broQZL6wAMLW1QYhiHTOhK1I2JvBaSgoM0BABOQKAs1zGKJd2qgJ6A2Bzfov2i8BSBGRvAIyW9tRxmLTW1RV5AmD89KnmXzXuFpA9AbTscp0FxK1Y5wWAcT1nCXuvXWaNMXxMHgDYwDt8skSDLcGeaHb/Fg8AEbXfbffsagBMVtKlUQMe7sm6zN1fCYDJy80TOOGBSwPylQAiu54tx8uKdVcCOEFZ8ze5ADgzXAAWAGcJOHe/LGABcJaAc/fLAhYAZwk4d78s4P/m/fvqPBH+jR85dYff+Pn5OOY+9IWPOwNAXQqbQtrpia2NAABK10NOW7cA8N5IaRlzLUSUw3EQwCr4ZyAAoevF8JbJZAbAnMCwRoWu6uldALDnRq3Cr/cRml4IvAOAs4XfBeEOAK4sg5uPuMwO4ErhiyWYNvdnBmA9dwTB1fm+rAfw+w3xJSF1/KA392cGwGo/+74Ae+oaIGhXdAaAljZr7dHSXKZ9VvutKaSsmuW76o6yJuq0HTOZbScjBHQ08BHtM8fdrcKvx8yc7qCsYFYAGsTeTXc2tVVjwYwAGPejCoZYkTHHbFQrmxGAVm4wpYkKCC3Qq5Y2IwBNKFRwJCwAt2ix4JYAtAA8EoB20FgNxDNagBaA6684IBV99zYtDiwAT0Q3EgCa14AfKvmMFqC5oBEZkHDVMq5bWoAWhNXU0OCXNAC3DMIaAFUoBgDdKe+MLkjTSrb4pnHQMiA8r2ZcMwLQMhNTtfKAgmZpeFQN+DMCwMQZ4fTEAm0BhjFQrm5WAJobEitoOd/DCJ9yP7jpDACa7+z9nBkzW60UEMyJBkublPbPDABzY4KkKAMCM4SG44fyt2xJYjsSf2v/b0GtWPRag9Em64ZMr4Zrz1vGzLoLrU/L57T2z24BmJ/FbViEvHevSfh3ACAQmK8w6wWglh2edWAxZ3leKz71TkR7vmXMZ1uCWfNlki2TyQhALAHvATAnGjQlqD/v2mG7EwARGrIZBOe0x9Mt2hH1XggfaWr9Zgw7VvcXNNiBZrlPYEi+v/eKEgQ/5K2YWjAtLiiLYFOMcwFwxrQALADOEnDuflnAAuAsAefulwUsAM4ScO7+L8OBGnDs7MxWAAAAAElFTkSuQmCC;" vertex="1" parent="1">
          <mxGeometry x="1760" y="748" width="40" height="40" as="geometry" />
        </mxCell>
        <mxCell id="L1AszbLgewjzpD16x1e3-71" style="edgeStyle=orthogonalEdgeStyle;shape=connector;rounded=0;orthogonalLoop=1;jettySize=auto;html=1;entryX=0;entryY=0.5;entryDx=0;entryDy=0;strokeColor=default;align=center;verticalAlign=middle;fontFamily=Helvetica;fontSize=11;fontColor=default;labelBackgroundColor=default;endArrow=classic;" edge="1" parent="1" source="L1AszbLgewjzpD16x1e3-72" target="L1AszbLgewjzpD16x1e3-106">
          <mxGeometry relative="1" as="geometry" />
        </mxCell>
        <mxCell id="L1AszbLgewjzpD16x1e3-72" value="" style="shape=image;verticalLabelPosition=bottom;labelBackgroundColor=default;verticalAlign=top;aspect=fixed;imageAspect=0;image=data:image/png,iVBORw0KGgoAAAANSUhEUgAAAGAAAABgCAYAAADimHc4AAAAAXNSR0IArs4c6QAABMdJREFUeF7tnQuO1DAMhrM3gZMAJwFOApwEbgKcBG4C/GIsRdW0/p2ktZ2m0moXTZuHP7/ipMNLWZerBF5ce1+dlwXAWQkWgAXAWQLO3S8LWACcJeDc/bKABaBLAm8fT//oasXx4ewW8Oshu9eOMuzqOjOAT/9m/vkx+2+llI9dknB6OCuAV6UU0X6I7vcDQDpXlBXA91KK+H/RXQj/nZMiN3ebEcCHUsrXnRnDDcEdpbkyAoDrgQt6dsEVpQrI2QBA82EBR1eqgJwJAHw+fL92pQrImQA8C7x7MNK4oiwAjgLvHoQUATkLgD+a33nyOawAaSl+h70yALC4nq2gwwfk6ADYwHuk4bCCsCvk6AB6tF+ghA7IkQHUxbajbAef7S3M5DkU7b5EDARRAWyLbXuyk9qPtj4IG5CjAmBcT118s94fxhgiAmADL2o+kmJaLCZUQI4I4KjYduTTmcVauIAcDQATePfq/rACFOu2+wSh1waRAIxwI0wboYp1kQAwgZRZ2TIl6zC7Z1EAMP4broQZL6wAMLW1QYhiHTOhK1I2JvBaSgoM0BABOQKAs1zGKJd2qgJ6A2Bzfov2i8BSBGRvAIyW9tRxmLTW1RV5AmD89KnmXzXuFpA9AbTscp0FxK1Y5wWAcT1nCXuvXWaNMXxMHgDYwDt8skSDLcGeaHb/Fg8AEbXfbffsagBMVtKlUQMe7sm6zN1fCYDJy80TOOGBSwPylQAiu54tx8uKdVcCOEFZ8ze5ADgzXAAWAGcJOHe/LGABcJaAc/fLAhYAZwk4d78s4P/m/fvqPBH+jR85dYff+Pn5OOY+9IWPOwNAXQqbQtrpia2NAABK10NOW7cA8N5IaRlzLUSUw3EQwCr4ZyAAoevF8JbJZAbAnMCwRoWu6uldALDnRq3Cr/cRml4IvAOAs4XfBeEOAK4sg5uPuMwO4ErhiyWYNvdnBmA9dwTB1fm+rAfw+w3xJSF1/KA392cGwGo/+74Ae+oaIGhXdAaAljZr7dHSXKZ9VvutKaSsmuW76o6yJuq0HTOZbScjBHQ08BHtM8fdrcKvx8yc7qCsYFYAGsTeTXc2tVVjwYwAGPejCoZYkTHHbFQrmxGAVm4wpYkKCC3Qq5Y2IwBNKFRwJCwAt2ix4JYAtAA8EoB20FgNxDNagBaA6684IBV99zYtDiwAT0Q3EgCa14AfKvmMFqC5oBEZkHDVMq5bWoAWhNXU0OCXNAC3DMIaAFUoBgDdKe+MLkjTSrb4pnHQMiA8r2ZcMwLQMhNTtfKAgmZpeFQN+DMCwMQZ4fTEAm0BhjFQrm5WAJobEitoOd/DCJ9yP7jpDACa7+z9nBkzW60UEMyJBkublPbPDABzY4KkKAMCM4SG44fyt2xJYjsSf2v/b0GtWPRag9Em64ZMr4Zrz1vGzLoLrU/L57T2z24BmJ/FbViEvHevSfh3ACAQmK8w6wWglh2edWAxZ3leKz71TkR7vmXMZ1uCWfNlki2TyQhALAHvATAnGjQlqD/v2mG7EwARGrIZBOe0x9Mt2hH1XggfaWr9Zgw7VvcXNNiBZrlPYEi+v/eKEgQ/5K2YWjAtLiiLYFOMcwFwxrQALADOEnDuflnAAuAsAefulwUsAM4ScO7+L8OBGnDs7MxWAAAAAElFTkSuQmCC;" vertex="1" parent="1">
          <mxGeometry x="1760" y="708" width="40" height="40" as="geometry" />
        </mxCell>
        <mxCell id="L1AszbLgewjzpD16x1e3-73" style="edgeStyle=orthogonalEdgeStyle;shape=connector;rounded=0;orthogonalLoop=1;jettySize=auto;html=1;entryX=0;entryY=0.5;entryDx=0;entryDy=0;strokeColor=default;align=center;verticalAlign=middle;fontFamily=Helvetica;fontSize=11;fontColor=default;labelBackgroundColor=default;endArrow=classic;" edge="1" parent="1" source="L1AszbLgewjzpD16x1e3-74" target="L1AszbLgewjzpD16x1e3-101">
          <mxGeometry relative="1" as="geometry" />
        </mxCell>
        <mxCell id="L1AszbLgewjzpD16x1e3-74" value="" style="shape=image;verticalLabelPosition=bottom;labelBackgroundColor=default;verticalAlign=top;aspect=fixed;imageAspect=0;image=data:image/png,iVBORw0KGgoAAAANSUhEUgAAAGAAAABgCAYAAADimHc4AAAAAXNSR0IArs4c6QAABMdJREFUeF7tnQuO1DAMhrM3gZMAJwFOApwEbgKcBG4C/GIsRdW0/p2ktZ2m0moXTZuHP7/ipMNLWZerBF5ce1+dlwXAWQkWgAXAWQLO3S8LWACcJeDc/bKABaBLAm8fT//oasXx4ewW8Oshu9eOMuzqOjOAT/9m/vkx+2+llI9dknB6OCuAV6UU0X6I7vcDQDpXlBXA91KK+H/RXQj/nZMiN3ebEcCHUsrXnRnDDcEdpbkyAoDrgQt6dsEVpQrI2QBA82EBR1eqgJwJAHw+fL92pQrImQA8C7x7MNK4oiwAjgLvHoQUATkLgD+a33nyOawAaSl+h70yALC4nq2gwwfk6ADYwHuk4bCCsCvk6AB6tF+ghA7IkQHUxbajbAef7S3M5DkU7b5EDARRAWyLbXuyk9qPtj4IG5CjAmBcT118s94fxhgiAmADL2o+kmJaLCZUQI4I4KjYduTTmcVauIAcDQATePfq/rACFOu2+wSh1waRAIxwI0wboYp1kQAwgZRZ2TIl6zC7Z1EAMP4broQZL6wAMLW1QYhiHTOhK1I2JvBaSgoM0BABOQKAs1zGKJd2qgJ6A2Bzfov2i8BSBGRvAIyW9tRxmLTW1RV5AmD89KnmXzXuFpA9AbTscp0FxK1Y5wWAcT1nCXuvXWaNMXxMHgDYwDt8skSDLcGeaHb/Fg8AEbXfbffsagBMVtKlUQMe7sm6zN1fCYDJy80TOOGBSwPylQAiu54tx8uKdVcCOEFZ8ze5ADgzXAAWAGcJOHe/LGABcJaAc/fLAhYAZwk4d78s4P/m/fvqPBH+jR85dYff+Pn5OOY+9IWPOwNAXQqbQtrpia2NAABK10NOW7cA8N5IaRlzLUSUw3EQwCr4ZyAAoevF8JbJZAbAnMCwRoWu6uldALDnRq3Cr/cRml4IvAOAs4XfBeEOAK4sg5uPuMwO4ErhiyWYNvdnBmA9dwTB1fm+rAfw+w3xJSF1/KA392cGwGo/+74Ae+oaIGhXdAaAljZr7dHSXKZ9VvutKaSsmuW76o6yJuq0HTOZbScjBHQ08BHtM8fdrcKvx8yc7qCsYFYAGsTeTXc2tVVjwYwAGPejCoZYkTHHbFQrmxGAVm4wpYkKCC3Qq5Y2IwBNKFRwJCwAt2ix4JYAtAA8EoB20FgNxDNagBaA6684IBV99zYtDiwAT0Q3EgCa14AfKvmMFqC5oBEZkHDVMq5bWoAWhNXU0OCXNAC3DMIaAFUoBgDdKe+MLkjTSrb4pnHQMiA8r2ZcMwLQMhNTtfKAgmZpeFQN+DMCwMQZ4fTEAm0BhjFQrm5WAJobEitoOd/DCJ9yP7jpDACa7+z9nBkzW60UEMyJBkublPbPDABzY4KkKAMCM4SG44fyt2xJYjsSf2v/b0GtWPRag9Em64ZMr4Zrz1vGzLoLrU/L57T2z24BmJ/FbViEvHevSfh3ACAQmK8w6wWglh2edWAxZ3leKz71TkR7vmXMZ1uCWfNlki2TyQhALAHvATAnGjQlqD/v2mG7EwARGrIZBOe0x9Mt2hH1XggfaWr9Zgw7VvcXNNiBZrlPYEi+v/eKEgQ/5K2YWjAtLiiLYFOMcwFwxrQALADOEnDuflnAAuAsAefulwUsAM4ScO7+L8OBGnDs7MxWAAAAAElFTkSuQmCC;" vertex="1" parent="1">
          <mxGeometry x="1760" y="648" width="40" height="40" as="geometry" />
        </mxCell>
        <mxCell id="L1AszbLgewjzpD16x1e3-75" style="edgeStyle=orthogonalEdgeStyle;shape=connector;rounded=0;orthogonalLoop=1;jettySize=auto;html=1;entryX=0;entryY=0.5;entryDx=0;entryDy=0;strokeColor=default;align=center;verticalAlign=middle;fontFamily=Helvetica;fontSize=11;fontColor=default;labelBackgroundColor=default;endArrow=classic;" edge="1" parent="1" source="L1AszbLgewjzpD16x1e3-77" target="L1AszbLgewjzpD16x1e3-21">
          <mxGeometry relative="1" as="geometry" />
        </mxCell>
        <mxCell id="L1AszbLgewjzpD16x1e3-76" style="edgeStyle=orthogonalEdgeStyle;shape=connector;rounded=0;orthogonalLoop=1;jettySize=auto;html=1;entryX=0;entryY=0.25;entryDx=0;entryDy=0;strokeColor=default;align=center;verticalAlign=middle;fontFamily=Helvetica;fontSize=11;fontColor=default;labelBackgroundColor=default;endArrow=classic;dashed=1;dashPattern=1 1;exitX=1;exitY=0.75;exitDx=0;exitDy=0;" edge="1" parent="1" source="L1AszbLgewjzpD16x1e3-77" target="L1AszbLgewjzpD16x1e3-101">
          <mxGeometry relative="1" as="geometry">
            <Array as="points">
              <mxPoint x="1850" y="598" />
              <mxPoint x="1850" y="658" />
            </Array>
          </mxGeometry>
        </mxCell>
        <mxCell id="L1AszbLgewjzpD16x1e3-77" value="" style="shape=image;verticalLabelPosition=bottom;labelBackgroundColor=default;verticalAlign=top;aspect=fixed;imageAspect=0;image=data:image/png,iVBORw0KGgoAAAANSUhEUgAAAGAAAABgCAYAAADimHc4AAAAAXNSR0IArs4c6QAABMdJREFUeF7tnQuO1DAMhrM3gZMAJwFOApwEbgKcBG4C/GIsRdW0/p2ktZ2m0moXTZuHP7/ipMNLWZerBF5ce1+dlwXAWQkWgAXAWQLO3S8LWACcJeDc/bKABaBLAm8fT//oasXx4ewW8Oshu9eOMuzqOjOAT/9m/vkx+2+llI9dknB6OCuAV6UU0X6I7vcDQDpXlBXA91KK+H/RXQj/nZMiN3ebEcCHUsrXnRnDDcEdpbkyAoDrgQt6dsEVpQrI2QBA82EBR1eqgJwJAHw+fL92pQrImQA8C7x7MNK4oiwAjgLvHoQUATkLgD+a33nyOawAaSl+h70yALC4nq2gwwfk6ADYwHuk4bCCsCvk6AB6tF+ghA7IkQHUxbajbAef7S3M5DkU7b5EDARRAWyLbXuyk9qPtj4IG5CjAmBcT118s94fxhgiAmADL2o+kmJaLCZUQI4I4KjYduTTmcVauIAcDQATePfq/rACFOu2+wSh1waRAIxwI0wboYp1kQAwgZRZ2TIl6zC7Z1EAMP4broQZL6wAMLW1QYhiHTOhK1I2JvBaSgoM0BABOQKAs1zGKJd2qgJ6A2Bzfov2i8BSBGRvAIyW9tRxmLTW1RV5AmD89KnmXzXuFpA9AbTscp0FxK1Y5wWAcT1nCXuvXWaNMXxMHgDYwDt8skSDLcGeaHb/Fg8AEbXfbffsagBMVtKlUQMe7sm6zN1fCYDJy80TOOGBSwPylQAiu54tx8uKdVcCOEFZ8ze5ADgzXAAWAGcJOHe/LGABcJaAc/fLAhYAZwk4d78s4P/m/fvqPBH+jR85dYff+Pn5OOY+9IWPOwNAXQqbQtrpia2NAABK10NOW7cA8N5IaRlzLUSUw3EQwCr4ZyAAoevF8JbJZAbAnMCwRoWu6uldALDnRq3Cr/cRml4IvAOAs4XfBeEOAK4sg5uPuMwO4ErhiyWYNvdnBmA9dwTB1fm+rAfw+w3xJSF1/KA392cGwGo/+74Ae+oaIGhXdAaAljZr7dHSXKZ9VvutKaSsmuW76o6yJuq0HTOZbScjBHQ08BHtM8fdrcKvx8yc7qCsYFYAGsTeTXc2tVVjwYwAGPejCoZYkTHHbFQrmxGAVm4wpYkKCC3Qq5Y2IwBNKFRwJCwAt2ix4JYAtAA8EoB20FgNxDNagBaA6684IBV99zYtDiwAT0Q3EgCa14AfKvmMFqC5oBEZkHDVMq5bWoAWhNXU0OCXNAC3DMIaAFUoBgDdKe+MLkjTSrb4pnHQMiA8r2ZcMwLQMhNTtfKAgmZpeFQN+DMCwMQZ4fTEAm0BhjFQrm5WAJobEitoOd/DCJ9yP7jpDACa7+z9nBkzW60UEMyJBkublPbPDABzY4KkKAMCM4SG44fyt2xJYjsSf2v/b0GtWPRag9Em64ZMr4Zrz1vGzLoLrU/L57T2z24BmJ/FbViEvHevSfh3ACAQmK8w6wWglh2edWAxZ3leKz71TkR7vmXMZ1uCWfNlki2TyQhALAHvATAnGjQlqD/v2mG7EwARGrIZBOe0x9Mt2hH1XggfaWr9Zgw7VvcXNNiBZrlPYEi+v/eKEgQ/5K2YWjAtLiiLYFOMcwFwxrQALADOEnDuflnAAuAsAefulwUsAM4ScO7+L8OBGnDs7MxWAAAAAElFTkSuQmCC;" vertex="1" parent="1">
          <mxGeometry x="1760" y="568" width="40" height="40" as="geometry" />
        </mxCell>
        <mxCell id="L1AszbLgewjzpD16x1e3-78" style="edgeStyle=orthogonalEdgeStyle;shape=connector;rounded=0;orthogonalLoop=1;jettySize=auto;html=1;entryX=0;entryY=0.5;entryDx=0;entryDy=0;strokeColor=default;align=center;verticalAlign=middle;fontFamily=Helvetica;fontSize=11;fontColor=default;labelBackgroundColor=default;endArrow=classic;" edge="1" parent="1" source="L1AszbLgewjzpD16x1e3-80" target="L1AszbLgewjzpD16x1e3-16">
          <mxGeometry relative="1" as="geometry" />
        </mxCell>
        <mxCell id="L1AszbLgewjzpD16x1e3-79" style="edgeStyle=orthogonalEdgeStyle;shape=connector;rounded=0;orthogonalLoop=1;jettySize=auto;html=1;entryX=0;entryY=0.5;entryDx=0;entryDy=0;strokeColor=default;align=center;verticalAlign=middle;fontFamily=Helvetica;fontSize=11;fontColor=default;labelBackgroundColor=default;endArrow=classic;" edge="1" parent="1" source="L1AszbLgewjzpD16x1e3-80" target="L1AszbLgewjzpD16x1e3-21">
          <mxGeometry relative="1" as="geometry">
            <Array as="points">
              <mxPoint x="1850" y="548" />
              <mxPoint x="1850" y="588" />
            </Array>
          </mxGeometry>
        </mxCell>
        <mxCell id="L1AszbLgewjzpD16x1e3-80" value="" style="shape=image;verticalLabelPosition=bottom;labelBackgroundColor=default;verticalAlign=top;aspect=fixed;imageAspect=0;image=data:image/png,iVBORw0KGgoAAAANSUhEUgAAAGAAAABgCAYAAADimHc4AAAAAXNSR0IArs4c6QAABMdJREFUeF7tnQuO1DAMhrM3gZMAJwFOApwEbgKcBG4C/GIsRdW0/p2ktZ2m0moXTZuHP7/ipMNLWZerBF5ce1+dlwXAWQkWgAXAWQLO3S8LWACcJeDc/bKABaBLAm8fT//oasXx4ewW8Oshu9eOMuzqOjOAT/9m/vkx+2+llI9dknB6OCuAV6UU0X6I7vcDQDpXlBXA91KK+H/RXQj/nZMiN3ebEcCHUsrXnRnDDcEdpbkyAoDrgQt6dsEVpQrI2QBA82EBR1eqgJwJAHw+fL92pQrImQA8C7x7MNK4oiwAjgLvHoQUATkLgD+a33nyOawAaSl+h70yALC4nq2gwwfk6ADYwHuk4bCCsCvk6AB6tF+ghA7IkQHUxbajbAef7S3M5DkU7b5EDARRAWyLbXuyk9qPtj4IG5CjAmBcT118s94fxhgiAmADL2o+kmJaLCZUQI4I4KjYduTTmcVauIAcDQATePfq/rACFOu2+wSh1waRAIxwI0wboYp1kQAwgZRZ2TIl6zC7Z1EAMP4broQZL6wAMLW1QYhiHTOhK1I2JvBaSgoM0BABOQKAs1zGKJd2qgJ6A2Bzfov2i8BSBGRvAIyW9tRxmLTW1RV5AmD89KnmXzXuFpA9AbTscp0FxK1Y5wWAcT1nCXuvXWaNMXxMHgDYwDt8skSDLcGeaHb/Fg8AEbXfbffsagBMVtKlUQMe7sm6zN1fCYDJy80TOOGBSwPylQAiu54tx8uKdVcCOEFZ8ze5ADgzXAAWAGcJOHe/LGABcJaAc/fLAhYAZwk4d78s4P/m/fvqPBH+jR85dYff+Pn5OOY+9IWPOwNAXQqbQtrpia2NAABK10NOW7cA8N5IaRlzLUSUw3EQwCr4ZyAAoevF8JbJZAbAnMCwRoWu6uldALDnRq3Cr/cRml4IvAOAs4XfBeEOAK4sg5uPuMwO4ErhiyWYNvdnBmA9dwTB1fm+rAfw+w3xJSF1/KA392cGwGo/+74Ae+oaIGhXdAaAljZr7dHSXKZ9VvutKaSsmuW76o6yJuq0HTOZbScjBHQ08BHtM8fdrcKvx8yc7qCsYFYAGsTeTXc2tVVjwYwAGPejCoZYkTHHbFQrmxGAVm4wpYkKCC3Qq5Y2IwBNKFRwJCwAt2ix4JYAtAA8EoB20FgNxDNagBaA6684IBV99zYtDiwAT0Q3EgCa14AfKvmMFqC5oBEZkHDVMq5bWoAWhNXU0OCXNAC3DMIaAFUoBgDdKe+MLkjTSrb4pnHQMiA8r2ZcMwLQMhNTtfKAgmZpeFQN+DMCwMQZ4fTEAm0BhjFQrm5WAJobEitoOd/DCJ9yP7jpDACa7+z9nBkzW60UEMyJBkublPbPDABzY4KkKAMCM4SG44fyt2xJYjsSf2v/b0GtWPRag9Em64ZMr4Zrz1vGzLoLrU/L57T2z24BmJ/FbViEvHevSfh3ACAQmK8w6wWglh2edWAxZ3leKz71TkR7vmXMZ1uCWfNlki2TyQhALAHvATAnGjQlqD/v2mG7EwARGrIZBOe0x9Mt2hH1XggfaWr9Zgw7VvcXNNiBZrlPYEi+v/eKEgQ/5K2YWjAtLiiLYFOMcwFwxrQALADOEnDuflnAAuAsAefulwUsAM4ScO7+L8OBGnDs7MxWAAAAAElFTkSuQmCC;" vertex="1" parent="1">
          <mxGeometry x="1760" y="528" width="40" height="40" as="geometry" />
        </mxCell>
        <mxCell id="L1AszbLgewjzpD16x1e3-81" value="&lt;span style=&quot;color: rgb(51, 51, 51); font-size: 9px;&quot;&gt;Domain&lt;/span&gt;&lt;br style=&quot;color: rgb(51, 51, 51); font-size: 9px;&quot;&gt;&lt;span style=&quot;color: rgb(51, 51, 51); font-size: 9px;&quot;&gt;Abteilung/Sektion&lt;/span&gt;" style="text;html=1;align=center;verticalAlign=middle;whiteSpace=wrap;rounded=0;fillColor=none;strokeColor=none;fontColor=#666666;fontStyle=1;fontSize=10;" vertex="1" parent="1">
          <mxGeometry x="1240" y="553" width="80" height="30" as="geometry" />
        </mxCell>
        <mxCell id="L1AszbLgewjzpD16x1e3-82" value="System" style="rounded=1;whiteSpace=wrap;html=1;fillColor=#f5f5f5;fontColor=#333333;strokeColor=#666666;fontStyle=1" vertex="1" parent="1">
          <mxGeometry x="1350" y="838" width="50" height="20" as="geometry" />
        </mxCell>
        <mxCell id="L1AszbLgewjzpD16x1e3-83" style="edgeStyle=orthogonalEdgeStyle;rounded=0;orthogonalLoop=1;jettySize=auto;html=1;entryX=0;entryY=0.5;entryDx=0;entryDy=0;" edge="1" parent="1" source="L1AszbLgewjzpD16x1e3-82" target="L1AszbLgewjzpD16x1e3-86">
          <mxGeometry relative="1" as="geometry" />
        </mxCell>
        <mxCell id="L1AszbLgewjzpD16x1e3-84" style="edgeStyle=orthogonalEdgeStyle;shape=connector;rounded=0;orthogonalLoop=1;jettySize=auto;html=1;entryX=0;entryY=0.5;entryDx=0;entryDy=0;strokeColor=default;align=center;verticalAlign=middle;fontFamily=Helvetica;fontSize=11;fontColor=default;labelBackgroundColor=default;endArrow=classic;" edge="1" parent="1" source="L1AszbLgewjzpD16x1e3-86" target="L1AszbLgewjzpD16x1e3-88">
          <mxGeometry relative="1" as="geometry" />
        </mxCell>
        <mxCell id="L1AszbLgewjzpD16x1e3-85" style="edgeStyle=orthogonalEdgeStyle;shape=connector;rounded=0;orthogonalLoop=1;jettySize=auto;html=1;entryX=0;entryY=0.25;entryDx=0;entryDy=0;strokeColor=default;align=center;verticalAlign=middle;fontFamily=Helvetica;fontSize=11;fontColor=default;labelBackgroundColor=default;endArrow=classic;exitX=1;exitY=0.5;exitDx=0;exitDy=0;" edge="1" parent="1" source="L1AszbLgewjzpD16x1e3-100" target="L1AszbLgewjzpD16x1e3-97">
          <mxGeometry relative="1" as="geometry">
            <Array as="points">
              <mxPoint x="1530" y="728" />
              <mxPoint x="1530" y="738" />
            </Array>
          </mxGeometry>
        </mxCell>
        <mxCell id="L1AszbLgewjzpD16x1e3-86" value="" style="shape=image;verticalLabelPosition=bottom;labelBackgroundColor=default;verticalAlign=top;aspect=fixed;imageAspect=0;image=data:image/png,iVBORw0KGgoAAAANSUhEUgAAAGAAAABgCAYAAADimHc4AAAAAXNSR0IArs4c6QAAA2RJREFUeF7tm+FNxTAMhPM2gU1gE5gEmAQ2gU1gE8AoFdKDNndWWsd5V+mJP6c4uc9OqNueiq5QB06h0RW8CEBwEgiAAAQ7EBxeFSAAwQ4Eh1cFCECwA8HhVQECEOxAcHhVQFIAV6WUh1LKXfD8Rwj/8e2D/e7rX2pOngow89+pKJchNgi3LAQPgGdl/mpGvVUIcMp5AFj2WxXo+uuAVcE1Y4wHwCcT4AK1lKeUuJopANtZRXlKiQUAqmfKU0osADkAeKBCKxtE1NqCqfVTYrACPGMO4i00DQGAbNpPJAD7eQuNnBqA9Y9u6m/podjd4xO09DFEKQHYnbO1MMz8/y5XHyWIR0oArxvmLz7SfRQB+N+B8/+CbNt5BM2ylu4LqI2SpasApnuaoQrSAWC6p3Q3MaAMpgZgfo5+I5cOAHIAL4ls+7+dAyNf6QDYc2M7B5BLhzDgkicDkCrIcACbPZ71r9rq2W89E2jdiGUxPy2AJQPUijirhaMqANjZ0kg8O0D4FpTGXWCiAgCYtKdEAPZ0Fxh7eADAGqaWUOcqJa62tTJganeBxVGeUmIBAOwne1kCAHlKiShPKXGdBtNepmY+iZjylBJXg5C+ziRe0sugu7keAPpAY52LvZpuD5XgywPABm811+AJTCA0w5dXayjzbe1eABP4NsYSBCCYgwAIQLADweG9FaDvhH/B6Tvh4CRewrveb/VUAPOm2yDeHDYN+tm2B4BaEes86Tf7PADUjt4uKMpTSqx2NLSVUZ5SYgEQAMiBYBGV1JQYrADPmMGeUeFbZyC1fkosAD8OCACVr/3FAtDfU2rE1AD0cu4Z66POgNYTNFcfhcrbfuKUFYA8yKf7KP08pUZKB0DfCW/wPWILYrqnGaogXQUw3VO6m0htHn3EUwMwizxV2cdabJR0AJADeFk6/WYZ5llXVToA+k44+BC28EgVZDiA0/aCWjdiWcxPC2ApQrUigloRXU/B4MHSHcLBfnUPLwDdLeUGFADOr+7q4QF0X3GyAak7eUpcjWhlQDK/uk+X8pQSCwAEi/KUEgvAGACY9jI048lEVFJT4moU0teZzFN4OXQ31wNA3wmv89B3wnCu9hPqO+F+Xh4/kmcLOn6WE0cUgGC4AiAAwQ4Eh1cFCECwA8HhVQHBAL4ApQTAYSMnP4sAAAAASUVORK5CYII=;" vertex="1" parent="1">
          <mxGeometry x="1440" y="828" width="40" height="40" as="geometry" />
        </mxCell>
        <mxCell id="L1AszbLgewjzpD16x1e3-87" style="edgeStyle=orthogonalEdgeStyle;shape=connector;rounded=0;orthogonalLoop=1;jettySize=auto;html=1;entryX=0;entryY=0.5;entryDx=0;entryDy=0;strokeColor=default;align=center;verticalAlign=middle;fontFamily=Helvetica;fontSize=11;fontColor=default;labelBackgroundColor=default;endArrow=classic;" edge="1" parent="1" source="L1AszbLgewjzpD16x1e3-88" target="L1AszbLgewjzpD16x1e3-68">
          <mxGeometry relative="1" as="geometry" />
        </mxCell>
        <mxCell id="L1AszbLgewjzpD16x1e3-88" value="" style="shape=image;verticalLabelPosition=bottom;labelBackgroundColor=default;verticalAlign=top;aspect=fixed;imageAspect=0;image=data:image/png,iVBORw0KGgoAAAANSUhEUgAAAGAAAABgCAYAAADimHc4AAAAAXNSR0IArs4c6QAAAn5JREFUeF7tmttywkAMQ8P/f3SZdvoAdAatkb1q4PAaX3Z1rGyS4XLwiypwiXan+QGA8BAAAABhBcLtcQAAwgqE2+MAAIQVCLfHAQAIKxBujwM+EMBXeM+q/dah3Nrsd+cAuBkBAPz1w1ZNtjbDAWHaAACAOoC/r2+9K2xthgNwAA5YUUDEqMfYhKtf3tapFrt4CzvVnk61WAC8bLTWRG5BrXLWiwGgrllrBgBa5awXA0Bds9YMALTKWS8GgLpmrRkAaJWzXgwAdc1aMwDQKueHFzvjp4i3QgaAME4AAOBQh+q0RNEhjDZf/LwMgGEFcMCwwKo8AJRCw9cBMCywKg8ApdDwdQAMC6zKA0AptPm6AqIend38rdtVm9m6mMX3ArVmAJjUXAHdfHP5tXQ1TbVqPdGugG5+zy4WqwBgUaipMABMKbtYFwCLQk2FAWBK2cW6HQC6Dz23npv/KF13vbv6ANCTCoAHjdTQdAvWXQ8H6KG/izg9gOJ+ZbjrANmgGKDW87Sclbz47aa4Hxmu1qwmVjYoBqj1AKAoaDUcAA+K4YDqCBXj1cQBoChoNRwA/9zyOKA60sV4HFB0gBKsqP/2cOUoa39W8uJ7QEeP7arfNARAUv3jkP/etgbMSsYBPwpYGlrJAADAjrsTZ8AOlZ/0AAAAniugJiSs33h76xy1khcP4XEFwg0sDa1kAJzjKSg8oOPtrSG2knEADhgf74UG1hBbyTgABywM6HiINcRW8qIDOnqMq8ibcFJi70XTGjArGQec4wzogJz0h/rUYu3PSk6q8i69ARAmCQAAhBUIt8cBAAgrEG6PAwAQViDcHgcAIKxAuD0OAEBYgXD7K2WebGFb6dd2AAAAAElFTkSuQmCC;" vertex="1" parent="1">
          <mxGeometry x="1580" y="828" width="40" height="40" as="geometry" />
        </mxCell>
        <mxCell id="L1AszbLgewjzpD16x1e3-89" value="" style="shape=image;verticalLabelPosition=bottom;labelBackgroundColor=default;verticalAlign=top;aspect=fixed;imageAspect=0;image=data:image/png,iVBORw0KGgoAAAANSUhEUgAAAGAAAABgCAYAAADimHc4AAAAAXNSR0IArs4c6QAAArpJREFUeF7tnAEuQ1EQRcdOWAlWgpVgJVgJVsJO6MT/iYS689p3M8X5iVQyr3fac/77v5WYo+BoJXDU2p3mgYDmkwABCGgm0NyeHYCAZgLN7dkBCGgm0NyeHYCAZgLN7dkBv1DAcURcREQ+ni2PzW+jtf1rROTPU0Q8LL+XX9DoDriMiLty+v9ceLU5Ke+rb31EwONyxlez//O6FJAi5FEVcL1JupFpLPhMIHndKiQVAXmtf1FB1L8lcKLuCRUBnP27n13yUlQRwLV/dwH5yej8p6dXBLzt3p9nbu4DPzKeIaCS8ZdNqBMUAWb7CDADVvEIUITMdQSYAat4BChC5joCzIBVPAIUIXMdAWbAKh4BipC5jgAzYBWPAEXIXEeAGbCKR4AiZK4jwAxYxSNAETLXEWAGrOIRoAiZ6wgwA1bxCFCEzHUEmAGreAQoQuY6AsyAVTwCFCFzHQFmwCoeAYqQuY4AM2AVjwBFyFxHgBmwikeAImSuI8AMWMUjQBEy1xFgBqziEaAImesIMANW8QhQhMx1BJgBq3gEKELmOgLMgFU8AhQhc90uIOdE5LwIjnECOUco50VsPSr/ZM2ognHw6zOmjCrIAU05qIljnIAcWVPZAXn5yV3AZWhcwJRxNdmWkTXj8OXZn5GVHbC25l5QlyCv/WvUiIB1J+T9gMvRdhm2oX1ryxxVefppZCUyPqYk5kfO52V8ZXmvjO6AcvDEheqLjmp10O/xoF/cQhYB6hQz1xFgBqziEaAImesIMANW8QhQhMx1BJgBq3gEKEJ71vcFvGf7oT/H7Nvry/MP4XsAAqZrHQtEwBiv6asRMB3pWCACxnhNX42A6UjHAhEwxmv6agRMR0pgmcAhfA8ov9i/uBABzVYRgIBmAs3t2QEIaCbQ3J4dgIBmAs3t2QEIaCbQ3J4d0CzgHXMVhGG+CldlAAAAAElFTkSuQmCC;" vertex="1" parent="1">
          <mxGeometry x="2120" y="848" width="40" height="40" as="geometry" />
        </mxCell>
        <mxCell id="L1AszbLgewjzpD16x1e3-90" value="" style="shape=image;verticalLabelPosition=bottom;labelBackgroundColor=default;verticalAlign=top;aspect=fixed;imageAspect=0;image=data:image/png,iVBORw0KGgoAAAANSUhEUgAAAGAAAABgCAYAAADimHc4AAAAAXNSR0IArs4c6QAAAtJJREFUeF7tnOFR3EAMRpdOSCekEqCSkEpCJ9AJdELQ5P6EwZY0n4QG+93MDT8sab3v7a6x726vFq9RAlejrdP4QsDwIEAAAoYJDDfPDEDAMIHh5pkBCBgmMNw8MwABwwSGm2cGIGCYwHDzzAAEDBMYbp4ZcEAB12ut27XWzeU93MUvbz41qFPBga78eo95CMQdOSTFNBXsUHs66Yj/iCXFNBW8I+BurfXnyMM60bcU01TwxknYmv+SOMGjh6aYpoI3yLHu/w8mxTQVvCHAlh5bgnj9I5BimgreIGzLjy1DvIYEvDnkKyQfVm4FHAQIwwMBAryKVARUUBRqIECAV5GKgAqKQg0ECPAqUhFQQVGocRYBdqNoj0y+4o799b0de99f/u7qOYOAqYeFJuGnJ+EMAiafVT1fJGzOgjMImHxWZbPgx94adAYB3qMS4RIaSt1ljIAQQykIARI+PRkBOkOpAgKaP6/wrjEIQIA0g+VkaYQGWpfq819Q8kP0T4QgwBmlEiBmQIAAAvYJVCxzigZmgEKvIBcBBRCVEghQ6BXkIqAAolICAQq9glwEFEBUSiBAoVeQi4ACiEoJBCj0CnIRUABRKYEAhV5BLgIKIColEKDQK8hFQAFEpQQCFHoFuQgogKiUQIBCryAXAQUQlRIIUOgV5CKgAKJSAgEKvYLcby/A60ABI6mE962L6fOXvxs63QHPDgI8Qs3HEdAM2CuPAI9Q83EENAP2yiPAI9R8HAHNgL3yCPAINR/3BEz+UNu6fvr7gMktlR8vm3ZsjkFv9Fjid78Rm9qsw9jZNgW2XcGpBVjnTYJt2mFb6ne/DLht0vHbg++uT91nSn39F4IwFAlErgFiE6Sr1wAINhJgBjTCjZRGQIRSYwwCGuFGSiMgQqkxBgGNcCOlERCh1BiDgEa4kdIIiFBqjEFAI9xIaQREKDXGIKARbqQ0AiKUGmP+ApqEmGHcnOg9AAAAAElFTkSuQmCC;" vertex="1" parent="1">
          <mxGeometry x="2120" y="808" width="40" height="40" as="geometry" />
        </mxCell>
        <mxCell id="L1AszbLgewjzpD16x1e3-91" style="edgeStyle=orthogonalEdgeStyle;shape=connector;rounded=0;orthogonalLoop=1;jettySize=auto;html=1;entryX=0;entryY=0.5;entryDx=0;entryDy=0;strokeColor=default;align=center;verticalAlign=middle;fontFamily=Helvetica;fontSize=11;fontColor=default;labelBackgroundColor=default;endArrow=classic;" edge="1" parent="1" source="L1AszbLgewjzpD16x1e3-92" target="L1AszbLgewjzpD16x1e3-90">
          <mxGeometry relative="1" as="geometry" />
        </mxCell>
        <mxCell id="L1AszbLgewjzpD16x1e3-92" value="" style="shape=image;verticalLabelPosition=bottom;labelBackgroundColor=default;verticalAlign=top;aspect=fixed;imageAspect=0;image=data:image/png,iVBORw0KGgoAAAANSUhEUgAAAGAAAABgCAYAAADimHc4AAAAAXNSR0IArs4c6QAABztJREFUeF7tXe2RHTUQXGeCIwEiwUQCRAKOBIgEMoHrq6crWbdSd49GbxejV0X5x+ljZno+erTa5cOxf5da4MOlu+/Njw3AxU6wAdgAXGyBi7ffEbABuNgCF2+/I2AD8M4C3xzH8dciu3w8juPvRWuHlr1jBGwAQlDmTfruOI7f85b7YqUfj+P4bdHaoWXvGAE/vWjyc0gbPmkDwG10rAQA3g8QbvO7YwQg/SANrfhtAASrrgTgj+M4vhdkeNqQO0bAP4u1v5XOtxLmhaEoFJTJjB4C6/R+t+oFmDKLndFuwtBEwYCj3/8WgOJ1M50m6wGUHP7rS7f7aYDQLBWFjNBxRs838TIjoBRPGOnzC5PBv66QjIIqLGYVAAD1hwdDUxxByh5ZAEA4KN7+0FABDBUIBgDW+4Vo1pOlTFNArLeAXvD6tq7MRtLrHlkAMOYCj4Hh8O/ZDwrC+Iz/K0ozALA/k6f29h7ecCpQWtW5TtfJAIB5bb3xWXpyeD8U7oFY9mF1pJUHoBYjwvDQZ8Si6vlKRA4DdhYAhTb2BEAqGBXLs3mqvCwi27UjspQ1pmitqlDPiKzgSYXIGKTKy6iosSUdOhUFqkJnUsx4P9XqZIDSA5RpzwQAe4ajYAaAZyvpeFqPuUSAV+aEC3IUAKfwKgqMxrhUti7G3z7qjFpUZ2R1HORtnwgAauoBW2G0clSg/0x8eqXS3J48ii6hKIgAoHh/6RSheOkeVS9UqGbUU12aCXaE/gXGVQiHHQUuAKr3nxUlpjxAqzl51MhsHnRA79FzCBgbRm+fHbN5IVrqAqA0TcwLzqIi7WyFWb/6e+vRMHg5w+ot40S/JIoDgNJhOlQRAkIh5HrW3UrKBAaVrrekGWUJhf0pRyavezkAKBsz71cUvPsYJQrkgqwCoG7KHpbMGrccXaCwlxyOf8v5PCIJEZV2Xt8ROM0ZFQDUwuse8zpgRGgk0kDkmYQil8KIpA5ZAUDx/iJ0NpMB+KWrVQzTjpFTgbG4QkTKcjQlKwAo4VbLn6X0rPFrmeSiOAACUQhnUPuZstTQxgoAKv9tZafoD5RV057huK/XHdnTtBn62c6VsoECQFnYSUWzKckJcweESJcdkUUG2wEAirJu9swYSEmlICrGigCtrFvGqEfHkcKPPSyQXQCwwcqUtCL1RFKj0nSGUk47KQJAWUOlYnU6Yvcy3TUdz6/Hsihw046ccjIBcFMSE/IZ3l/0Z6zIcQQr5WQD4KQkJqhynSTq8WfpYhSNSgpiV1skWWdSULsBu4nAwn518XWcj0Wje+jYBeNOADhhL3kXGTRyCAYAlk6xXcoiD0VZBLC93MI3CwKLyFl9JPmYUaRFNgCOmb4c+0wAmMc9OwWNdP8qU9DXBEDWgWNKIVFPLe9EQxmLUWno9CWC2RSkCFqSHmvEMM49+o4mXyaLSondc6538s4AoArpHEU8iwmxdOjKEb29F0pBaspp0WYpCOOdiFrl/VgXzoXO3Hn4Ip3/O93gmYIRA7lhupINsdxf6xx5AmYXZycFuSkHykQvXK2qBUoUto4XcQhWY972UACIphxZiJNQiz5zGKUldgI6mrssJTEAlIakFdxNOT3FM0GIeH4rVzQlDe9KMQAghBOC0ZQzAmHmWgrWzTB+LZ9jD5oFFABUT1x9Mcu9EkKVj9KoB0tiH5WSCr4CQKFlbMMQDTONgDSAt17qF6frq4lQOvPFjp54CkmQHEAFQO1SpU1No99tuMIGJe+HYg4AyiNDlwcjrZQXIq4wdIkk9Q6pSkrkuuMAkBUFZ58BqF8FehYQ7XGDIoPi/VYWcAFQC3LkFSU3eqJAsb6m97UX1fstm1qDHxo7XgChSxOjGmymYWJ7uEcp9SGbQj8t73drQK2cwgKUVzt7BitXPrJetFC+fjICT9FFLrz1RpEIUGkp80bl71C8pITIZ2EiRwiKXGdj5MKbAYBakKPKnM1zGj0lTWbKFj4BiEYAhHfz6azCjpJKipyVp57PHvB095oBAIsqhSlTUVVedqcnUya78GalIKyj0tJeSjn7FtvIOIqnqXSx3gfpzZUF80OFNxMAtyC3nwFgnLwFQwHASY3t+ZX7AsqU98/Q0NYwLOeyzwCob6MoPYJyZMJuNivyTHt/JgA91qG09zWYrKYoADAG5Hjt6GsvIdrZeq5a1JSiVaKg8PbI/6mCea9CRRmIDgC13nV6chjZ0HaZACCf47+ZD29kAMDu9Mx67m0/XaxECRvDCqjieYyCzgLAdLD+nhkB1saDwcyATObZ+Vl6SOswZaRFkgcxRjWzXQpzmRFgZRHOkmsDkGXJ4DqMxQSXfZ2m1JCZ9e25d0xBKwGIUlDbsOqEOwLAqKiq29m4DYBgvZUA3IqCZh5FCHaVh7BeQF7oZOAGQLQe4/LiMu+G3S7l3k6gqGX/q/M2ABcjtwHYAFxsgYu33xGwAbjYAhdvvyNgA3CxBS7e/l+3ltBwKurxowAAAABJRU5ErkJggg==;" vertex="1" parent="1">
          <mxGeometry x="1940" y="808" width="40" height="40" as="geometry" />
        </mxCell>
        <mxCell id="L1AszbLgewjzpD16x1e3-93" style="edgeStyle=orthogonalEdgeStyle;shape=connector;rounded=0;orthogonalLoop=1;jettySize=auto;html=1;entryX=0;entryY=0.5;entryDx=0;entryDy=0;strokeColor=default;align=center;verticalAlign=middle;fontFamily=Helvetica;fontSize=11;fontColor=default;labelBackgroundColor=default;endArrow=classic;" edge="1" parent="1" source="L1AszbLgewjzpD16x1e3-94" target="L1AszbLgewjzpD16x1e3-89">
          <mxGeometry relative="1" as="geometry" />
        </mxCell>
        <mxCell id="L1AszbLgewjzpD16x1e3-94" value="" style="shape=image;verticalLabelPosition=bottom;labelBackgroundColor=default;verticalAlign=top;aspect=fixed;imageAspect=0;image=data:image/png,iVBORw0KGgoAAAANSUhEUgAAAGAAAABgCAYAAADimHc4AAAAAXNSR0IArs4c6QAABztJREFUeF7tXe2RHTUQXGeCIwEiwUQCRAKOBIgEMoHrq6crWbdSd49GbxejV0X5x+ljZno+erTa5cOxf5da4MOlu+/Njw3AxU6wAdgAXGyBi7ffEbABuNgCF2+/I2AD8M4C3xzH8dciu3w8juPvRWuHlr1jBGwAQlDmTfruOI7f85b7YqUfj+P4bdHaoWXvGAE/vWjyc0gbPmkDwG10rAQA3g8QbvO7YwQg/SANrfhtAASrrgTgj+M4vhdkeNqQO0bAP4u1v5XOtxLmhaEoFJTJjB4C6/R+t+oFmDKLndFuwtBEwYCj3/8WgOJ1M50m6wGUHP7rS7f7aYDQLBWFjNBxRs838TIjoBRPGOnzC5PBv66QjIIqLGYVAAD1hwdDUxxByh5ZAEA4KN7+0FABDBUIBgDW+4Vo1pOlTFNArLeAXvD6tq7MRtLrHlkAMOYCj4Hh8O/ZDwrC+Iz/K0ozALA/k6f29h7ecCpQWtW5TtfJAIB5bb3xWXpyeD8U7oFY9mF1pJUHoBYjwvDQZ8Si6vlKRA4DdhYAhTb2BEAqGBXLs3mqvCwi27UjspQ1pmitqlDPiKzgSYXIGKTKy6iosSUdOhUFqkJnUsx4P9XqZIDSA5RpzwQAe4ajYAaAZyvpeFqPuUSAV+aEC3IUAKfwKgqMxrhUti7G3z7qjFpUZ2R1HORtnwgAauoBW2G0clSg/0x8eqXS3J48ii6hKIgAoHh/6RSheOkeVS9UqGbUU12aCXaE/gXGVQiHHQUuAKr3nxUlpjxAqzl51MhsHnRA79FzCBgbRm+fHbN5IVrqAqA0TcwLzqIi7WyFWb/6e+vRMHg5w+ot40S/JIoDgNJhOlQRAkIh5HrW3UrKBAaVrrekGWUJhf0pRyavezkAKBsz71cUvPsYJQrkgqwCoG7KHpbMGrccXaCwlxyOf8v5PCIJEZV2Xt8ROM0ZFQDUwuse8zpgRGgk0kDkmYQil8KIpA5ZAUDx/iJ0NpMB+KWrVQzTjpFTgbG4QkTKcjQlKwAo4VbLn6X0rPFrmeSiOAACUQhnUPuZstTQxgoAKv9tZafoD5RV057huK/XHdnTtBn62c6VsoECQFnYSUWzKckJcweESJcdkUUG2wEAirJu9swYSEmlICrGigCtrFvGqEfHkcKPPSyQXQCwwcqUtCL1RFKj0nSGUk47KQJAWUOlYnU6Yvcy3TUdz6/Hsihw046ccjIBcFMSE/IZ3l/0Z6zIcQQr5WQD4KQkJqhynSTq8WfpYhSNSgpiV1skWWdSULsBu4nAwn518XWcj0Wje+jYBeNOADhhL3kXGTRyCAYAlk6xXcoiD0VZBLC93MI3CwKLyFl9JPmYUaRFNgCOmb4c+0wAmMc9OwWNdP8qU9DXBEDWgWNKIVFPLe9EQxmLUWno9CWC2RSkCFqSHmvEMM49+o4mXyaLSondc6538s4AoArpHEU8iwmxdOjKEb29F0pBaspp0WYpCOOdiFrl/VgXzoXO3Hn4Ip3/O93gmYIRA7lhupINsdxf6xx5AmYXZycFuSkHykQvXK2qBUoUto4XcQhWY972UACIphxZiJNQiz5zGKUldgI6mrssJTEAlIakFdxNOT3FM0GIeH4rVzQlDe9KMQAghBOC0ZQzAmHmWgrWzTB+LZ9jD5oFFABUT1x9Mcu9EkKVj9KoB0tiH5WSCr4CQKFlbMMQDTONgDSAt17qF6frq4lQOvPFjp54CkmQHEAFQO1SpU1No99tuMIGJe+HYg4AyiNDlwcjrZQXIq4wdIkk9Q6pSkrkuuMAkBUFZ58BqF8FehYQ7XGDIoPi/VYWcAFQC3LkFSU3eqJAsb6m97UX1fstm1qDHxo7XgChSxOjGmymYWJ7uEcp9SGbQj8t73drQK2cwgKUVzt7BitXPrJetFC+fjICT9FFLrz1RpEIUGkp80bl71C8pITIZ2EiRwiKXGdj5MKbAYBakKPKnM1zGj0lTWbKFj4BiEYAhHfz6azCjpJKipyVp57PHvB095oBAIsqhSlTUVVedqcnUya78GalIKyj0tJeSjn7FtvIOIqnqXSx3gfpzZUF80OFNxMAtyC3nwFgnLwFQwHASY3t+ZX7AsqU98/Q0NYwLOeyzwCob6MoPYJyZMJuNivyTHt/JgA91qG09zWYrKYoADAG5Hjt6GsvIdrZeq5a1JSiVaKg8PbI/6mCea9CRRmIDgC13nV6chjZ0HaZACCf47+ZD29kAMDu9Mx67m0/XaxECRvDCqjieYyCzgLAdLD+nhkB1saDwcyATObZ+Vl6SOswZaRFkgcxRjWzXQpzmRFgZRHOkmsDkGXJ4DqMxQSXfZ2m1JCZ9e25d0xBKwGIUlDbsOqEOwLAqKiq29m4DYBgvZUA3IqCZh5FCHaVh7BeQF7oZOAGQLQe4/LiMu+G3S7l3k6gqGX/q/M2ABcjtwHYAFxsgYu33xGwAbjYAhdvvyNgA3CxBS7e/l+3ltBwKurxowAAAABJRU5ErkJggg==;" vertex="1" parent="1">
          <mxGeometry x="1940" y="848" width="40" height="40" as="geometry" />
        </mxCell>
        <mxCell id="L1AszbLgewjzpD16x1e3-95" style="edgeStyle=orthogonalEdgeStyle;shape=connector;rounded=0;orthogonalLoop=1;jettySize=auto;html=1;entryX=0;entryY=0.5;entryDx=0;entryDy=0;strokeColor=default;align=center;verticalAlign=middle;fontFamily=Helvetica;fontSize=11;fontColor=default;labelBackgroundColor=default;endArrow=classic;exitX=1;exitY=0.75;exitDx=0;exitDy=0;" edge="1" parent="1" source="L1AszbLgewjzpD16x1e3-97" target="L1AszbLgewjzpD16x1e3-70">
          <mxGeometry relative="1" as="geometry">
            <Array as="points">
              <mxPoint x="1710" y="758" />
              <mxPoint x="1710" y="768" />
            </Array>
          </mxGeometry>
        </mxCell>
        <mxCell id="L1AszbLgewjzpD16x1e3-96" style="edgeStyle=orthogonalEdgeStyle;shape=connector;rounded=0;orthogonalLoop=1;jettySize=auto;html=1;entryX=0;entryY=0.5;entryDx=0;entryDy=0;strokeColor=default;align=center;verticalAlign=middle;fontFamily=Helvetica;fontSize=11;fontColor=default;labelBackgroundColor=default;endArrow=classic;exitX=1;exitY=0.25;exitDx=0;exitDy=0;" edge="1" parent="1" source="L1AszbLgewjzpD16x1e3-97" target="L1AszbLgewjzpD16x1e3-72">
          <mxGeometry relative="1" as="geometry">
            <Array as="points">
              <mxPoint x="1710" y="738" />
              <mxPoint x="1710" y="728" />
            </Array>
          </mxGeometry>
        </mxCell>
        <mxCell id="L1AszbLgewjzpD16x1e3-97" value="" style="shape=image;verticalLabelPosition=bottom;labelBackgroundColor=default;verticalAlign=top;aspect=fixed;imageAspect=0;image=data:image/png,iVBORw0KGgoAAAANSUhEUgAAAGAAAABgCAYAAADimHc4AAAAAXNSR0IArs4c6QAAAn5JREFUeF7tmttywkAMQ8P/f3SZdvoAdAatkb1q4PAaX3Z1rGyS4XLwiypwiXan+QGA8BAAAABhBcLtcQAAwgqE2+MAAIQVCLfHAQAIKxBujwM+EMBXeM+q/dah3Nrsd+cAuBkBAPz1w1ZNtjbDAWHaAACAOoC/r2+9K2xthgNwAA5YUUDEqMfYhKtf3tapFrt4CzvVnk61WAC8bLTWRG5BrXLWiwGgrllrBgBa5awXA0Bds9YMALTKWS8GgLpmrRkAaJWzXgwAdc1aMwDQKueHFzvjp4i3QgaAME4AAOBQh+q0RNEhjDZf/LwMgGEFcMCwwKo8AJRCw9cBMCywKg8ApdDwdQAMC6zKA0AptPm6AqIend38rdtVm9m6mMX3ArVmAJjUXAHdfHP5tXQ1TbVqPdGugG5+zy4WqwBgUaipMABMKbtYFwCLQk2FAWBK2cW6HQC6Dz23npv/KF13vbv6ANCTCoAHjdTQdAvWXQ8H6KG/izg9gOJ+ZbjrANmgGKDW87Sclbz47aa4Hxmu1qwmVjYoBqj1AKAoaDUcAA+K4YDqCBXj1cQBoChoNRwA/9zyOKA60sV4HFB0gBKsqP/2cOUoa39W8uJ7QEeP7arfNARAUv3jkP/etgbMSsYBPwpYGlrJAADAjrsTZ8AOlZ/0AAAAniugJiSs33h76xy1khcP4XEFwg0sDa1kAJzjKSg8oOPtrSG2knEADhgf74UG1hBbyTgABywM6HiINcRW8qIDOnqMq8ibcFJi70XTGjArGQec4wzogJz0h/rUYu3PSk6q8i69ARAmCQAAhBUIt8cBAAgrEG6PAwAQViDcHgcAIKxAuD0OAEBYgXD7K2WebGFb6dd2AAAAAElFTkSuQmCC;" vertex="1" parent="1">
          <mxGeometry x="1580" y="728" width="40" height="40" as="geometry" />
        </mxCell>
        <mxCell id="L1AszbLgewjzpD16x1e3-98" style="edgeStyle=orthogonalEdgeStyle;rounded=0;orthogonalLoop=1;jettySize=auto;html=1;entryX=0;entryY=0.5;entryDx=0;entryDy=0;" edge="1" parent="1" source="L1AszbLgewjzpD16x1e3-99" target="L1AszbLgewjzpD16x1e3-100">
          <mxGeometry relative="1" as="geometry" />
        </mxCell>
        <mxCell id="L1AszbLgewjzpD16x1e3-99" value="System" style="rounded=1;whiteSpace=wrap;html=1;fillColor=#f5f5f5;fontColor=#333333;strokeColor=#666666;fontStyle=1" vertex="1" parent="1">
          <mxGeometry x="1350" y="718" width="50" height="20" as="geometry" />
        </mxCell>
        <mxCell id="L1AszbLgewjzpD16x1e3-100" value="" style="shape=image;verticalLabelPosition=bottom;labelBackgroundColor=default;verticalAlign=top;aspect=fixed;imageAspect=0;image=data:image/png,iVBORw0KGgoAAAANSUhEUgAAAGAAAABgCAYAAADimHc4AAAAAXNSR0IArs4c6QAAA2RJREFUeF7tm+FNxTAMhPM2gU1gE5gEmAQ2gU1gE8AoFdKDNndWWsd5V+mJP6c4uc9OqNueiq5QB06h0RW8CEBwEgiAAAQ7EBxeFSAAwQ4Eh1cFCECwA8HhVQECEOxAcHhVQFIAV6WUh1LKXfD8Rwj/8e2D/e7rX2pOngow89+pKJchNgi3LAQPgGdl/mpGvVUIcMp5AFj2WxXo+uuAVcE1Y4wHwCcT4AK1lKeUuJopANtZRXlKiQUAqmfKU0osADkAeKBCKxtE1NqCqfVTYrACPGMO4i00DQGAbNpPJAD7eQuNnBqA9Y9u6m/podjd4xO09DFEKQHYnbO1MMz8/y5XHyWIR0oArxvmLz7SfRQB+N+B8/+CbNt5BM2ylu4LqI2SpasApnuaoQrSAWC6p3Q3MaAMpgZgfo5+I5cOAHIAL4ls+7+dAyNf6QDYc2M7B5BLhzDgkicDkCrIcACbPZ71r9rq2W89E2jdiGUxPy2AJQPUijirhaMqANjZ0kg8O0D4FpTGXWCiAgCYtKdEAPZ0Fxh7eADAGqaWUOcqJa62tTJganeBxVGeUmIBAOwne1kCAHlKiShPKXGdBtNepmY+iZjylBJXg5C+ziRe0sugu7keAPpAY52LvZpuD5XgywPABm811+AJTCA0w5dXayjzbe1eABP4NsYSBCCYgwAIQLADweG9FaDvhH/B6Tvh4CRewrveb/VUAPOm2yDeHDYN+tm2B4BaEes86Tf7PADUjt4uKMpTSqx2NLSVUZ5SYgEQAMiBYBGV1JQYrADPmMGeUeFbZyC1fkosAD8OCACVr/3FAtDfU2rE1AD0cu4Z66POgNYTNFcfhcrbfuKUFYA8yKf7KP08pUZKB0DfCW/wPWILYrqnGaogXQUw3VO6m0htHn3EUwMwizxV2cdabJR0AJADeFk6/WYZ5llXVToA+k44+BC28EgVZDiA0/aCWjdiWcxPC2ApQrUigloRXU/B4MHSHcLBfnUPLwDdLeUGFADOr+7q4QF0X3GyAak7eUpcjWhlQDK/uk+X8pQSCwAEi/KUEgvAGACY9jI048lEVFJT4moU0teZzFN4OXQ31wNA3wmv89B3wnCu9hPqO+F+Xh4/kmcLOn6WE0cUgGC4AiAAwQ4Eh1cFCECwA8HhVQHBAL4ApQTAYSMnP4sAAAAASUVORK5CYII=;" vertex="1" parent="1">
          <mxGeometry x="1440" y="708" width="40" height="40" as="geometry" />
        </mxCell>
        <mxCell id="L1AszbLgewjzpD16x1e3-101" value="" style="shape=image;verticalLabelPosition=bottom;labelBackgroundColor=default;verticalAlign=top;aspect=fixed;imageAspect=0;image=data:image/png,iVBORw0KGgoAAAANSUhEUgAAAGAAAABgCAYAAADimHc4AAAAAXNSR0IArs4c6QAABztJREFUeF7tXe2RHTUQXGeCIwEiwUQCRAKOBIgEMoHrq6crWbdSd49GbxejV0X5x+ljZno+erTa5cOxf5da4MOlu+/Njw3AxU6wAdgAXGyBi7ffEbABuNgCF2+/I2AD8M4C3xzH8dciu3w8juPvRWuHlr1jBGwAQlDmTfruOI7f85b7YqUfj+P4bdHaoWXvGAE/vWjyc0gbPmkDwG10rAQA3g8QbvO7YwQg/SANrfhtAASrrgTgj+M4vhdkeNqQO0bAP4u1v5XOtxLmhaEoFJTJjB4C6/R+t+oFmDKLndFuwtBEwYCj3/8WgOJ1M50m6wGUHP7rS7f7aYDQLBWFjNBxRs838TIjoBRPGOnzC5PBv66QjIIqLGYVAAD1hwdDUxxByh5ZAEA4KN7+0FABDBUIBgDW+4Vo1pOlTFNArLeAXvD6tq7MRtLrHlkAMOYCj4Hh8O/ZDwrC+Iz/K0ozALA/k6f29h7ecCpQWtW5TtfJAIB5bb3xWXpyeD8U7oFY9mF1pJUHoBYjwvDQZ8Si6vlKRA4DdhYAhTb2BEAqGBXLs3mqvCwi27UjspQ1pmitqlDPiKzgSYXIGKTKy6iosSUdOhUFqkJnUsx4P9XqZIDSA5RpzwQAe4ajYAaAZyvpeFqPuUSAV+aEC3IUAKfwKgqMxrhUti7G3z7qjFpUZ2R1HORtnwgAauoBW2G0clSg/0x8eqXS3J48ii6hKIgAoHh/6RSheOkeVS9UqGbUU12aCXaE/gXGVQiHHQUuAKr3nxUlpjxAqzl51MhsHnRA79FzCBgbRm+fHbN5IVrqAqA0TcwLzqIi7WyFWb/6e+vRMHg5w+ot40S/JIoDgNJhOlQRAkIh5HrW3UrKBAaVrrekGWUJhf0pRyavezkAKBsz71cUvPsYJQrkgqwCoG7KHpbMGrccXaCwlxyOf8v5PCIJEZV2Xt8ROM0ZFQDUwuse8zpgRGgk0kDkmYQil8KIpA5ZAUDx/iJ0NpMB+KWrVQzTjpFTgbG4QkTKcjQlKwAo4VbLn6X0rPFrmeSiOAACUQhnUPuZstTQxgoAKv9tZafoD5RV057huK/XHdnTtBn62c6VsoECQFnYSUWzKckJcweESJcdkUUG2wEAirJu9swYSEmlICrGigCtrFvGqEfHkcKPPSyQXQCwwcqUtCL1RFKj0nSGUk47KQJAWUOlYnU6Yvcy3TUdz6/Hsihw046ccjIBcFMSE/IZ3l/0Z6zIcQQr5WQD4KQkJqhynSTq8WfpYhSNSgpiV1skWWdSULsBu4nAwn518XWcj0Wje+jYBeNOADhhL3kXGTRyCAYAlk6xXcoiD0VZBLC93MI3CwKLyFl9JPmYUaRFNgCOmb4c+0wAmMc9OwWNdP8qU9DXBEDWgWNKIVFPLe9EQxmLUWno9CWC2RSkCFqSHmvEMM49+o4mXyaLSondc6538s4AoArpHEU8iwmxdOjKEb29F0pBaspp0WYpCOOdiFrl/VgXzoXO3Hn4Ip3/O93gmYIRA7lhupINsdxf6xx5AmYXZycFuSkHykQvXK2qBUoUto4XcQhWY972UACIphxZiJNQiz5zGKUldgI6mrssJTEAlIakFdxNOT3FM0GIeH4rVzQlDe9KMQAghBOC0ZQzAmHmWgrWzTB+LZ9jD5oFFABUT1x9Mcu9EkKVj9KoB0tiH5WSCr4CQKFlbMMQDTONgDSAt17qF6frq4lQOvPFjp54CkmQHEAFQO1SpU1No99tuMIGJe+HYg4AyiNDlwcjrZQXIq4wdIkk9Q6pSkrkuuMAkBUFZ58BqF8FehYQ7XGDIoPi/VYWcAFQC3LkFSU3eqJAsb6m97UX1fstm1qDHxo7XgChSxOjGmymYWJ7uEcp9SGbQj8t73drQK2cwgKUVzt7BitXPrJetFC+fjICT9FFLrz1RpEIUGkp80bl71C8pITIZ2EiRwiKXGdj5MKbAYBakKPKnM1zGj0lTWbKFj4BiEYAhHfz6azCjpJKipyVp57PHvB095oBAIsqhSlTUVVedqcnUya78GalIKyj0tJeSjn7FtvIOIqnqXSx3gfpzZUF80OFNxMAtyC3nwFgnLwFQwHASY3t+ZX7AsqU98/Q0NYwLOeyzwCob6MoPYJyZMJuNivyTHt/JgA91qG09zWYrKYoADAG5Hjt6GsvIdrZeq5a1JSiVaKg8PbI/6mCea9CRRmIDgC13nV6chjZ0HaZACCf47+ZD29kAMDu9Mx67m0/XaxECRvDCqjieYyCzgLAdLD+nhkB1saDwcyATObZ+Vl6SOswZaRFkgcxRjWzXQpzmRFgZRHOkmsDkGXJ4DqMxQSXfZ2m1JCZ9e25d0xBKwGIUlDbsOqEOwLAqKiq29m4DYBgvZUA3IqCZh5FCHaVh7BeQF7oZOAGQLQe4/LiMu+G3S7l3k6gqGX/q/M2ABcjtwHYAFxsgYu33xGwAbjYAhdvvyNgA3CxBS7e/l+3ltBwKurxowAAAABJRU5ErkJggg==;" vertex="1" parent="1">
          <mxGeometry x="1940" y="648" width="40" height="40" as="geometry" />
        </mxCell>
        <mxCell id="L1AszbLgewjzpD16x1e3-102" style="edgeStyle=orthogonalEdgeStyle;shape=connector;rounded=0;orthogonalLoop=1;jettySize=auto;html=1;entryX=0;entryY=0.5;entryDx=0;entryDy=0;strokeColor=default;align=center;verticalAlign=middle;fontFamily=Helvetica;fontSize=11;fontColor=default;labelBackgroundColor=default;endArrow=classic;" edge="1" parent="1" source="L1AszbLgewjzpD16x1e3-103" target="L1AszbLgewjzpD16x1e3-105">
          <mxGeometry relative="1" as="geometry" />
        </mxCell>
        <mxCell id="L1AszbLgewjzpD16x1e3-103" value="System" style="rounded=1;whiteSpace=wrap;html=1;fillColor=#f5f5f5;fontColor=#333333;strokeColor=#666666;fontStyle=1" vertex="1" parent="1">
          <mxGeometry x="1350" y="658" width="50" height="20" as="geometry" />
        </mxCell>
        <mxCell id="L1AszbLgewjzpD16x1e3-104" style="edgeStyle=orthogonalEdgeStyle;shape=connector;rounded=0;orthogonalLoop=1;jettySize=auto;html=1;entryX=0;entryY=0.5;entryDx=0;entryDy=0;strokeColor=default;align=center;verticalAlign=middle;fontFamily=Helvetica;fontSize=11;fontColor=default;labelBackgroundColor=default;endArrow=classic;" edge="1" parent="1" source="L1AszbLgewjzpD16x1e3-105" target="L1AszbLgewjzpD16x1e3-74">
          <mxGeometry relative="1" as="geometry" />
        </mxCell>
        <mxCell id="L1AszbLgewjzpD16x1e3-105" value="" style="shape=image;verticalLabelPosition=bottom;labelBackgroundColor=default;verticalAlign=top;aspect=fixed;imageAspect=0;image=data:image/png,iVBORw0KGgoAAAANSUhEUgAAAGAAAABgCAYAAADimHc4AAAAAXNSR0IArs4c6QAAA2RJREFUeF7tm+FNxTAMhPM2gU1gE5gEmAQ2gU1gE8AoFdKDNndWWsd5V+mJP6c4uc9OqNueiq5QB06h0RW8CEBwEgiAAAQ7EBxeFSAAwQ4Eh1cFCECwA8HhVQECEOxAcHhVQFIAV6WUh1LKXfD8Rwj/8e2D/e7rX2pOngow89+pKJchNgi3LAQPgGdl/mpGvVUIcMp5AFj2WxXo+uuAVcE1Y4wHwCcT4AK1lKeUuJopANtZRXlKiQUAqmfKU0osADkAeKBCKxtE1NqCqfVTYrACPGMO4i00DQGAbNpPJAD7eQuNnBqA9Y9u6m/podjd4xO09DFEKQHYnbO1MMz8/y5XHyWIR0oArxvmLz7SfRQB+N+B8/+CbNt5BM2ylu4LqI2SpasApnuaoQrSAWC6p3Q3MaAMpgZgfo5+I5cOAHIAL4ls+7+dAyNf6QDYc2M7B5BLhzDgkicDkCrIcACbPZ71r9rq2W89E2jdiGUxPy2AJQPUijirhaMqANjZ0kg8O0D4FpTGXWCiAgCYtKdEAPZ0Fxh7eADAGqaWUOcqJa62tTJganeBxVGeUmIBAOwne1kCAHlKiShPKXGdBtNepmY+iZjylBJXg5C+ziRe0sugu7keAPpAY52LvZpuD5XgywPABm811+AJTCA0w5dXayjzbe1eABP4NsYSBCCYgwAIQLADweG9FaDvhH/B6Tvh4CRewrveb/VUAPOm2yDeHDYN+tm2B4BaEes86Tf7PADUjt4uKMpTSqx2NLSVUZ5SYgEQAMiBYBGV1JQYrADPmMGeUeFbZyC1fkosAD8OCACVr/3FAtDfU2rE1AD0cu4Z66POgNYTNFcfhcrbfuKUFYA8yKf7KP08pUZKB0DfCW/wPWILYrqnGaogXQUw3VO6m0htHn3EUwMwizxV2cdabJR0AJADeFk6/WYZ5llXVToA+k44+BC28EgVZDiA0/aCWjdiWcxPC2ApQrUigloRXU/B4MHSHcLBfnUPLwDdLeUGFADOr+7q4QF0X3GyAak7eUpcjWhlQDK/uk+X8pQSCwAEi/KUEgvAGACY9jI048lEVFJT4moU0teZzFN4OXQ31wNA3wmv89B3wnCu9hPqO+F+Xh4/kmcLOn6WE0cUgGC4AiAAwQ4Eh1cFCECwA8HhVQHBAL4ApQTAYSMnP4sAAAAASUVORK5CYII=;" vertex="1" parent="1">
          <mxGeometry x="1440" y="648" width="40" height="40" as="geometry" />
        </mxCell>
        <mxCell id="L1AszbLgewjzpD16x1e3-106" value="" style="shape=image;verticalLabelPosition=bottom;labelBackgroundColor=default;verticalAlign=top;aspect=fixed;imageAspect=0;image=data:image/png,iVBORw0KGgoAAAANSUhEUgAAAGAAAABgCAYAAADimHc4AAAAAXNSR0IArs4c6QAAAw9JREFUeF7tnQFu1DAQRac3gZvASYCTACcBTlJuAjeBjthVxa429p/8ZLrpi7SiErbHec8z8RbkPARXK4GH1ugEDwQ0LwIEIKCZQHN4MgABzQSaw5MBCGgm0ByeDEBAM4Hm8GTAAQS8iYgPEfHu9Gm+pc3D/46I8+fr6edy0LUZ8Pkp8pdy9PvvmCK+R0SKKF1rBDy+khU/A/ZnRLyfaXjZpirgY0R8qwQ8cJ+sBHImVARkzf91YJDVW8ty9OmpKmQ2TF8VAa+97i/BlbOgIiBLT5YgrmsC8rOgIiDLT5YhrmsCWYbeKmAqAv4MAlTGVObc3dZ6/xVY1gl00yzEt94/AnQDCNCZWXsgwIpTHwwBOjNrDwRYceqDIUBnZu2BACtOfTAE6MysPRBgxakPhgCdmbUHAqw49cEQoDOz9kCAFac+GAJ0ZtYeCLDi1AdDgM7M2gMBVpz6YAjQmVl7IMCKUx8MATozaw8EWHHqgyFAZ2bt8eIFWO/2DgeT/qeJ1PgEY7QC7pCZdcoSU6kxAqZESUylxghAwBSB5kbSopYakwFTaiWmUmMEIGCKQHMjaVFLjSczoDLmErPRttcdb+TPOp/K5K0TGN1tROwdbzQl63wQMMJ9/fcIuGBSWUQ69uceCEDA8vpxr0jriluz9LfYhFRg7Q1k73gjR9b5IGCEm4cw29DLNWBNwYkFuHe80ZSs86EEjXBTgihBlKD/CVCC+CLGF7ElAtJzVWq8xTfBiWegNeUn4o2aWOeDgBFudkHsgtgFsQtarBOVMqoXHv494CYzBGy8L7fuOtYs/S12gZXVszeQveONHFnng4AR7he4DeXgVuNvAioZwLH1twXkuwTyAO/pqyKAw7tv493l8G6Or78tIF/isPnx9RmeFzhcS8jSkyVIuiol6ByAY+yfUcvH1p+7rhGQY/A8+PcSI/nVJS4BOU4+E1JE/pmvsjr6dX6FVa76H92vsTo67M3vb20J2nyCRw+AgGbDCEBAM4Hm8GQAApoJNIcnAxDQTKA5PBmAgGYCzeHJgGYBfwFV8qdhmPgpQgAAAABJRU5ErkJggg==;" vertex="1" parent="1">
          <mxGeometry x="2120" y="708" width="40" height="40" as="geometry" />
        </mxCell>
        <mxCell id="L1AszbLgewjzpD16x1e3-107" value="&lt;span style=&quot;color: rgb(51, 51, 51); font-size: 9px;&quot;&gt;Domain&lt;/span&gt;&lt;br style=&quot;color: rgb(51, 51, 51); font-size: 9px;&quot;&gt;&lt;span style=&quot;color: rgb(51, 51, 51); font-size: 9px;&quot;&gt;Abteilung/Sektion&lt;/span&gt;" style="text;html=1;align=center;verticalAlign=middle;whiteSpace=wrap;rounded=0;fillColor=none;strokeColor=none;fontColor=#666666;fontStyle=1;fontSize=10;" vertex="1" parent="1">
          <mxGeometry x="1240" y="653" width="80" height="30" as="geometry" />
        </mxCell>
        <mxCell id="L1AszbLgewjzpD16x1e3-108" value="&lt;span style=&quot;color: rgb(51, 51, 51); font-size: 9px;&quot;&gt;Domain&lt;/span&gt;&lt;br style=&quot;color: rgb(51, 51, 51); font-size: 9px;&quot;&gt;&lt;span style=&quot;color: rgb(51, 51, 51); font-size: 9px;&quot;&gt;Abteilung/Sektion&lt;/span&gt;" style="text;html=1;align=center;verticalAlign=middle;whiteSpace=wrap;rounded=0;fillColor=none;strokeColor=none;fontColor=#666666;fontStyle=1;fontSize=10;" vertex="1" parent="1">
          <mxGeometry x="1240" y="733" width="80" height="30" as="geometry" />
        </mxCell>
        <mxCell id="L1AszbLgewjzpD16x1e3-109" value="&lt;span style=&quot;color: rgb(51, 51, 51); font-size: 9px;&quot;&gt;Domain&lt;/span&gt;&lt;br style=&quot;color: rgb(51, 51, 51); font-size: 9px;&quot;&gt;&lt;span style=&quot;color: rgb(51, 51, 51); font-size: 9px;&quot;&gt;Abteilung/Sektion&lt;/span&gt;" style="text;html=1;align=center;verticalAlign=middle;whiteSpace=wrap;rounded=0;fillColor=none;strokeColor=none;fontColor=#666666;fontStyle=1;fontSize=10;" vertex="1" parent="1">
          <mxGeometry x="1240" y="833" width="80" height="30" as="geometry" />
        </mxCell>
        <mxCell id="L1AszbLgewjzpD16x1e3-110" style="edgeStyle=orthogonalEdgeStyle;shape=connector;rounded=0;orthogonalLoop=1;jettySize=auto;html=1;entryX=0;entryY=0.5;entryDx=0;entryDy=0;strokeColor=default;align=center;verticalAlign=middle;fontFamily=Helvetica;fontSize=11;fontColor=default;labelBackgroundColor=default;endArrow=classic;" edge="1" parent="1" source="L1AszbLgewjzpD16x1e3-111" target="L1AszbLgewjzpD16x1e3-113">
          <mxGeometry relative="1" as="geometry" />
        </mxCell>
        <mxCell id="L1AszbLgewjzpD16x1e3-111" value="System" style="rounded=1;whiteSpace=wrap;html=1;fillColor=#f5f5f5;fontColor=#333333;strokeColor=#666666;fontStyle=1" vertex="1" parent="1">
          <mxGeometry x="1350" y="758" width="50" height="20" as="geometry" />
        </mxCell>
        <mxCell id="L1AszbLgewjzpD16x1e3-112" style="edgeStyle=orthogonalEdgeStyle;shape=connector;rounded=0;orthogonalLoop=1;jettySize=auto;html=1;entryX=0;entryY=0.75;entryDx=0;entryDy=0;strokeColor=default;align=center;verticalAlign=middle;fontFamily=Helvetica;fontSize=11;fontColor=default;labelBackgroundColor=default;endArrow=classic;" edge="1" parent="1" source="L1AszbLgewjzpD16x1e3-113" target="L1AszbLgewjzpD16x1e3-97">
          <mxGeometry relative="1" as="geometry" />
        </mxCell>
        <mxCell id="L1AszbLgewjzpD16x1e3-113" value="" style="shape=image;verticalLabelPosition=bottom;labelBackgroundColor=default;verticalAlign=top;aspect=fixed;imageAspect=0;image=data:image/png,iVBORw0KGgoAAAANSUhEUgAAAGAAAABgCAYAAADimHc4AAAAAXNSR0IArs4c6QAAA2RJREFUeF7tm+FNxTAMhPM2gU1gE5gEmAQ2gU1gE8AoFdKDNndWWsd5V+mJP6c4uc9OqNueiq5QB06h0RW8CEBwEgiAAAQ7EBxeFSAAwQ4Eh1cFCECwA8HhVQECEOxAcHhVQFIAV6WUh1LKXfD8Rwj/8e2D/e7rX2pOngow89+pKJchNgi3LAQPgGdl/mpGvVUIcMp5AFj2WxXo+uuAVcE1Y4wHwCcT4AK1lKeUuJopANtZRXlKiQUAqmfKU0osADkAeKBCKxtE1NqCqfVTYrACPGMO4i00DQGAbNpPJAD7eQuNnBqA9Y9u6m/podjd4xO09DFEKQHYnbO1MMz8/y5XHyWIR0oArxvmLz7SfRQB+N+B8/+CbNt5BM2ylu4LqI2SpasApnuaoQrSAWC6p3Q3MaAMpgZgfo5+I5cOAHIAL4ls+7+dAyNf6QDYc2M7B5BLhzDgkicDkCrIcACbPZ71r9rq2W89E2jdiGUxPy2AJQPUijirhaMqANjZ0kg8O0D4FpTGXWCiAgCYtKdEAPZ0Fxh7eADAGqaWUOcqJa62tTJganeBxVGeUmIBAOwne1kCAHlKiShPKXGdBtNepmY+iZjylBJXg5C+ziRe0sugu7keAPpAY52LvZpuD5XgywPABm811+AJTCA0w5dXayjzbe1eABP4NsYSBCCYgwAIQLADweG9FaDvhH/B6Tvh4CRewrveb/VUAPOm2yDeHDYN+tm2B4BaEes86Tf7PADUjt4uKMpTSqx2NLSVUZ5SYgEQAMiBYBGV1JQYrADPmMGeUeFbZyC1fkosAD8OCACVr/3FAtDfU2rE1AD0cu4Z66POgNYTNFcfhcrbfuKUFYA8yKf7KP08pUZKB0DfCW/wPWILYrqnGaogXQUw3VO6m0htHn3EUwMwizxV2cdabJR0AJADeFk6/WYZ5llXVToA+k44+BC28EgVZDiA0/aCWjdiWcxPC2ApQrUigloRXU/B4MHSHcLBfnUPLwDdLeUGFADOr+7q4QF0X3GyAak7eUpcjWhlQDK/uk+X8pQSCwAEi/KUEgvAGACY9jI048lEVFJT4moU0teZzFN4OXQ31wNA3wmv89B3wnCu9hPqO+F+Xh4/kmcLOn6WE0cUgGC4AiAAwQ4Eh1cFCECwA8HhVQHBAL4ApQTAYSMnP4sAAAAASUVORK5CYII=;" vertex="1" parent="1">
          <mxGeometry x="1440" y="748" width="40" height="40" as="geometry" />
        </mxCell>
      </root>
    </mxGraphModel>
  </diagram>
</mxfile>
